%TF.GenerationSoftware,KiCad,Pcbnew,8.0.5*%
%TF.CreationDate,2024-10-03T19:58:32-04:00*%
%TF.ProjectId,EX-CSB1,45582d43-5342-4312-9e6b-696361645f70,rev?*%
%TF.SameCoordinates,Original*%
%TF.FileFunction,Copper,L3,Inr*%
%TF.FilePolarity,Positive*%
%FSLAX46Y46*%
G04 Gerber Fmt 4.6, Leading zero omitted, Abs format (unit mm)*
G04 Created by KiCad (PCBNEW 8.0.5) date 2024-10-03 19:58:32*
%MOMM*%
%LPD*%
G01*
G04 APERTURE LIST*
G04 Aperture macros list*
%AMRoundRect*
0 Rectangle with rounded corners*
0 $1 Rounding radius*
0 $2 $3 $4 $5 $6 $7 $8 $9 X,Y pos of 4 corners*
0 Add a 4 corners polygon primitive as box body*
4,1,4,$2,$3,$4,$5,$6,$7,$8,$9,$2,$3,0*
0 Add four circle primitives for the rounded corners*
1,1,$1+$1,$2,$3*
1,1,$1+$1,$4,$5*
1,1,$1+$1,$6,$7*
1,1,$1+$1,$8,$9*
0 Add four rect primitives between the rounded corners*
20,1,$1+$1,$2,$3,$4,$5,0*
20,1,$1+$1,$4,$5,$6,$7,0*
20,1,$1+$1,$6,$7,$8,$9,0*
20,1,$1+$1,$8,$9,$2,$3,0*%
G04 Aperture macros list end*
%TA.AperFunction,ComponentPad*%
%ADD10C,3.500000*%
%TD*%
%TA.AperFunction,ComponentPad*%
%ADD11C,0.600000*%
%TD*%
%TA.AperFunction,ComponentPad*%
%ADD12RoundRect,0.720000X-1.080000X0.180000X-1.080000X-0.180000X1.080000X-0.180000X1.080000X0.180000X0*%
%TD*%
%TA.AperFunction,ComponentPad*%
%ADD13R,1.700000X1.700000*%
%TD*%
%TA.AperFunction,ComponentPad*%
%ADD14O,1.700000X1.700000*%
%TD*%
%TA.AperFunction,ComponentPad*%
%ADD15O,2.100000X1.000000*%
%TD*%
%TA.AperFunction,ComponentPad*%
%ADD16O,1.800000X1.000000*%
%TD*%
%TA.AperFunction,ComponentPad*%
%ADD17RoundRect,0.720000X0.180000X1.080000X-0.180000X1.080000X-0.180000X-1.080000X0.180000X-1.080000X0*%
%TD*%
%TA.AperFunction,ComponentPad*%
%ADD18C,0.550000*%
%TD*%
%TA.AperFunction,ComponentPad*%
%ADD19C,0.500000*%
%TD*%
%TA.AperFunction,ComponentPad*%
%ADD20R,3.500000X3.500000*%
%TD*%
%TA.AperFunction,ComponentPad*%
%ADD21RoundRect,0.350000X-1.400000X-1.400000X1.400000X-1.400000X1.400000X1.400000X-1.400000X1.400000X0*%
%TD*%
%TA.AperFunction,ComponentPad*%
%ADD22RoundRect,0.875000X-1.125000X-0.875000X1.125000X-0.875000X1.125000X0.875000X-1.125000X0.875000X0*%
%TD*%
%TA.AperFunction,ViaPad*%
%ADD23C,0.600000*%
%TD*%
G04 APERTURE END LIST*
D10*
%TO.N,N/C*%
%TO.C,H103*%
X56000000Y46500000D03*
%TD*%
D11*
%TO.N,/out1b*%
%TO.C,J103*%
X8800000Y21250000D03*
X6200000Y21250000D03*
D12*
X7500000Y20750000D03*
D11*
X8800000Y20250000D03*
X6200000Y20250000D03*
%TO.N,/out2b*%
X8800000Y17750000D03*
X6200000Y17750000D03*
D12*
X7500000Y17250000D03*
D11*
X8800000Y16750000D03*
X6200000Y16750000D03*
%TD*%
D13*
%TO.N,unconnected-(J108-Pin_1-Pad1)*%
%TO.C,J108*%
X27825000Y2370000D03*
D14*
%TO.N,+3V3*%
X30365000Y2370000D03*
%TO.N,/reset_n*%
X32905000Y2370000D03*
%TO.N,+3V3*%
X35445000Y2370000D03*
%TO.N,+5V*%
X37985000Y2370000D03*
%TO.N,GND*%
X40525000Y2370000D03*
X43065000Y2370000D03*
%TO.N,vin_pin*%
X45605000Y2370000D03*
%TD*%
D10*
%TO.N,N/C*%
%TO.C,H104*%
X56000000Y28000000D03*
%TD*%
D15*
%TO.N,GND*%
%TO.C,J114*%
X59685000Y37180000D03*
D16*
X63865000Y37180000D03*
D15*
X59685000Y45820000D03*
D16*
X63865000Y45820000D03*
%TD*%
D13*
%TO.N,/scl*%
%TO.C,J107*%
X18685000Y50630000D03*
D14*
%TO.N,/sda*%
X21225000Y50630000D03*
%TO.N,/aref*%
X23765000Y50630000D03*
%TO.N,GND*%
X26305000Y50630000D03*
%TO.N,/d13*%
X28845000Y50630000D03*
%TO.N,/d12*%
X31385000Y50630000D03*
%TO.N,/d11*%
X33925000Y50630000D03*
%TO.N,/d10*%
X36465000Y50630000D03*
%TO.N,/brake_c*%
X39005000Y50630000D03*
%TO.N,/brake_d*%
X41545000Y50630000D03*
%TD*%
D11*
%TO.N,/Booster-C*%
%TO.C,J110*%
X12450000Y44100000D03*
X12450000Y46700000D03*
D17*
X11950000Y45400000D03*
D11*
X11450000Y44100000D03*
X11450000Y46700000D03*
%TO.N,/Booster-D*%
X8950000Y44100000D03*
X8950000Y46700000D03*
D17*
X8450000Y45400000D03*
D11*
X7950000Y44100000D03*
X7950000Y46700000D03*
%TD*%
D18*
%TO.N,/out2b*%
%TO.C,U101*%
X16300000Y23750000D03*
%TO.N,VM*%
X17100000Y23750000D03*
D19*
%TO.N,GND*%
X20400000Y26950000D03*
X19800000Y26950000D03*
X19200000Y26950000D03*
X18600000Y26950000D03*
X18000000Y26950000D03*
X17400000Y26950000D03*
X16800000Y26950000D03*
X16200000Y26950000D03*
X15600000Y26950000D03*
X20000000Y26250000D03*
X16000000Y26200000D03*
X20000000Y25500000D03*
X18000000Y25500000D03*
X16000000Y25450000D03*
X15570000Y25000000D03*
X20000000Y24750000D03*
X16010000Y24520000D03*
X15470000Y24340000D03*
X20400000Y24050000D03*
X19700000Y24050000D03*
X19100000Y24050000D03*
X18500000Y24050000D03*
X17900000Y24050000D03*
%TD*%
D13*
%TO.N,+3V3*%
%TO.C,J106*%
X43700000Y47000000D03*
D14*
X43700000Y44460000D03*
%TO.N,/sda*%
X41160000Y47000000D03*
X41160000Y44460000D03*
%TO.N,GND*%
X38620000Y47000000D03*
X38620000Y44460000D03*
%TO.N,/scl*%
X36080000Y47000000D03*
X36080000Y44460000D03*
%TD*%
D11*
%TO.N,/out1a*%
%TO.C,J101*%
X8800000Y31250000D03*
X6200000Y31250000D03*
D12*
X7500000Y30750000D03*
D11*
X8800000Y30250000D03*
X6200000Y30250000D03*
%TO.N,/out2a*%
X8800000Y27750000D03*
X6200000Y27750000D03*
D12*
X7500000Y27250000D03*
D11*
X8800000Y26750000D03*
X6200000Y26750000D03*
%TD*%
D10*
%TO.N,N/C*%
%TO.C,H101*%
X3000000Y50000000D03*
%TD*%
%TO.N,N/C*%
%TO.C,H102*%
X17000000Y7000000D03*
%TD*%
D13*
%TO.N,/d7*%
%TO.C,J113*%
X45605000Y50630000D03*
D14*
%TO.N,/d6*%
X48145000Y50630000D03*
%TO.N,/d5*%
X50685000Y50630000D03*
%TO.N,/d4*%
X53225000Y50630000D03*
%TO.N,/d3*%
X55765000Y50630000D03*
%TO.N,/d2*%
X58305000Y50630000D03*
%TO.N,/USB_TX*%
X60845000Y50630000D03*
%TO.N,/USB_RX*%
X63385000Y50630000D03*
%TD*%
D13*
%TO.N,/Power/v_conn*%
%TO.C,J204*%
X22765000Y2500000D03*
D14*
X20225000Y2500000D03*
X17685000Y2500000D03*
%TO.N,GND*%
X15145000Y2500000D03*
%TD*%
D13*
%TO.N,/a0*%
%TO.C,J112*%
X50685000Y2370000D03*
D14*
%TO.N,/a1*%
X53225000Y2370000D03*
%TO.N,/a2*%
X55765000Y2370000D03*
%TO.N,/a3*%
X58305000Y2370000D03*
%TO.N,/a4*%
X60845000Y2370000D03*
%TO.N,/a5*%
X63385000Y2370000D03*
%TD*%
D11*
%TO.N,/Power/v_conn*%
%TO.C,J201*%
X10900000Y8700000D03*
X10900000Y7300000D03*
X10900000Y5900000D03*
D20*
X12300000Y7300000D03*
D11*
X13700000Y8700000D03*
X13700000Y7300000D03*
X13700000Y5900000D03*
%TO.N,GND*%
X4900000Y8700000D03*
X4900000Y7300000D03*
X4900000Y5900000D03*
D21*
X6300000Y7300000D03*
D11*
X7700000Y8700000D03*
X7700000Y7300000D03*
X7700000Y5900000D03*
D22*
X9400000Y2600000D03*
%TD*%
D18*
%TO.N,/out2a*%
%TO.C,U102*%
X16300000Y38050000D03*
%TO.N,VM*%
X17100000Y38050000D03*
D19*
%TO.N,GND*%
X20400000Y41250000D03*
X19800000Y41250000D03*
X19200000Y41250000D03*
X18600000Y41250000D03*
X18000000Y41250000D03*
X17400000Y41250000D03*
X16800000Y41250000D03*
X16200000Y41250000D03*
X15600000Y41250000D03*
X20000000Y40550000D03*
X16000000Y40500000D03*
X20000000Y39800000D03*
X18000000Y39800000D03*
X16000000Y39750000D03*
X15570000Y39300000D03*
X20000000Y39050000D03*
X16010000Y38820000D03*
X15470000Y38640000D03*
X20400000Y38350000D03*
X19700000Y38350000D03*
X19100000Y38350000D03*
X18500000Y38350000D03*
X17900000Y38350000D03*
%TD*%
D13*
%TO.N,GND*%
%TO.C,J111*%
X16700000Y47025000D03*
D14*
%TO.N,+3V3*%
X19240000Y47025000D03*
%TO.N,/scl*%
X21780000Y47025000D03*
%TO.N,/sda*%
X24320000Y47025000D03*
%TD*%
D23*
%TO.N,GND*%
X13700000Y40500000D03*
X31200000Y5400000D03*
X27100000Y41400000D03*
X56900000Y34800000D03*
X36000000Y10000000D03*
X45600000Y21400000D03*
X24200000Y17000000D03*
X5300000Y10000000D03*
X24700000Y18700000D03*
X60900000Y42400000D03*
X57000000Y18900000D03*
X40200000Y11300000D03*
X17700000Y16700000D03*
X32400000Y28900000D03*
X39500000Y10600000D03*
X3300000Y9000000D03*
X28700000Y18700000D03*
X3300000Y35200000D03*
X40400000Y8500000D03*
X42800000Y24700000D03*
X50900000Y18400000D03*
X41100000Y8500000D03*
X56300000Y17200000D03*
X48500000Y4400000D03*
X24700000Y19900000D03*
X46900000Y31900000D03*
X56300000Y15800000D03*
X46300000Y21400000D03*
X63100000Y31900000D03*
X57700000Y15800000D03*
X40600000Y21900000D03*
X65100000Y27000000D03*
X8900000Y6600000D03*
X22300000Y33500000D03*
X29700000Y29100000D03*
X32600000Y5400000D03*
X65100000Y7400000D03*
X14500000Y38100000D03*
X56200000Y18900000D03*
X33600000Y19200000D03*
X55600000Y14000000D03*
X5600000Y4200000D03*
X18000000Y13831371D03*
X42900000Y27300000D03*
X14900000Y23700000D03*
X49600000Y47500000D03*
X57700000Y17200000D03*
X35300000Y10000000D03*
X36700000Y10000000D03*
X15400000Y34800000D03*
X15800000Y19400000D03*
X22800000Y21700000D03*
X53200000Y36500000D03*
X31300000Y41100000D03*
X25500000Y32700000D03*
X8700000Y5100000D03*
X45400000Y25300000D03*
X6900000Y10000000D03*
X3400000Y5900000D03*
X24800000Y26600000D03*
X45000000Y7700000D03*
X30500000Y31900000D03*
X9000000Y39900000D03*
X22300000Y27200000D03*
X57100000Y8700000D03*
X26600000Y23100000D03*
X40200000Y12000000D03*
X31900000Y5400000D03*
X29100000Y38200000D03*
X64300000Y22100000D03*
X56700000Y14000000D03*
X16000000Y15500000D03*
X56400000Y25500000D03*
X3300000Y7300000D03*
X61000000Y29700000D03*
X60600000Y11500000D03*
X49500000Y40500000D03*
X57700000Y14000000D03*
X28100000Y21200000D03*
X60500000Y21000000D03*
X48500000Y13500000D03*
X55800000Y40000000D03*
X40200000Y10600000D03*
X58500000Y14000000D03*
X52700000Y10600000D03*
X54100000Y33400000D03*
X7200000Y4500000D03*
X64400000Y29100000D03*
X34600000Y10000000D03*
X55700000Y42300000D03*
X22300000Y32500000D03*
X31400000Y19200000D03*
X44200000Y39100000D03*
X13900000Y24900000D03*
X28700000Y7300000D03*
X8800000Y7900000D03*
X40300000Y6500000D03*
X38700000Y27300000D03*
X4100000Y4400000D03*
X58000000Y18900000D03*
X48500000Y35800000D03*
X4000000Y10100000D03*
X3000000Y29300000D03*
X8500000Y9700000D03*
X43000000Y41000000D03*
X3800000Y18900000D03*
%TD*%
%TA.AperFunction,Conductor*%
%TO.N,GND*%
G36*
X64903487Y52399108D02*
G01*
X65004153Y52387765D01*
X65017792Y52384652D01*
X65110082Y52352359D01*
X65122686Y52346289D01*
X65205470Y52294272D01*
X65216412Y52285546D01*
X65285545Y52216413D01*
X65294271Y52205471D01*
X65346286Y52122690D01*
X65352359Y52110080D01*
X65384650Y52017795D01*
X65387764Y52004151D01*
X65399107Y51903488D01*
X65399500Y51896490D01*
X65399500Y1003511D01*
X65399107Y996513D01*
X65387764Y895850D01*
X65384650Y882206D01*
X65352359Y789921D01*
X65346286Y777311D01*
X65294271Y694530D01*
X65285545Y683588D01*
X65216412Y614455D01*
X65205470Y605729D01*
X65122689Y553714D01*
X65110079Y547641D01*
X65017794Y515350D01*
X65004150Y512236D01*
X64903488Y500893D01*
X64896490Y500500D01*
X1003510Y500500D01*
X996512Y500893D01*
X895849Y512236D01*
X882205Y515350D01*
X789920Y547641D01*
X777310Y553714D01*
X694529Y605729D01*
X683587Y614455D01*
X614454Y683588D01*
X605728Y694530D01*
X553713Y777311D01*
X547641Y789918D01*
X515348Y882208D01*
X512235Y895850D01*
X500893Y996513D01*
X500500Y1003511D01*
X500500Y2500004D01*
X16529571Y2500004D01*
X16529571Y2499997D01*
X16549242Y2287698D01*
X16549244Y2287687D01*
X16607596Y2082609D01*
X16702631Y1891750D01*
X16702632Y1891748D01*
X16702634Y1891745D01*
X16831128Y1721593D01*
X16988697Y1577949D01*
X16988696Y1577949D01*
X17169977Y1465704D01*
X17169978Y1465703D01*
X17169981Y1465702D01*
X17368802Y1388679D01*
X17578390Y1349500D01*
X17578393Y1349500D01*
X17791607Y1349500D01*
X17791610Y1349500D01*
X18001198Y1388679D01*
X18200019Y1465702D01*
X18381302Y1577948D01*
X18538872Y1721593D01*
X18667366Y1891745D01*
X18762405Y2082611D01*
X18820756Y2287690D01*
X18828383Y2370000D01*
X18840429Y2499997D01*
X18840429Y2500004D01*
X19069571Y2500004D01*
X19069571Y2499997D01*
X19089242Y2287698D01*
X19089244Y2287687D01*
X19147596Y2082609D01*
X19242631Y1891750D01*
X19242632Y1891748D01*
X19242634Y1891745D01*
X19371128Y1721593D01*
X19528697Y1577949D01*
X19528696Y1577949D01*
X19709977Y1465704D01*
X19709978Y1465703D01*
X19709981Y1465702D01*
X19908802Y1388679D01*
X20118390Y1349500D01*
X20118393Y1349500D01*
X20331607Y1349500D01*
X20331610Y1349500D01*
X20541198Y1388679D01*
X20740019Y1465702D01*
X20921302Y1577948D01*
X21078872Y1721593D01*
X21207366Y1891745D01*
X21302405Y2082611D01*
X21360756Y2287690D01*
X21368383Y2370000D01*
X21380429Y2499997D01*
X21380429Y2500004D01*
X21360757Y2712303D01*
X21360755Y2712314D01*
X21354480Y2734365D01*
X21302405Y2917389D01*
X21207366Y3108255D01*
X21078872Y3278407D01*
X20951126Y3394864D01*
X21614500Y3394864D01*
X21614500Y1605137D01*
X21617415Y1580008D01*
X21618325Y1577948D01*
X21662794Y1477235D01*
X21742235Y1397794D01*
X21845009Y1352415D01*
X21870135Y1349500D01*
X23659864Y1349501D01*
X23684991Y1352415D01*
X23787765Y1397794D01*
X23867206Y1477235D01*
X23912585Y1580009D01*
X23915500Y1605135D01*
X23915499Y3264864D01*
X26674500Y3264864D01*
X26674500Y1475137D01*
X26677415Y1450008D01*
X26678325Y1447948D01*
X26722794Y1347235D01*
X26802235Y1267794D01*
X26905009Y1222415D01*
X26930135Y1219500D01*
X28719864Y1219501D01*
X28744991Y1222415D01*
X28847765Y1267794D01*
X28927206Y1347235D01*
X28972585Y1450009D01*
X28975500Y1475135D01*
X28975499Y2370004D01*
X29209571Y2370004D01*
X29209571Y2369997D01*
X29229242Y2157698D01*
X29229244Y2157687D01*
X29287596Y1952609D01*
X29382631Y1761750D01*
X29382632Y1761748D01*
X29382634Y1761745D01*
X29511128Y1591593D01*
X29668697Y1447949D01*
X29668696Y1447949D01*
X29849977Y1335704D01*
X29849978Y1335703D01*
X29849981Y1335702D01*
X30048802Y1258679D01*
X30258390Y1219500D01*
X30258393Y1219500D01*
X30471607Y1219500D01*
X30471610Y1219500D01*
X30681198Y1258679D01*
X30880019Y1335702D01*
X31061302Y1447948D01*
X31218872Y1591593D01*
X31347366Y1761745D01*
X31442405Y1952611D01*
X31500756Y2157690D01*
X31520429Y2370000D01*
X31520429Y2370004D01*
X31749571Y2370004D01*
X31749571Y2369997D01*
X31769242Y2157698D01*
X31769244Y2157687D01*
X31827596Y1952609D01*
X31922631Y1761750D01*
X31922632Y1761748D01*
X31922634Y1761745D01*
X32051128Y1591593D01*
X32208697Y1447949D01*
X32208696Y1447949D01*
X32389977Y1335704D01*
X32389978Y1335703D01*
X32389981Y1335702D01*
X32588802Y1258679D01*
X32798390Y1219500D01*
X32798393Y1219500D01*
X33011607Y1219500D01*
X33011610Y1219500D01*
X33221198Y1258679D01*
X33420019Y1335702D01*
X33601302Y1447948D01*
X33758872Y1591593D01*
X33887366Y1761745D01*
X33982405Y1952611D01*
X34040756Y2157690D01*
X34060429Y2370000D01*
X34060429Y2370004D01*
X34289571Y2370004D01*
X34289571Y2369997D01*
X34309242Y2157698D01*
X34309244Y2157687D01*
X34367596Y1952609D01*
X34462631Y1761750D01*
X34462632Y1761748D01*
X34462634Y1761745D01*
X34591128Y1591593D01*
X34748697Y1447949D01*
X34748696Y1447949D01*
X34929977Y1335704D01*
X34929978Y1335703D01*
X34929981Y1335702D01*
X35128802Y1258679D01*
X35338390Y1219500D01*
X35338393Y1219500D01*
X35551607Y1219500D01*
X35551610Y1219500D01*
X35761198Y1258679D01*
X35960019Y1335702D01*
X36141302Y1447948D01*
X36298872Y1591593D01*
X36427366Y1761745D01*
X36522405Y1952611D01*
X36580756Y2157690D01*
X36600429Y2370000D01*
X36600429Y2370004D01*
X36829571Y2370004D01*
X36829571Y2369997D01*
X36849242Y2157698D01*
X36849244Y2157687D01*
X36907596Y1952609D01*
X37002631Y1761750D01*
X37002632Y1761748D01*
X37002634Y1761745D01*
X37131128Y1591593D01*
X37288697Y1447949D01*
X37288696Y1447949D01*
X37469977Y1335704D01*
X37469978Y1335703D01*
X37469981Y1335702D01*
X37668802Y1258679D01*
X37878390Y1219500D01*
X37878393Y1219500D01*
X38091607Y1219500D01*
X38091610Y1219500D01*
X38301198Y1258679D01*
X38500019Y1335702D01*
X38681302Y1447948D01*
X38838872Y1591593D01*
X38967366Y1761745D01*
X39062405Y1952611D01*
X39120756Y2157690D01*
X39140429Y2370000D01*
X39140429Y2370004D01*
X44449571Y2370004D01*
X44449571Y2369997D01*
X44469242Y2157698D01*
X44469244Y2157687D01*
X44527596Y1952609D01*
X44622631Y1761750D01*
X44622632Y1761748D01*
X44622634Y1761745D01*
X44751128Y1591593D01*
X44908697Y1447949D01*
X44908696Y1447949D01*
X45089977Y1335704D01*
X45089978Y1335703D01*
X45089981Y1335702D01*
X45288802Y1258679D01*
X45498390Y1219500D01*
X45498393Y1219500D01*
X45711607Y1219500D01*
X45711610Y1219500D01*
X45921198Y1258679D01*
X46120019Y1335702D01*
X46301302Y1447948D01*
X46458872Y1591593D01*
X46587366Y1761745D01*
X46682405Y1952611D01*
X46740756Y2157690D01*
X46760429Y2370000D01*
X46748383Y2499997D01*
X46740757Y2582303D01*
X46740755Y2582314D01*
X46734480Y2604365D01*
X46682405Y2787389D01*
X46587366Y2978255D01*
X46458872Y3148407D01*
X46331126Y3264864D01*
X49534500Y3264864D01*
X49534500Y1475137D01*
X49537415Y1450008D01*
X49538325Y1447948D01*
X49582794Y1347235D01*
X49662235Y1267794D01*
X49765009Y1222415D01*
X49790135Y1219500D01*
X51579864Y1219501D01*
X51604991Y1222415D01*
X51707765Y1267794D01*
X51787206Y1347235D01*
X51832585Y1450009D01*
X51835500Y1475135D01*
X51835499Y2370004D01*
X52069571Y2370004D01*
X52069571Y2369997D01*
X52089242Y2157698D01*
X52089244Y2157687D01*
X52147596Y1952609D01*
X52242631Y1761750D01*
X52242632Y1761748D01*
X52242634Y1761745D01*
X52371128Y1591593D01*
X52528697Y1447949D01*
X52528696Y1447949D01*
X52709977Y1335704D01*
X52709978Y1335703D01*
X52709981Y1335702D01*
X52908802Y1258679D01*
X53118390Y1219500D01*
X53118393Y1219500D01*
X53331607Y1219500D01*
X53331610Y1219500D01*
X53541198Y1258679D01*
X53740019Y1335702D01*
X53921302Y1447948D01*
X54078872Y1591593D01*
X54207366Y1761745D01*
X54302405Y1952611D01*
X54360756Y2157690D01*
X54380429Y2370000D01*
X54380429Y2370004D01*
X54609571Y2370004D01*
X54609571Y2369997D01*
X54629242Y2157698D01*
X54629244Y2157687D01*
X54687596Y1952609D01*
X54782631Y1761750D01*
X54782632Y1761748D01*
X54782634Y1761745D01*
X54911128Y1591593D01*
X55068697Y1447949D01*
X55068696Y1447949D01*
X55249977Y1335704D01*
X55249978Y1335703D01*
X55249981Y1335702D01*
X55448802Y1258679D01*
X55658390Y1219500D01*
X55658393Y1219500D01*
X55871607Y1219500D01*
X55871610Y1219500D01*
X56081198Y1258679D01*
X56280019Y1335702D01*
X56461302Y1447948D01*
X56618872Y1591593D01*
X56747366Y1761745D01*
X56842405Y1952611D01*
X56900756Y2157690D01*
X56920429Y2370000D01*
X56920429Y2370004D01*
X57149571Y2370004D01*
X57149571Y2369997D01*
X57169242Y2157698D01*
X57169244Y2157687D01*
X57227596Y1952609D01*
X57322631Y1761750D01*
X57322632Y1761748D01*
X57322634Y1761745D01*
X57451128Y1591593D01*
X57608697Y1447949D01*
X57608696Y1447949D01*
X57789977Y1335704D01*
X57789978Y1335703D01*
X57789981Y1335702D01*
X57988802Y1258679D01*
X58198390Y1219500D01*
X58198393Y1219500D01*
X58411607Y1219500D01*
X58411610Y1219500D01*
X58621198Y1258679D01*
X58820019Y1335702D01*
X59001302Y1447948D01*
X59158872Y1591593D01*
X59287366Y1761745D01*
X59382405Y1952611D01*
X59440756Y2157690D01*
X59460429Y2370000D01*
X59460429Y2370004D01*
X59689571Y2370004D01*
X59689571Y2369997D01*
X59709242Y2157698D01*
X59709244Y2157687D01*
X59767596Y1952609D01*
X59862631Y1761750D01*
X59862632Y1761748D01*
X59862634Y1761745D01*
X59991128Y1591593D01*
X60148697Y1447949D01*
X60148696Y1447949D01*
X60329977Y1335704D01*
X60329978Y1335703D01*
X60329981Y1335702D01*
X60528802Y1258679D01*
X60738390Y1219500D01*
X60738393Y1219500D01*
X60951607Y1219500D01*
X60951610Y1219500D01*
X61161198Y1258679D01*
X61360019Y1335702D01*
X61541302Y1447948D01*
X61698872Y1591593D01*
X61827366Y1761745D01*
X61922405Y1952611D01*
X61980756Y2157690D01*
X62000429Y2370000D01*
X62000429Y2370004D01*
X62229571Y2370004D01*
X62229571Y2369997D01*
X62249242Y2157698D01*
X62249244Y2157687D01*
X62307596Y1952609D01*
X62402631Y1761750D01*
X62402632Y1761748D01*
X62402634Y1761745D01*
X62531128Y1591593D01*
X62688697Y1447949D01*
X62688696Y1447949D01*
X62869977Y1335704D01*
X62869978Y1335703D01*
X62869981Y1335702D01*
X63068802Y1258679D01*
X63278390Y1219500D01*
X63278393Y1219500D01*
X63491607Y1219500D01*
X63491610Y1219500D01*
X63701198Y1258679D01*
X63900019Y1335702D01*
X64081302Y1447948D01*
X64238872Y1591593D01*
X64367366Y1761745D01*
X64462405Y1952611D01*
X64520756Y2157690D01*
X64540429Y2370000D01*
X64528383Y2499997D01*
X64520757Y2582303D01*
X64520755Y2582314D01*
X64514480Y2604365D01*
X64462405Y2787389D01*
X64367366Y2978255D01*
X64238872Y3148407D01*
X64081302Y3292052D01*
X64081303Y3292052D01*
X63900022Y3404297D01*
X63900021Y3404298D01*
X63783703Y3449359D01*
X63701198Y3481321D01*
X63701195Y3481322D01*
X63701194Y3481322D01*
X63491614Y3520500D01*
X63491610Y3520500D01*
X63278390Y3520500D01*
X63278385Y3520500D01*
X63068805Y3481322D01*
X62869978Y3404298D01*
X62869977Y3404297D01*
X62688696Y3292052D01*
X62531126Y3148405D01*
X62531124Y3148403D01*
X62402634Y2978255D01*
X62402631Y2978251D01*
X62307596Y2787392D01*
X62249244Y2582314D01*
X62249242Y2582303D01*
X62229571Y2370004D01*
X62000429Y2370004D01*
X61988383Y2499997D01*
X61980757Y2582303D01*
X61980755Y2582314D01*
X61974480Y2604365D01*
X61922405Y2787389D01*
X61827366Y2978255D01*
X61698872Y3148407D01*
X61541302Y3292052D01*
X61541303Y3292052D01*
X61360022Y3404297D01*
X61360021Y3404298D01*
X61243703Y3449359D01*
X61161198Y3481321D01*
X61161195Y3481322D01*
X61161194Y3481322D01*
X60951614Y3520500D01*
X60951610Y3520500D01*
X60738390Y3520500D01*
X60738385Y3520500D01*
X60528805Y3481322D01*
X60329978Y3404298D01*
X60329977Y3404297D01*
X60148696Y3292052D01*
X59991126Y3148405D01*
X59991124Y3148403D01*
X59862634Y2978255D01*
X59862631Y2978251D01*
X59767596Y2787392D01*
X59709244Y2582314D01*
X59709242Y2582303D01*
X59689571Y2370004D01*
X59460429Y2370004D01*
X59448383Y2499997D01*
X59440757Y2582303D01*
X59440755Y2582314D01*
X59434480Y2604365D01*
X59382405Y2787389D01*
X59287366Y2978255D01*
X59158872Y3148407D01*
X59001302Y3292052D01*
X59001303Y3292052D01*
X58820022Y3404297D01*
X58820021Y3404298D01*
X58703703Y3449359D01*
X58621198Y3481321D01*
X58621195Y3481322D01*
X58621194Y3481322D01*
X58411614Y3520500D01*
X58411610Y3520500D01*
X58198390Y3520500D01*
X58198385Y3520500D01*
X57988805Y3481322D01*
X57789978Y3404298D01*
X57789977Y3404297D01*
X57608696Y3292052D01*
X57451126Y3148405D01*
X57451124Y3148403D01*
X57322634Y2978255D01*
X57322631Y2978251D01*
X57227596Y2787392D01*
X57169244Y2582314D01*
X57169242Y2582303D01*
X57149571Y2370004D01*
X56920429Y2370004D01*
X56908383Y2499997D01*
X56900757Y2582303D01*
X56900755Y2582314D01*
X56894480Y2604365D01*
X56842405Y2787389D01*
X56747366Y2978255D01*
X56618872Y3148407D01*
X56461302Y3292052D01*
X56461303Y3292052D01*
X56280022Y3404297D01*
X56280021Y3404298D01*
X56163703Y3449359D01*
X56081198Y3481321D01*
X56081195Y3481322D01*
X56081194Y3481322D01*
X55871614Y3520500D01*
X55871610Y3520500D01*
X55658390Y3520500D01*
X55658385Y3520500D01*
X55448805Y3481322D01*
X55249978Y3404298D01*
X55249977Y3404297D01*
X55068696Y3292052D01*
X54911126Y3148405D01*
X54911124Y3148403D01*
X54782634Y2978255D01*
X54782631Y2978251D01*
X54687596Y2787392D01*
X54629244Y2582314D01*
X54629242Y2582303D01*
X54609571Y2370004D01*
X54380429Y2370004D01*
X54368383Y2499997D01*
X54360757Y2582303D01*
X54360755Y2582314D01*
X54354480Y2604365D01*
X54302405Y2787389D01*
X54207366Y2978255D01*
X54078872Y3148407D01*
X53921302Y3292052D01*
X53921303Y3292052D01*
X53740022Y3404297D01*
X53740021Y3404298D01*
X53623703Y3449359D01*
X53541198Y3481321D01*
X53541195Y3481322D01*
X53541194Y3481322D01*
X53331614Y3520500D01*
X53331610Y3520500D01*
X53118390Y3520500D01*
X53118385Y3520500D01*
X52908805Y3481322D01*
X52709978Y3404298D01*
X52709977Y3404297D01*
X52528696Y3292052D01*
X52371126Y3148405D01*
X52371124Y3148403D01*
X52242634Y2978255D01*
X52242631Y2978251D01*
X52147596Y2787392D01*
X52089244Y2582314D01*
X52089242Y2582303D01*
X52069571Y2370004D01*
X51835499Y2370004D01*
X51835499Y3264864D01*
X51832585Y3289991D01*
X51787206Y3392765D01*
X51707765Y3472206D01*
X51604991Y3517585D01*
X51579865Y3520500D01*
X51579863Y3520500D01*
X49790136Y3520500D01*
X49765007Y3517585D01*
X49662233Y3472205D01*
X49582795Y3392767D01*
X49537415Y3289990D01*
X49534500Y3264864D01*
X46331126Y3264864D01*
X46301302Y3292052D01*
X46301303Y3292052D01*
X46120022Y3404297D01*
X46120021Y3404298D01*
X46003703Y3449359D01*
X45921198Y3481321D01*
X45921195Y3481322D01*
X45921194Y3481322D01*
X45711614Y3520500D01*
X45711610Y3520500D01*
X45498390Y3520500D01*
X45498385Y3520500D01*
X45288805Y3481322D01*
X45089978Y3404298D01*
X45089977Y3404297D01*
X44908696Y3292052D01*
X44751126Y3148405D01*
X44751124Y3148403D01*
X44622634Y2978255D01*
X44622631Y2978251D01*
X44527596Y2787392D01*
X44469244Y2582314D01*
X44469242Y2582303D01*
X44449571Y2370004D01*
X39140429Y2370004D01*
X39128383Y2499997D01*
X39120757Y2582303D01*
X39120755Y2582314D01*
X39114480Y2604365D01*
X39062405Y2787389D01*
X38967366Y2978255D01*
X38838872Y3148407D01*
X38681302Y3292052D01*
X38681303Y3292052D01*
X38500022Y3404297D01*
X38500021Y3404298D01*
X38383703Y3449359D01*
X38301198Y3481321D01*
X38301195Y3481322D01*
X38301194Y3481322D01*
X38091614Y3520500D01*
X38091610Y3520500D01*
X37878390Y3520500D01*
X37878385Y3520500D01*
X37668805Y3481322D01*
X37469978Y3404298D01*
X37469977Y3404297D01*
X37288696Y3292052D01*
X37131126Y3148405D01*
X37131124Y3148403D01*
X37002634Y2978255D01*
X37002631Y2978251D01*
X36907596Y2787392D01*
X36849244Y2582314D01*
X36849242Y2582303D01*
X36829571Y2370004D01*
X36600429Y2370004D01*
X36588383Y2499997D01*
X36580757Y2582303D01*
X36580755Y2582314D01*
X36574480Y2604365D01*
X36522405Y2787389D01*
X36427366Y2978255D01*
X36298872Y3148407D01*
X36141302Y3292052D01*
X36141303Y3292052D01*
X35960022Y3404297D01*
X35960021Y3404298D01*
X35843703Y3449359D01*
X35761198Y3481321D01*
X35761195Y3481322D01*
X35761194Y3481322D01*
X35551614Y3520500D01*
X35551610Y3520500D01*
X35338390Y3520500D01*
X35338385Y3520500D01*
X35128805Y3481322D01*
X34929978Y3404298D01*
X34929977Y3404297D01*
X34748696Y3292052D01*
X34591126Y3148405D01*
X34591124Y3148403D01*
X34462634Y2978255D01*
X34462631Y2978251D01*
X34367596Y2787392D01*
X34309244Y2582314D01*
X34309242Y2582303D01*
X34289571Y2370004D01*
X34060429Y2370004D01*
X34048383Y2499997D01*
X34040757Y2582303D01*
X34040755Y2582314D01*
X34034480Y2604365D01*
X33982405Y2787389D01*
X33887366Y2978255D01*
X33758872Y3148407D01*
X33601302Y3292052D01*
X33601303Y3292052D01*
X33420022Y3404297D01*
X33420021Y3404298D01*
X33303703Y3449359D01*
X33221198Y3481321D01*
X33221195Y3481322D01*
X33221194Y3481322D01*
X33011614Y3520500D01*
X33011610Y3520500D01*
X32798390Y3520500D01*
X32798385Y3520500D01*
X32588805Y3481322D01*
X32389978Y3404298D01*
X32389977Y3404297D01*
X32208696Y3292052D01*
X32051126Y3148405D01*
X32051124Y3148403D01*
X31922634Y2978255D01*
X31922631Y2978251D01*
X31827596Y2787392D01*
X31769244Y2582314D01*
X31769242Y2582303D01*
X31749571Y2370004D01*
X31520429Y2370004D01*
X31508383Y2499997D01*
X31500757Y2582303D01*
X31500755Y2582314D01*
X31494480Y2604365D01*
X31442405Y2787389D01*
X31347366Y2978255D01*
X31218872Y3148407D01*
X31061302Y3292052D01*
X31061303Y3292052D01*
X30880022Y3404297D01*
X30880021Y3404298D01*
X30763703Y3449359D01*
X30681198Y3481321D01*
X30681195Y3481322D01*
X30681194Y3481322D01*
X30471614Y3520500D01*
X30471610Y3520500D01*
X30258390Y3520500D01*
X30258385Y3520500D01*
X30048805Y3481322D01*
X29849978Y3404298D01*
X29849977Y3404297D01*
X29668696Y3292052D01*
X29511126Y3148405D01*
X29511124Y3148403D01*
X29382634Y2978255D01*
X29382631Y2978251D01*
X29287596Y2787392D01*
X29229244Y2582314D01*
X29229242Y2582303D01*
X29209571Y2370004D01*
X28975499Y2370004D01*
X28975499Y3264864D01*
X28972585Y3289991D01*
X28927206Y3392765D01*
X28847765Y3472206D01*
X28744991Y3517585D01*
X28719865Y3520500D01*
X28719863Y3520500D01*
X26930136Y3520500D01*
X26905007Y3517585D01*
X26802233Y3472205D01*
X26722795Y3392767D01*
X26677415Y3289990D01*
X26674500Y3264864D01*
X23915499Y3264864D01*
X23915499Y3394864D01*
X23912585Y3419991D01*
X23867206Y3522765D01*
X23787765Y3602206D01*
X23684991Y3647585D01*
X23659865Y3650500D01*
X23659863Y3650500D01*
X21870136Y3650500D01*
X21845007Y3647585D01*
X21742233Y3602205D01*
X21662795Y3522767D01*
X21662794Y3522766D01*
X21662794Y3522765D01*
X21661794Y3520499D01*
X21617415Y3419990D01*
X21614500Y3394864D01*
X20951126Y3394864D01*
X20921302Y3422052D01*
X20921303Y3422052D01*
X20740022Y3534297D01*
X20740021Y3534298D01*
X20623703Y3579359D01*
X20541198Y3611321D01*
X20541195Y3611322D01*
X20541194Y3611322D01*
X20331614Y3650500D01*
X20331610Y3650500D01*
X20118390Y3650500D01*
X20118385Y3650500D01*
X19908805Y3611322D01*
X19709978Y3534298D01*
X19709977Y3534297D01*
X19528696Y3422052D01*
X19371126Y3278405D01*
X19371124Y3278403D01*
X19242634Y3108255D01*
X19242631Y3108251D01*
X19147596Y2917392D01*
X19089244Y2712314D01*
X19089242Y2712303D01*
X19069571Y2500004D01*
X18840429Y2500004D01*
X18820757Y2712303D01*
X18820755Y2712314D01*
X18814480Y2734365D01*
X18762405Y2917389D01*
X18667366Y3108255D01*
X18538872Y3278407D01*
X18381302Y3422052D01*
X18381303Y3422052D01*
X18200022Y3534297D01*
X18200021Y3534298D01*
X18083703Y3579359D01*
X18001198Y3611321D01*
X18001195Y3611322D01*
X18001194Y3611322D01*
X17791614Y3650500D01*
X17791610Y3650500D01*
X17578390Y3650500D01*
X17578385Y3650500D01*
X17368805Y3611322D01*
X17169978Y3534298D01*
X17169977Y3534297D01*
X16988696Y3422052D01*
X16831126Y3278405D01*
X16831124Y3278403D01*
X16702634Y3108255D01*
X16702631Y3108251D01*
X16607596Y2917392D01*
X16549244Y2712314D01*
X16549242Y2712303D01*
X16529571Y2500004D01*
X500500Y2500004D01*
X500500Y9094864D01*
X10249500Y9094864D01*
X10249500Y5505137D01*
X10252415Y5480011D01*
X10252415Y5480009D01*
X10297794Y5377235D01*
X10377235Y5297794D01*
X10480009Y5252415D01*
X10505135Y5249500D01*
X14094864Y5249501D01*
X14119991Y5252415D01*
X14222765Y5297794D01*
X14302206Y5377235D01*
X14347585Y5480009D01*
X14350500Y5505135D01*
X14350500Y7000005D01*
X14944709Y7000005D01*
X14944709Y6999996D01*
X14963850Y6720147D01*
X14963851Y6720144D01*
X15020925Y6445490D01*
X15020928Y6445481D01*
X15114862Y6181173D01*
X15243918Y5932105D01*
X15405687Y5702931D01*
X15405694Y5702923D01*
X15597148Y5497925D01*
X15597156Y5497918D01*
X15647022Y5457349D01*
X15814754Y5320889D01*
X15814756Y5320888D01*
X16054424Y5175142D01*
X16054428Y5175140D01*
X16054432Y5175138D01*
X16311725Y5063380D01*
X16581839Y4987697D01*
X16859742Y4949500D01*
X16859743Y4949500D01*
X17140257Y4949500D01*
X17140258Y4949500D01*
X17418161Y4987697D01*
X17688275Y5063380D01*
X17945568Y5175138D01*
X18185246Y5320889D01*
X18402845Y5497919D01*
X18402851Y5497925D01*
X18594305Y5702923D01*
X18594312Y5702931D01*
X18756081Y5932104D01*
X18885136Y6181170D01*
X18979075Y6445489D01*
X19036148Y6720138D01*
X19055291Y7000000D01*
X19036148Y7279862D01*
X18979075Y7554511D01*
X18885136Y7818830D01*
X18791262Y8000000D01*
X39244867Y8000000D01*
X39263302Y7871776D01*
X39263303Y7871774D01*
X39317118Y7753937D01*
X39401951Y7656033D01*
X39510931Y7585996D01*
X39510933Y7585996D01*
X39510934Y7585995D01*
X39635225Y7549501D01*
X39635227Y7549500D01*
X39635228Y7549500D01*
X39764773Y7549500D01*
X39764773Y7549501D01*
X39889069Y7585996D01*
X39998049Y7656033D01*
X40082882Y7753937D01*
X40136697Y7871774D01*
X40155133Y8000000D01*
X40136697Y8128226D01*
X40082882Y8246063D01*
X40036146Y8300000D01*
X55444867Y8300000D01*
X55463302Y8171776D01*
X55463303Y8171774D01*
X55517118Y8053937D01*
X55601951Y7956033D01*
X55710931Y7885996D01*
X55710933Y7885996D01*
X55710934Y7885995D01*
X55835225Y7849501D01*
X55835227Y7849500D01*
X55835228Y7849500D01*
X55964773Y7849500D01*
X55964773Y7849501D01*
X56089069Y7885996D01*
X56198049Y7956033D01*
X56282882Y8053937D01*
X56336697Y8171774D01*
X56355133Y8300000D01*
X57944867Y8300000D01*
X57963302Y8171776D01*
X57963303Y8171774D01*
X58017118Y8053937D01*
X58101951Y7956033D01*
X58210931Y7885996D01*
X58210933Y7885996D01*
X58210934Y7885995D01*
X58335225Y7849501D01*
X58335227Y7849500D01*
X58335228Y7849500D01*
X58464773Y7849500D01*
X58464773Y7849501D01*
X58589069Y7885996D01*
X58698049Y7956033D01*
X58782882Y8053937D01*
X58836697Y8171774D01*
X58855133Y8300000D01*
X58836697Y8428226D01*
X58782882Y8546063D01*
X58736146Y8600000D01*
X61044867Y8600000D01*
X61063302Y8471776D01*
X61063303Y8471774D01*
X61117118Y8353937D01*
X61201951Y8256033D01*
X61310931Y8185996D01*
X61310933Y8185996D01*
X61310934Y8185995D01*
X61435225Y8149501D01*
X61435227Y8149500D01*
X61435228Y8149500D01*
X61564773Y8149500D01*
X61564773Y8149501D01*
X61689069Y8185996D01*
X61798049Y8256033D01*
X61882882Y8353937D01*
X61936697Y8471774D01*
X61938136Y8481782D01*
X61962545Y8522921D01*
X62008894Y8534752D01*
X62050033Y8510343D01*
X62061864Y8481782D01*
X62063302Y8471776D01*
X62063303Y8471774D01*
X62117118Y8353937D01*
X62201951Y8256033D01*
X62310931Y8185996D01*
X62310933Y8185996D01*
X62310934Y8185995D01*
X62435225Y8149501D01*
X62435227Y8149500D01*
X62435228Y8149500D01*
X62564773Y8149500D01*
X62564773Y8149501D01*
X62689069Y8185996D01*
X62798049Y8256033D01*
X62882882Y8353937D01*
X62936697Y8471774D01*
X62955133Y8600000D01*
X62936697Y8728226D01*
X62882882Y8846063D01*
X62798049Y8943967D01*
X62798048Y8943968D01*
X62756081Y8970938D01*
X62689069Y9014004D01*
X62689067Y9014005D01*
X62689065Y9014006D01*
X62564774Y9050500D01*
X62564772Y9050500D01*
X62435228Y9050500D01*
X62435226Y9050500D01*
X62310934Y9014006D01*
X62201951Y8943968D01*
X62117118Y8846064D01*
X62117118Y8846063D01*
X62063302Y8728225D01*
X62061864Y8718218D01*
X62037455Y8677079D01*
X61991105Y8665249D01*
X61949966Y8689658D01*
X61938136Y8718218D01*
X61936697Y8728225D01*
X61936697Y8728226D01*
X61882882Y8846063D01*
X61798049Y8943967D01*
X61798048Y8943968D01*
X61756081Y8970938D01*
X61689069Y9014004D01*
X61689067Y9014005D01*
X61689065Y9014006D01*
X61564774Y9050500D01*
X61564772Y9050500D01*
X61435228Y9050500D01*
X61435226Y9050500D01*
X61310934Y9014006D01*
X61201951Y8943968D01*
X61117118Y8846064D01*
X61117118Y8846063D01*
X61063302Y8728225D01*
X61044867Y8600000D01*
X58736146Y8600000D01*
X58698049Y8643967D01*
X58698048Y8643968D01*
X58656081Y8670938D01*
X58589069Y8714004D01*
X58589067Y8714005D01*
X58589065Y8714006D01*
X58464774Y8750500D01*
X58464772Y8750500D01*
X58335228Y8750500D01*
X58335226Y8750500D01*
X58210934Y8714006D01*
X58101951Y8643968D01*
X58017118Y8546064D01*
X58017118Y8546063D01*
X57963302Y8428225D01*
X57944867Y8300000D01*
X56355133Y8300000D01*
X56336697Y8428226D01*
X56282882Y8546063D01*
X56198049Y8643967D01*
X56198048Y8643968D01*
X56156081Y8670938D01*
X56089069Y8714004D01*
X56089067Y8714005D01*
X56089065Y8714006D01*
X55964774Y8750500D01*
X55964772Y8750500D01*
X55835228Y8750500D01*
X55835226Y8750500D01*
X55710934Y8714006D01*
X55601951Y8643968D01*
X55517118Y8546064D01*
X55517118Y8546063D01*
X55463302Y8428225D01*
X55444867Y8300000D01*
X40036146Y8300000D01*
X39998049Y8343967D01*
X39998048Y8343968D01*
X39956081Y8370938D01*
X39889069Y8414004D01*
X39889067Y8414005D01*
X39889065Y8414006D01*
X39764774Y8450500D01*
X39764772Y8450500D01*
X39635228Y8450500D01*
X39635226Y8450500D01*
X39510934Y8414006D01*
X39401951Y8343968D01*
X39317118Y8246064D01*
X39317118Y8246063D01*
X39263302Y8128225D01*
X39244867Y8000000D01*
X18791262Y8000000D01*
X18756081Y8067896D01*
X18698478Y8149501D01*
X18594312Y8297070D01*
X18594305Y8297078D01*
X18402851Y8502076D01*
X18402843Y8502083D01*
X18282486Y8600000D01*
X18185246Y8679111D01*
X18185243Y8679113D01*
X17945575Y8824859D01*
X17896756Y8846064D01*
X17688275Y8936620D01*
X17688273Y8936621D01*
X17688272Y8936621D01*
X17688270Y8936622D01*
X17418164Y9012303D01*
X17140261Y9050500D01*
X17140258Y9050500D01*
X16859742Y9050500D01*
X16859738Y9050500D01*
X16581835Y9012303D01*
X16311729Y8936622D01*
X16311727Y8936621D01*
X16054424Y8824859D01*
X15814756Y8679113D01*
X15597156Y8502083D01*
X15597148Y8502076D01*
X15405694Y8297078D01*
X15405687Y8297070D01*
X15243918Y8067896D01*
X15114862Y7818828D01*
X15020928Y7554520D01*
X15020925Y7554511D01*
X14963851Y7279857D01*
X14963850Y7279854D01*
X14944709Y7000005D01*
X14350500Y7000005D01*
X14350499Y9094864D01*
X14347585Y9119991D01*
X14302206Y9222765D01*
X14224971Y9300000D01*
X45044867Y9300000D01*
X45063302Y9171776D01*
X45063303Y9171774D01*
X45117118Y9053937D01*
X45201951Y8956033D01*
X45310931Y8885996D01*
X45310933Y8885996D01*
X45310934Y8885995D01*
X45435225Y8849501D01*
X45435227Y8849500D01*
X45435228Y8849500D01*
X45564773Y8849500D01*
X45564773Y8849501D01*
X45689069Y8885996D01*
X45798049Y8956033D01*
X45882882Y9053937D01*
X45936697Y9171774D01*
X45955133Y9300000D01*
X45936697Y9428226D01*
X45882882Y9546063D01*
X45798049Y9643967D01*
X45798048Y9643968D01*
X45732650Y9685996D01*
X45689069Y9714004D01*
X45689067Y9714005D01*
X45689065Y9714006D01*
X45564774Y9750500D01*
X45564772Y9750500D01*
X45435228Y9750500D01*
X45435226Y9750500D01*
X45310934Y9714006D01*
X45201951Y9643968D01*
X45117118Y9546064D01*
X45117118Y9546063D01*
X45063302Y9428225D01*
X45044867Y9300000D01*
X14224971Y9300000D01*
X14222765Y9302206D01*
X14119991Y9347585D01*
X14094865Y9350500D01*
X14094863Y9350500D01*
X10505136Y9350500D01*
X10480007Y9347585D01*
X10377233Y9302205D01*
X10297795Y9222767D01*
X10297794Y9222766D01*
X10297794Y9222765D01*
X10275280Y9171774D01*
X10252415Y9119990D01*
X10249500Y9094864D01*
X500500Y9094864D01*
X500500Y10100000D01*
X49744867Y10100000D01*
X49763302Y9971776D01*
X49763303Y9971774D01*
X49817118Y9853937D01*
X49901951Y9756033D01*
X50010931Y9685996D01*
X50010933Y9685996D01*
X50010934Y9685995D01*
X50135225Y9649501D01*
X50135227Y9649500D01*
X50135228Y9649500D01*
X50264773Y9649500D01*
X50264773Y9649501D01*
X50389069Y9685996D01*
X50498049Y9756033D01*
X50582882Y9853937D01*
X50636697Y9971774D01*
X50640755Y10000000D01*
X51244867Y10000000D01*
X51263302Y9871776D01*
X51263303Y9871774D01*
X51317118Y9753937D01*
X51401951Y9656033D01*
X51510931Y9585996D01*
X51510933Y9585996D01*
X51510934Y9585995D01*
X51635225Y9549501D01*
X51635227Y9549500D01*
X51635228Y9549500D01*
X51764773Y9549500D01*
X51764773Y9549501D01*
X51889069Y9585996D01*
X51998049Y9656033D01*
X52082882Y9753937D01*
X52136697Y9871774D01*
X52140755Y9900000D01*
X53444867Y9900000D01*
X53463302Y9771776D01*
X53463303Y9771774D01*
X53517118Y9653937D01*
X53601951Y9556033D01*
X53710931Y9485996D01*
X53710933Y9485996D01*
X53710934Y9485995D01*
X53835225Y9449501D01*
X53835227Y9449500D01*
X53835228Y9449500D01*
X53964773Y9449500D01*
X53964773Y9449501D01*
X54089069Y9485996D01*
X54198049Y9556033D01*
X54282882Y9653937D01*
X54336697Y9771774D01*
X54355133Y9900000D01*
X54336697Y10028226D01*
X54282882Y10146063D01*
X54198049Y10243967D01*
X54198048Y10243968D01*
X54156081Y10270938D01*
X54089069Y10314004D01*
X54089067Y10314005D01*
X54089065Y10314006D01*
X53964774Y10350500D01*
X53964772Y10350500D01*
X53835228Y10350500D01*
X53835226Y10350500D01*
X53710934Y10314006D01*
X53601951Y10243968D01*
X53517118Y10146064D01*
X53517118Y10146063D01*
X53463302Y10028225D01*
X53444867Y9900000D01*
X52140755Y9900000D01*
X52155133Y10000000D01*
X52136697Y10128226D01*
X52082882Y10246063D01*
X51998049Y10343967D01*
X51998048Y10343968D01*
X51956081Y10370938D01*
X51889069Y10414004D01*
X51889067Y10414005D01*
X51889065Y10414006D01*
X51764774Y10450500D01*
X51764772Y10450500D01*
X51635228Y10450500D01*
X51635226Y10450500D01*
X51510934Y10414006D01*
X51401951Y10343968D01*
X51317118Y10246064D01*
X51317118Y10246063D01*
X51263302Y10128225D01*
X51244867Y10000000D01*
X50640755Y10000000D01*
X50655133Y10100000D01*
X50636697Y10228226D01*
X50582882Y10346063D01*
X50498049Y10443967D01*
X50498048Y10443968D01*
X50454777Y10471776D01*
X50389069Y10514004D01*
X50389067Y10514005D01*
X50389065Y10514006D01*
X50264774Y10550500D01*
X50264772Y10550500D01*
X50135228Y10550500D01*
X50135226Y10550500D01*
X50010934Y10514006D01*
X49901951Y10443968D01*
X49817118Y10346064D01*
X49817118Y10346063D01*
X49763302Y10228225D01*
X49744867Y10100000D01*
X500500Y10100000D01*
X500500Y10600000D01*
X45044867Y10600000D01*
X45063302Y10471776D01*
X45063303Y10471774D01*
X45117118Y10353937D01*
X45201951Y10256033D01*
X45310931Y10185996D01*
X45310933Y10185996D01*
X45310934Y10185995D01*
X45435225Y10149501D01*
X45435227Y10149500D01*
X45435228Y10149500D01*
X45564773Y10149500D01*
X45564773Y10149501D01*
X45689069Y10185996D01*
X45798049Y10256033D01*
X45882882Y10353937D01*
X45936697Y10471774D01*
X45955133Y10600000D01*
X45936697Y10728226D01*
X45882882Y10846063D01*
X45798049Y10943967D01*
X45798048Y10943968D01*
X45756081Y10970938D01*
X45689069Y11014004D01*
X45689067Y11014005D01*
X45689065Y11014006D01*
X45564774Y11050500D01*
X45564772Y11050500D01*
X45435228Y11050500D01*
X45435226Y11050500D01*
X45310934Y11014006D01*
X45201951Y10943968D01*
X45117118Y10846064D01*
X45117118Y10846063D01*
X45063302Y10728225D01*
X45044867Y10600000D01*
X500500Y10600000D01*
X500500Y11200000D01*
X61044867Y11200000D01*
X61063302Y11071776D01*
X61063303Y11071774D01*
X61117118Y10953937D01*
X61201951Y10856033D01*
X61310931Y10785996D01*
X61310933Y10785996D01*
X61310934Y10785995D01*
X61435225Y10749501D01*
X61435227Y10749500D01*
X61435228Y10749500D01*
X61564773Y10749500D01*
X61564773Y10749501D01*
X61689069Y10785996D01*
X61798049Y10856033D01*
X61882882Y10953937D01*
X61936697Y11071774D01*
X61938136Y11081782D01*
X61962545Y11122921D01*
X62008894Y11134752D01*
X62050033Y11110343D01*
X62061864Y11081782D01*
X62063302Y11071776D01*
X62063303Y11071774D01*
X62117118Y10953937D01*
X62201951Y10856033D01*
X62310931Y10785996D01*
X62310933Y10785996D01*
X62310934Y10785995D01*
X62435225Y10749501D01*
X62435227Y10749500D01*
X62435228Y10749500D01*
X62564773Y10749500D01*
X62564773Y10749501D01*
X62689069Y10785996D01*
X62798049Y10856033D01*
X62882882Y10953937D01*
X62936697Y11071774D01*
X62955133Y11200000D01*
X62936697Y11328226D01*
X62882882Y11446063D01*
X62798049Y11543967D01*
X62798048Y11543968D01*
X62756081Y11570938D01*
X62689069Y11614004D01*
X62689067Y11614005D01*
X62689065Y11614006D01*
X62564774Y11650500D01*
X62564772Y11650500D01*
X62435228Y11650500D01*
X62435226Y11650500D01*
X62310934Y11614006D01*
X62201951Y11543968D01*
X62117118Y11446064D01*
X62117118Y11446063D01*
X62063302Y11328225D01*
X62061864Y11318218D01*
X62037455Y11277079D01*
X61991105Y11265249D01*
X61949966Y11289658D01*
X61938136Y11318218D01*
X61936697Y11328225D01*
X61936697Y11328226D01*
X61882882Y11446063D01*
X61798049Y11543967D01*
X61798048Y11543968D01*
X61756081Y11570938D01*
X61689069Y11614004D01*
X61689067Y11614005D01*
X61689065Y11614006D01*
X61564774Y11650500D01*
X61564772Y11650500D01*
X61435228Y11650500D01*
X61435226Y11650500D01*
X61310934Y11614006D01*
X61201951Y11543968D01*
X61117118Y11446064D01*
X61117118Y11446063D01*
X61063302Y11328225D01*
X61044867Y11200000D01*
X500500Y11200000D01*
X500500Y12900000D01*
X36144867Y12900000D01*
X36163302Y12771776D01*
X36163303Y12771774D01*
X36217118Y12653937D01*
X36301951Y12556033D01*
X36410931Y12485996D01*
X36410933Y12485996D01*
X36410934Y12485995D01*
X36535225Y12449501D01*
X36535227Y12449500D01*
X36535228Y12449500D01*
X36664773Y12449500D01*
X36664773Y12449501D01*
X36789069Y12485996D01*
X36898049Y12556033D01*
X36982882Y12653937D01*
X37036697Y12771774D01*
X37055133Y12900000D01*
X37036697Y13028226D01*
X36982882Y13146063D01*
X36898049Y13243967D01*
X36898048Y13243968D01*
X36856081Y13270938D01*
X36789069Y13314004D01*
X36789067Y13314005D01*
X36789065Y13314006D01*
X36664774Y13350500D01*
X36664772Y13350500D01*
X36535228Y13350500D01*
X36535226Y13350500D01*
X36410934Y13314006D01*
X36301951Y13243968D01*
X36217118Y13146064D01*
X36217118Y13146063D01*
X36163302Y13028225D01*
X36144867Y12900000D01*
X500500Y12900000D01*
X500500Y14400000D01*
X48044867Y14400000D01*
X48063302Y14271776D01*
X48063303Y14271774D01*
X48117118Y14153937D01*
X48201951Y14056033D01*
X48310931Y13985996D01*
X48310933Y13985996D01*
X48310934Y13985995D01*
X48435225Y13949501D01*
X48435227Y13949500D01*
X48435228Y13949500D01*
X48564773Y13949500D01*
X48564773Y13949501D01*
X48689069Y13985996D01*
X48798049Y14056033D01*
X48882882Y14153937D01*
X48936697Y14271774D01*
X48955133Y14400000D01*
X48940755Y14500000D01*
X52744867Y14500000D01*
X52763302Y14371776D01*
X52763303Y14371774D01*
X52817118Y14253937D01*
X52901951Y14156033D01*
X53010931Y14085996D01*
X53010933Y14085996D01*
X53010934Y14085995D01*
X53135225Y14049501D01*
X53135227Y14049500D01*
X53135228Y14049500D01*
X53264773Y14049500D01*
X53264773Y14049501D01*
X53389069Y14085996D01*
X53498049Y14156033D01*
X53582882Y14253937D01*
X53636697Y14371774D01*
X53655133Y14500000D01*
X53636697Y14628226D01*
X53582882Y14746063D01*
X53498049Y14843967D01*
X53498048Y14843968D01*
X53454777Y14871776D01*
X53389069Y14914004D01*
X53389067Y14914005D01*
X53389065Y14914006D01*
X53264774Y14950500D01*
X53264772Y14950500D01*
X53135228Y14950500D01*
X53135226Y14950500D01*
X53010934Y14914006D01*
X52901951Y14843968D01*
X52817118Y14746064D01*
X52817118Y14746063D01*
X52763302Y14628225D01*
X52744867Y14500000D01*
X48940755Y14500000D01*
X48936697Y14528226D01*
X48882882Y14646063D01*
X48798049Y14743967D01*
X48798048Y14743968D01*
X48756081Y14770938D01*
X48689069Y14814004D01*
X48689067Y14814005D01*
X48689065Y14814006D01*
X48564774Y14850500D01*
X48564772Y14850500D01*
X48435228Y14850500D01*
X48435226Y14850500D01*
X48310934Y14814006D01*
X48201951Y14743968D01*
X48117118Y14646064D01*
X48117118Y14646063D01*
X48063302Y14528225D01*
X48044867Y14400000D01*
X500500Y14400000D01*
X500500Y15700000D01*
X19444867Y15700000D01*
X19463302Y15571776D01*
X19517118Y15453938D01*
X19517118Y15453937D01*
X19571714Y15390928D01*
X19586820Y15345540D01*
X19571714Y15309072D01*
X19517118Y15246064D01*
X19517118Y15246063D01*
X19463302Y15128225D01*
X19444867Y15000000D01*
X19463302Y14871776D01*
X19463303Y14871774D01*
X19517118Y14753937D01*
X19601951Y14656033D01*
X19710931Y14585996D01*
X19710933Y14585996D01*
X19710934Y14585995D01*
X19835225Y14549501D01*
X19835227Y14549500D01*
X19835228Y14549500D01*
X19964773Y14549500D01*
X19964773Y14549501D01*
X20089069Y14585996D01*
X20198049Y14656033D01*
X20202763Y14661475D01*
X20245535Y14682888D01*
X20290924Y14667786D01*
X20297231Y14661479D01*
X20301950Y14656033D01*
X20410930Y14585996D01*
X20410932Y14585996D01*
X20410933Y14585995D01*
X20535224Y14549501D01*
X20535226Y14549500D01*
X20535227Y14549500D01*
X20664772Y14549500D01*
X20664772Y14549501D01*
X20789068Y14585996D01*
X20898048Y14656033D01*
X20902764Y14661477D01*
X20945539Y14682889D01*
X20990927Y14667783D01*
X20997231Y14661479D01*
X21001950Y14656033D01*
X21110930Y14585996D01*
X21110932Y14585996D01*
X21110933Y14585995D01*
X21235224Y14549501D01*
X21235226Y14549500D01*
X21235227Y14549500D01*
X21364772Y14549500D01*
X21364772Y14549501D01*
X21489068Y14585996D01*
X21598048Y14656033D01*
X21682881Y14753937D01*
X21736696Y14871774D01*
X21755132Y15000000D01*
X21736696Y15128226D01*
X21682881Y15246063D01*
X21628283Y15309074D01*
X21613178Y15354459D01*
X21628285Y15390928D01*
X21682882Y15453937D01*
X21736697Y15571774D01*
X21755133Y15700000D01*
X21736697Y15828226D01*
X21682882Y15946063D01*
X21598049Y16043967D01*
X21598048Y16043968D01*
X21556081Y16070938D01*
X21489069Y16114004D01*
X21489067Y16114005D01*
X21489065Y16114006D01*
X21364774Y16150500D01*
X21364772Y16150500D01*
X21235228Y16150500D01*
X21235226Y16150500D01*
X21110934Y16114006D01*
X21001952Y16043968D01*
X20997233Y16038522D01*
X20954456Y16017112D01*
X20909069Y16032220D01*
X20902767Y16038522D01*
X20898049Y16043967D01*
X20789069Y16114004D01*
X20789067Y16114005D01*
X20789065Y16114006D01*
X20664774Y16150500D01*
X20664772Y16150500D01*
X20535228Y16150500D01*
X20535226Y16150500D01*
X20410934Y16114006D01*
X20301952Y16043968D01*
X20297233Y16038522D01*
X20254456Y16017112D01*
X20209069Y16032220D01*
X20202767Y16038522D01*
X20198049Y16043967D01*
X20089069Y16114004D01*
X20089067Y16114005D01*
X20089065Y16114006D01*
X19964774Y16150500D01*
X19964772Y16150500D01*
X19835228Y16150500D01*
X19835226Y16150500D01*
X19710934Y16114006D01*
X19601951Y16043968D01*
X19517118Y15946064D01*
X19517118Y15946063D01*
X19463302Y15828225D01*
X19444867Y15700000D01*
X500500Y15700000D01*
X500500Y17480132D01*
X5399500Y17480132D01*
X5399500Y17019870D01*
X5414265Y16869949D01*
X5472619Y16677581D01*
X5567375Y16500303D01*
X5567379Y16500297D01*
X5694906Y16344906D01*
X5850297Y16217379D01*
X5850299Y16217378D01*
X5850302Y16217376D01*
X5975420Y16150500D01*
X6027582Y16122619D01*
X6219947Y16064266D01*
X6369865Y16049500D01*
X8630134Y16049501D01*
X8780053Y16064266D01*
X8972418Y16122619D01*
X9149703Y16217379D01*
X9305094Y16344906D01*
X9432621Y16500297D01*
X9527381Y16677582D01*
X9585734Y16869947D01*
X9600500Y17019865D01*
X9600499Y17480134D01*
X9585734Y17630053D01*
X9527381Y17822418D01*
X9432621Y17999703D01*
X9305094Y18155094D01*
X9149703Y18282621D01*
X9149697Y18282625D01*
X8972419Y18377381D01*
X8780051Y18435735D01*
X8687121Y18444888D01*
X8630135Y18450500D01*
X8630130Y18450500D01*
X6369869Y18450500D01*
X6219948Y18435735D01*
X6027580Y18377381D01*
X5850302Y18282625D01*
X5850296Y18282621D01*
X5694906Y18155094D01*
X5567379Y17999704D01*
X5567375Y17999698D01*
X5472619Y17822420D01*
X5414265Y17630052D01*
X5399500Y17480132D01*
X500500Y17480132D01*
X500500Y19000000D01*
X49010553Y19000000D01*
X49028988Y18871776D01*
X49028989Y18871774D01*
X49082804Y18753937D01*
X49167637Y18656033D01*
X49276617Y18585996D01*
X49276619Y18585996D01*
X49276620Y18585995D01*
X49400911Y18549501D01*
X49400913Y18549500D01*
X49400914Y18549500D01*
X49530459Y18549500D01*
X49530459Y18549501D01*
X49654755Y18585996D01*
X49763735Y18656033D01*
X49848568Y18753937D01*
X49902383Y18871774D01*
X49920819Y19000000D01*
X49902383Y19128226D01*
X49848568Y19246063D01*
X49763735Y19343967D01*
X49763734Y19343968D01*
X49721767Y19370938D01*
X49654755Y19414004D01*
X49654753Y19414005D01*
X49654751Y19414006D01*
X49530460Y19450500D01*
X49530458Y19450500D01*
X49400914Y19450500D01*
X49400912Y19450500D01*
X49276620Y19414006D01*
X49167637Y19343968D01*
X49082804Y19246064D01*
X49082804Y19246063D01*
X49028988Y19128225D01*
X49010553Y19000000D01*
X500500Y19000000D01*
X500500Y20980132D01*
X5399500Y20980132D01*
X5399500Y20519870D01*
X5414265Y20369949D01*
X5472619Y20177581D01*
X5567375Y20000303D01*
X5567379Y20000297D01*
X5694906Y19844906D01*
X5850297Y19717379D01*
X5850299Y19717378D01*
X5850302Y19717376D01*
X6027580Y19622620D01*
X6027582Y19622619D01*
X6219947Y19564266D01*
X6369865Y19549500D01*
X8630134Y19549501D01*
X8780053Y19564266D01*
X8972418Y19622619D01*
X9149703Y19717379D01*
X9305094Y19844906D01*
X9432621Y20000297D01*
X9527381Y20177582D01*
X9585734Y20369947D01*
X9600500Y20519865D01*
X9600499Y20980134D01*
X9585734Y21130053D01*
X9527381Y21322418D01*
X9500999Y21371776D01*
X9432624Y21499698D01*
X9432620Y21499704D01*
X9432377Y21500000D01*
X14344867Y21500000D01*
X14363302Y21371776D01*
X14363303Y21371774D01*
X14417118Y21253937D01*
X14501951Y21156033D01*
X14610931Y21085996D01*
X14610933Y21085996D01*
X14610934Y21085995D01*
X14735225Y21049501D01*
X14735227Y21049500D01*
X14735228Y21049500D01*
X14864773Y21049500D01*
X14864773Y21049501D01*
X14989069Y21085996D01*
X15098049Y21156033D01*
X15182882Y21253937D01*
X15236697Y21371774D01*
X15255133Y21500000D01*
X15240755Y21600000D01*
X49244867Y21600000D01*
X49263302Y21471776D01*
X49263303Y21471774D01*
X49317118Y21353937D01*
X49401951Y21256033D01*
X49510931Y21185996D01*
X49510933Y21185996D01*
X49510934Y21185995D01*
X49635225Y21149501D01*
X49635227Y21149500D01*
X49635228Y21149500D01*
X49764773Y21149500D01*
X49764773Y21149501D01*
X49889069Y21185996D01*
X49998049Y21256033D01*
X50082882Y21353937D01*
X50136697Y21471774D01*
X50155133Y21600000D01*
X50136697Y21728226D01*
X50082882Y21846063D01*
X49998049Y21943967D01*
X49998048Y21943968D01*
X49954777Y21971776D01*
X49910860Y22000000D01*
X59644867Y22000000D01*
X59663302Y21871776D01*
X59663303Y21871774D01*
X59717118Y21753937D01*
X59801951Y21656033D01*
X59910931Y21585996D01*
X59910933Y21585996D01*
X59910934Y21585995D01*
X60035225Y21549501D01*
X60035227Y21549500D01*
X60035228Y21549500D01*
X60164773Y21549500D01*
X60164773Y21549501D01*
X60289069Y21585996D01*
X60398049Y21656033D01*
X60482882Y21753937D01*
X60536697Y21871774D01*
X60555133Y22000000D01*
X60536697Y22128226D01*
X60482882Y22246063D01*
X60436146Y22300000D01*
X60744867Y22300000D01*
X60763302Y22171776D01*
X60763303Y22171774D01*
X60817118Y22053937D01*
X60901951Y21956033D01*
X61010931Y21885996D01*
X61010933Y21885996D01*
X61010934Y21885995D01*
X61135225Y21849501D01*
X61135227Y21849500D01*
X61135228Y21849500D01*
X61264773Y21849500D01*
X61264773Y21849501D01*
X61389069Y21885996D01*
X61498049Y21956033D01*
X61582882Y22053937D01*
X61603919Y22100000D01*
X62744867Y22100000D01*
X62763302Y21971776D01*
X62763303Y21971774D01*
X62817118Y21853937D01*
X62901951Y21756033D01*
X63010931Y21685996D01*
X63010933Y21685996D01*
X63010934Y21685995D01*
X63135225Y21649501D01*
X63135227Y21649500D01*
X63135228Y21649500D01*
X63264773Y21649500D01*
X63264773Y21649501D01*
X63389069Y21685996D01*
X63498049Y21756033D01*
X63582882Y21853937D01*
X63636697Y21971774D01*
X63655133Y22100000D01*
X63636697Y22228226D01*
X63582882Y22346063D01*
X63498049Y22443967D01*
X63498048Y22443968D01*
X63456081Y22470938D01*
X63389069Y22514004D01*
X63389067Y22514005D01*
X63389065Y22514006D01*
X63264774Y22550500D01*
X63264772Y22550500D01*
X63135228Y22550500D01*
X63135226Y22550500D01*
X63010934Y22514006D01*
X62901951Y22443968D01*
X62817118Y22346064D01*
X62817118Y22346063D01*
X62763302Y22228225D01*
X62744867Y22100000D01*
X61603919Y22100000D01*
X61636697Y22171774D01*
X61655133Y22300000D01*
X61636697Y22428226D01*
X61582882Y22546063D01*
X61498049Y22643967D01*
X61498048Y22643968D01*
X61454777Y22671776D01*
X61389069Y22714004D01*
X61389067Y22714005D01*
X61389065Y22714006D01*
X61264774Y22750500D01*
X61264772Y22750500D01*
X61135228Y22750500D01*
X61135226Y22750500D01*
X61010934Y22714006D01*
X60901951Y22643968D01*
X60817118Y22546064D01*
X60817118Y22546063D01*
X60763302Y22428225D01*
X60744867Y22300000D01*
X60436146Y22300000D01*
X60398049Y22343967D01*
X60398048Y22343968D01*
X60332650Y22385996D01*
X60289069Y22414004D01*
X60289067Y22414005D01*
X60289065Y22414006D01*
X60164774Y22450500D01*
X60164772Y22450500D01*
X60035228Y22450500D01*
X60035226Y22450500D01*
X59910934Y22414006D01*
X59801951Y22343968D01*
X59717118Y22246064D01*
X59717118Y22246063D01*
X59663302Y22128225D01*
X59644867Y22000000D01*
X49910860Y22000000D01*
X49889069Y22014004D01*
X49889067Y22014005D01*
X49889065Y22014006D01*
X49764774Y22050500D01*
X49764772Y22050500D01*
X49635228Y22050500D01*
X49635226Y22050500D01*
X49510934Y22014006D01*
X49401951Y21943968D01*
X49317118Y21846064D01*
X49317118Y21846063D01*
X49263302Y21728225D01*
X49244867Y21600000D01*
X15240755Y21600000D01*
X15236697Y21628226D01*
X15182882Y21746063D01*
X15098049Y21843967D01*
X15098048Y21843968D01*
X15032650Y21885996D01*
X14989069Y21914004D01*
X14989067Y21914005D01*
X14989065Y21914006D01*
X14864774Y21950500D01*
X14864772Y21950500D01*
X14735228Y21950500D01*
X14735226Y21950500D01*
X14610934Y21914006D01*
X14501951Y21843968D01*
X14417118Y21746064D01*
X14417118Y21746063D01*
X14363302Y21628225D01*
X14344867Y21500000D01*
X9432377Y21500000D01*
X9391753Y21549500D01*
X9305094Y21655094D01*
X9149703Y21782621D01*
X9149697Y21782625D01*
X8972419Y21877381D01*
X8780051Y21935735D01*
X8687121Y21944888D01*
X8630135Y21950500D01*
X8630130Y21950500D01*
X6369869Y21950500D01*
X6219948Y21935735D01*
X6027580Y21877381D01*
X5850302Y21782625D01*
X5850296Y21782621D01*
X5694906Y21655094D01*
X5567379Y21499704D01*
X5567375Y21499698D01*
X5472619Y21322420D01*
X5414265Y21130052D01*
X5399500Y20980132D01*
X500500Y20980132D01*
X500500Y22800000D01*
X39644867Y22800000D01*
X39663302Y22671776D01*
X39663303Y22671774D01*
X39717118Y22553937D01*
X39801951Y22456033D01*
X39910931Y22385996D01*
X39910933Y22385996D01*
X39910934Y22385995D01*
X40035225Y22349501D01*
X40035227Y22349500D01*
X40035228Y22349500D01*
X40164773Y22349500D01*
X40164773Y22349501D01*
X40289069Y22385996D01*
X40398049Y22456033D01*
X40482882Y22553937D01*
X40536697Y22671774D01*
X40555133Y22800000D01*
X40536697Y22928226D01*
X40482882Y23046063D01*
X40398049Y23143967D01*
X40398048Y23143968D01*
X40356081Y23170938D01*
X40289069Y23214004D01*
X40289067Y23214005D01*
X40289065Y23214006D01*
X40164774Y23250500D01*
X40164772Y23250500D01*
X40035228Y23250500D01*
X40035226Y23250500D01*
X39910934Y23214006D01*
X39801951Y23143968D01*
X39717118Y23046064D01*
X39717118Y23046063D01*
X39663302Y22928225D01*
X39644867Y22800000D01*
X500500Y22800000D01*
X500500Y23750002D01*
X15719534Y23750002D01*
X15719534Y23749999D01*
X15739311Y23599771D01*
X15739312Y23599765D01*
X15739313Y23599764D01*
X15797302Y23459767D01*
X15889549Y23339549D01*
X16009767Y23247302D01*
X16149764Y23189313D01*
X16149768Y23189313D01*
X16149770Y23189312D01*
X16299998Y23169534D01*
X16300000Y23169534D01*
X16300002Y23169534D01*
X16450229Y23189312D01*
X16450229Y23189313D01*
X16450236Y23189313D01*
X16590233Y23247302D01*
X16661953Y23302336D01*
X16708157Y23314716D01*
X16738046Y23302336D01*
X16809767Y23247302D01*
X16949764Y23189313D01*
X16949768Y23189313D01*
X16949770Y23189312D01*
X17099998Y23169534D01*
X17100000Y23169534D01*
X17100002Y23169534D01*
X17250229Y23189312D01*
X17250229Y23189313D01*
X17250236Y23189313D01*
X17390233Y23247302D01*
X17510451Y23339549D01*
X17602698Y23459767D01*
X17660687Y23599764D01*
X17680466Y23750000D01*
X17660687Y23900236D01*
X17602698Y24040233D01*
X17510451Y24160451D01*
X17390233Y24252698D01*
X17390229Y24252700D01*
X17250239Y24310686D01*
X17250229Y24310689D01*
X17100002Y24330466D01*
X17099998Y24330466D01*
X16949770Y24310689D01*
X16949760Y24310686D01*
X16809769Y24252700D01*
X16809766Y24252698D01*
X16738047Y24197666D01*
X16691842Y24185286D01*
X16661953Y24197666D01*
X16590233Y24252698D01*
X16590230Y24252700D01*
X16450239Y24310686D01*
X16450229Y24310689D01*
X16300002Y24330466D01*
X16299998Y24330466D01*
X16149770Y24310689D01*
X16149760Y24310686D01*
X16009770Y24252700D01*
X16009767Y24252699D01*
X16009767Y24252698D01*
X15900001Y24168471D01*
X15889549Y24160451D01*
X15797300Y24040230D01*
X15739314Y23900240D01*
X15739311Y23900230D01*
X15719534Y23750002D01*
X500500Y23750002D01*
X500500Y25650000D01*
X27394867Y25650000D01*
X27413302Y25521776D01*
X27413303Y25521774D01*
X27467118Y25403937D01*
X27551951Y25306033D01*
X27660931Y25235996D01*
X27660933Y25235996D01*
X27660934Y25235995D01*
X27785225Y25199501D01*
X27785227Y25199500D01*
X27785228Y25199500D01*
X27914773Y25199500D01*
X27914773Y25199501D01*
X28039069Y25235996D01*
X28148049Y25306033D01*
X28229471Y25400000D01*
X31644867Y25400000D01*
X31663302Y25271776D01*
X31663303Y25271774D01*
X31717118Y25153937D01*
X31801951Y25056033D01*
X31910931Y24985996D01*
X31910933Y24985996D01*
X31910934Y24985995D01*
X32035225Y24949501D01*
X32035227Y24949500D01*
X32035228Y24949500D01*
X32164773Y24949500D01*
X32164773Y24949501D01*
X32289069Y24985996D01*
X32398049Y25056033D01*
X32482882Y25153937D01*
X32536697Y25271774D01*
X32555133Y25400000D01*
X46444867Y25400000D01*
X46463302Y25271776D01*
X46463303Y25271774D01*
X46517118Y25153937D01*
X46601951Y25056033D01*
X46710931Y24985996D01*
X46710933Y24985996D01*
X46710934Y24985995D01*
X46835225Y24949501D01*
X46835227Y24949500D01*
X46835228Y24949500D01*
X46964773Y24949500D01*
X46964773Y24949501D01*
X47089069Y24985996D01*
X47198049Y25056033D01*
X47282882Y25153937D01*
X47336697Y25271774D01*
X47355133Y25400000D01*
X47336697Y25528226D01*
X47282882Y25646063D01*
X47198049Y25743967D01*
X47198048Y25743968D01*
X47144741Y25778226D01*
X47089069Y25814004D01*
X47089067Y25814005D01*
X47089065Y25814006D01*
X46964774Y25850500D01*
X46964772Y25850500D01*
X46835228Y25850500D01*
X46835226Y25850500D01*
X46710934Y25814006D01*
X46601951Y25743968D01*
X46517118Y25646064D01*
X46517118Y25646063D01*
X46463302Y25528225D01*
X46444867Y25400000D01*
X32555133Y25400000D01*
X32536697Y25528226D01*
X32482882Y25646063D01*
X32398049Y25743967D01*
X32398048Y25743968D01*
X32344741Y25778226D01*
X32289069Y25814004D01*
X32289067Y25814005D01*
X32289065Y25814006D01*
X32164774Y25850500D01*
X32164772Y25850500D01*
X32035228Y25850500D01*
X32035226Y25850500D01*
X31910934Y25814006D01*
X31801951Y25743968D01*
X31717118Y25646064D01*
X31717118Y25646063D01*
X31663302Y25528225D01*
X31644867Y25400000D01*
X28229471Y25400000D01*
X28232882Y25403937D01*
X28286697Y25521774D01*
X28305133Y25650000D01*
X28286697Y25778226D01*
X28232882Y25896063D01*
X28148049Y25993967D01*
X28148048Y25993968D01*
X28106081Y26020938D01*
X28039069Y26064004D01*
X28039067Y26064005D01*
X28039065Y26064006D01*
X27994700Y26077032D01*
X27957453Y26107047D01*
X27952340Y26154608D01*
X27982355Y26191855D01*
X28012308Y26199500D01*
X28114773Y26199500D01*
X28114773Y26199501D01*
X28239069Y26235996D01*
X28338661Y26300000D01*
X43344867Y26300000D01*
X43363302Y26171776D01*
X43363303Y26171774D01*
X43417118Y26053937D01*
X43501951Y25956033D01*
X43610931Y25885996D01*
X43731822Y25850500D01*
X43735225Y25849501D01*
X43735227Y25849500D01*
X43735228Y25849500D01*
X43864773Y25849500D01*
X43864773Y25849501D01*
X43989069Y25885996D01*
X44098049Y25956033D01*
X44182882Y26053937D01*
X44236697Y26171774D01*
X44255133Y26300000D01*
X44240755Y26400000D01*
X44744867Y26400000D01*
X44763302Y26271776D01*
X44763303Y26271774D01*
X44817118Y26153937D01*
X44901951Y26056033D01*
X45010931Y25985996D01*
X45010933Y25985996D01*
X45010934Y25985995D01*
X45135225Y25949501D01*
X45135227Y25949500D01*
X45135228Y25949500D01*
X45264773Y25949500D01*
X45264773Y25949501D01*
X45389069Y25985996D01*
X45498049Y26056033D01*
X45582882Y26153937D01*
X45636697Y26271774D01*
X45655133Y26400000D01*
X45636697Y26528226D01*
X45582882Y26646063D01*
X45498049Y26743967D01*
X45498048Y26743968D01*
X45498046Y26743970D01*
X45458669Y26769276D01*
X45431387Y26808569D01*
X45439881Y26855644D01*
X45474852Y26881822D01*
X45489069Y26885996D01*
X45598049Y26956033D01*
X45682882Y27053937D01*
X45736697Y27171774D01*
X45755133Y27300000D01*
X45736697Y27428226D01*
X45682882Y27546063D01*
X45598049Y27643967D01*
X45598048Y27643968D01*
X45556081Y27670938D01*
X45510860Y27700000D01*
X51044867Y27700000D01*
X51063302Y27571776D01*
X51063303Y27571774D01*
X51117118Y27453937D01*
X51201951Y27356033D01*
X51310931Y27285996D01*
X51310933Y27285996D01*
X51310934Y27285995D01*
X51435225Y27249501D01*
X51435227Y27249500D01*
X51435228Y27249500D01*
X51564773Y27249500D01*
X51564773Y27249501D01*
X51689069Y27285996D01*
X51798049Y27356033D01*
X51882882Y27453937D01*
X51936697Y27571774D01*
X51955133Y27700000D01*
X51936697Y27828226D01*
X51882882Y27946063D01*
X51836142Y28000005D01*
X53944709Y28000005D01*
X53944709Y27999996D01*
X53963850Y27720147D01*
X53963851Y27720144D01*
X53963851Y27720140D01*
X53963852Y27720138D01*
X54020806Y27446064D01*
X54020925Y27445490D01*
X54020928Y27445481D01*
X54114862Y27181173D01*
X54243918Y26932105D01*
X54405687Y26702931D01*
X54405694Y26702923D01*
X54597148Y26497925D01*
X54597155Y26497919D01*
X54814754Y26320889D01*
X54814756Y26320888D01*
X55054424Y26175142D01*
X55054428Y26175140D01*
X55054432Y26175138D01*
X55311725Y26063380D01*
X55361263Y26049500D01*
X55559457Y25993968D01*
X55581839Y25987697D01*
X55859742Y25949500D01*
X55859743Y25949500D01*
X56140257Y25949500D01*
X56140258Y25949500D01*
X56418161Y25987697D01*
X56688275Y26063380D01*
X56945568Y26175138D01*
X57185246Y26320889D01*
X57402845Y26497919D01*
X57405066Y26500297D01*
X57594305Y26702923D01*
X57594312Y26702931D01*
X57602130Y26714006D01*
X57756081Y26932104D01*
X57885136Y27181170D01*
X57979075Y27445489D01*
X58036148Y27720138D01*
X58037922Y27746063D01*
X58055291Y27999996D01*
X58055291Y28000005D01*
X58036149Y28279854D01*
X58036148Y28279857D01*
X58036148Y28279862D01*
X57979075Y28554511D01*
X57885136Y28818830D01*
X57756081Y29067896D01*
X57733420Y29100000D01*
X62244867Y29100000D01*
X62263302Y28971776D01*
X62263303Y28971774D01*
X62317118Y28853937D01*
X62401951Y28756033D01*
X62510931Y28685996D01*
X62510933Y28685996D01*
X62510934Y28685995D01*
X62635225Y28649501D01*
X62635227Y28649500D01*
X62635228Y28649500D01*
X62764773Y28649500D01*
X62764773Y28649501D01*
X62889069Y28685996D01*
X62998049Y28756033D01*
X63082882Y28853937D01*
X63136697Y28971774D01*
X63155133Y29100000D01*
X63153604Y29110632D01*
X63165434Y29156980D01*
X63206572Y29181390D01*
X63233075Y29179495D01*
X63309753Y29156980D01*
X63335225Y29149501D01*
X63335227Y29149500D01*
X63335228Y29149500D01*
X63464773Y29149500D01*
X63464773Y29149501D01*
X63589069Y29185996D01*
X63698049Y29256033D01*
X63782882Y29353937D01*
X63836697Y29471774D01*
X63855133Y29600000D01*
X63836697Y29728226D01*
X63782882Y29846063D01*
X63698049Y29943967D01*
X63698048Y29943968D01*
X63632650Y29985996D01*
X63589069Y30014004D01*
X63589067Y30014005D01*
X63589065Y30014006D01*
X63464774Y30050500D01*
X63464772Y30050500D01*
X63335228Y30050500D01*
X63335226Y30050500D01*
X63210934Y30014006D01*
X63101951Y29943968D01*
X63017118Y29846064D01*
X63017118Y29846063D01*
X62963302Y29728225D01*
X62944867Y29600000D01*
X62944867Y29599998D01*
X62946395Y29589367D01*
X62934563Y29543018D01*
X62893423Y29518611D01*
X62866923Y29520507D01*
X62764774Y29550500D01*
X62764772Y29550500D01*
X62635228Y29550500D01*
X62635226Y29550500D01*
X62510934Y29514006D01*
X62401951Y29443968D01*
X62317118Y29346064D01*
X62317118Y29346063D01*
X62263302Y29228225D01*
X62244867Y29100000D01*
X57733420Y29100000D01*
X57698478Y29149501D01*
X57594312Y29297070D01*
X57594305Y29297078D01*
X57402851Y29502076D01*
X57402843Y29502083D01*
X57216189Y29653937D01*
X57185246Y29679111D01*
X57122322Y29717376D01*
X56945575Y29824859D01*
X56896756Y29846064D01*
X56688275Y29936620D01*
X56688273Y29936621D01*
X56688272Y29936621D01*
X56688270Y29936622D01*
X56418164Y30012303D01*
X56140261Y30050500D01*
X56140258Y30050500D01*
X55859742Y30050500D01*
X55859738Y30050500D01*
X55581835Y30012303D01*
X55311729Y29936622D01*
X55311727Y29936621D01*
X55054424Y29824859D01*
X54814756Y29679113D01*
X54597156Y29502083D01*
X54597148Y29502076D01*
X54405694Y29297078D01*
X54405687Y29297070D01*
X54243918Y29067896D01*
X54114862Y28818828D01*
X54020928Y28554520D01*
X54020925Y28554511D01*
X53963851Y28279857D01*
X53963850Y28279854D01*
X53944709Y28000005D01*
X51836142Y28000005D01*
X51798049Y28043967D01*
X51798048Y28043968D01*
X51756081Y28070938D01*
X51689069Y28114004D01*
X51689067Y28114005D01*
X51689065Y28114006D01*
X51564774Y28150500D01*
X51564772Y28150500D01*
X51435228Y28150500D01*
X51435226Y28150500D01*
X51310934Y28114006D01*
X51201951Y28043968D01*
X51117118Y27946064D01*
X51117118Y27946063D01*
X51063302Y27828225D01*
X51044867Y27700000D01*
X45510860Y27700000D01*
X45489069Y27714004D01*
X45489067Y27714005D01*
X45489065Y27714006D01*
X45364774Y27750500D01*
X45364772Y27750500D01*
X45235228Y27750500D01*
X45235226Y27750500D01*
X45110934Y27714006D01*
X45001951Y27643968D01*
X44917118Y27546064D01*
X44917118Y27546063D01*
X44863302Y27428225D01*
X44844867Y27300000D01*
X44863302Y27171776D01*
X44863303Y27171774D01*
X44917118Y27053937D01*
X45001951Y26956033D01*
X45039185Y26932104D01*
X45041330Y26930726D01*
X45068612Y26891433D01*
X45060119Y26844357D01*
X45025149Y26818179D01*
X45010934Y26814006D01*
X44901951Y26743968D01*
X44817118Y26646064D01*
X44817118Y26646063D01*
X44763302Y26528225D01*
X44744867Y26400000D01*
X44240755Y26400000D01*
X44236697Y26428226D01*
X44182882Y26546063D01*
X44098049Y26643967D01*
X44098048Y26643968D01*
X44006311Y26702923D01*
X43989069Y26714004D01*
X43989067Y26714005D01*
X43989065Y26714006D01*
X43864774Y26750500D01*
X43864772Y26750500D01*
X43735228Y26750500D01*
X43735226Y26750500D01*
X43610934Y26714006D01*
X43501951Y26643968D01*
X43417118Y26546064D01*
X43417118Y26546063D01*
X43363302Y26428225D01*
X43344867Y26300000D01*
X28338661Y26300000D01*
X28348049Y26306033D01*
X28432882Y26403937D01*
X28486697Y26521774D01*
X28505133Y26650000D01*
X28486697Y26778226D01*
X28432882Y26896063D01*
X28348049Y26993967D01*
X28348048Y26993968D01*
X28306081Y27020938D01*
X28239069Y27064004D01*
X28239067Y27064005D01*
X28239065Y27064006D01*
X28114774Y27100500D01*
X28114772Y27100500D01*
X27985228Y27100500D01*
X27985226Y27100500D01*
X27860934Y27064006D01*
X27751951Y26993968D01*
X27667118Y26896064D01*
X27667118Y26896063D01*
X27613302Y26778225D01*
X27594867Y26650000D01*
X27613302Y26521776D01*
X27613303Y26521774D01*
X27667118Y26403937D01*
X27751951Y26306033D01*
X27860931Y26235996D01*
X27860933Y26235996D01*
X27860934Y26235995D01*
X27905300Y26222968D01*
X27942547Y26192953D01*
X27947660Y26145392D01*
X27917645Y26108145D01*
X27887692Y26100500D01*
X27785226Y26100500D01*
X27660934Y26064006D01*
X27551951Y25993968D01*
X27467118Y25896064D01*
X27467118Y25896063D01*
X27413302Y25778225D01*
X27394867Y25650000D01*
X500500Y25650000D01*
X500500Y27480132D01*
X5399500Y27480132D01*
X5399500Y27019870D01*
X5414265Y26869949D01*
X5472619Y26677581D01*
X5567375Y26500303D01*
X5567379Y26500297D01*
X5694906Y26344906D01*
X5850297Y26217379D01*
X5850299Y26217378D01*
X5850302Y26217376D01*
X5984976Y26145392D01*
X6027582Y26122619D01*
X6219947Y26064266D01*
X6369865Y26049500D01*
X8630134Y26049501D01*
X8780053Y26064266D01*
X8972418Y26122619D01*
X9149703Y26217379D01*
X9305094Y26344906D01*
X9432621Y26500297D01*
X9527381Y26677582D01*
X9585734Y26869947D01*
X9600500Y27019865D01*
X9600500Y27200000D01*
X29144867Y27200000D01*
X29163302Y27071776D01*
X29163303Y27071774D01*
X29217118Y26953937D01*
X29301951Y26856033D01*
X29410931Y26785996D01*
X29531822Y26750500D01*
X29535225Y26749501D01*
X29535227Y26749500D01*
X29535228Y26749500D01*
X29664773Y26749500D01*
X29664773Y26749501D01*
X29789069Y26785996D01*
X29898049Y26856033D01*
X29982882Y26953937D01*
X30036697Y27071774D01*
X30055133Y27200000D01*
X30036697Y27328226D01*
X29982882Y27446063D01*
X29936146Y27500000D01*
X40344867Y27500000D01*
X40363302Y27371776D01*
X40363303Y27371774D01*
X40417118Y27253937D01*
X40501951Y27156033D01*
X40610931Y27085996D01*
X40610933Y27085996D01*
X40610934Y27085995D01*
X40735225Y27049501D01*
X40735227Y27049500D01*
X40735228Y27049500D01*
X40864773Y27049500D01*
X40864773Y27049501D01*
X40989069Y27085996D01*
X41098049Y27156033D01*
X41182882Y27253937D01*
X41236697Y27371774D01*
X41255133Y27500000D01*
X41236697Y27628226D01*
X41182882Y27746063D01*
X41098049Y27843967D01*
X41098048Y27843968D01*
X41056081Y27870938D01*
X40989069Y27914004D01*
X40989067Y27914005D01*
X40989065Y27914006D01*
X40864774Y27950500D01*
X40864772Y27950500D01*
X40735228Y27950500D01*
X40735226Y27950500D01*
X40610934Y27914006D01*
X40501951Y27843968D01*
X40417118Y27746064D01*
X40417118Y27746063D01*
X40363302Y27628225D01*
X40344867Y27500000D01*
X29936146Y27500000D01*
X29898049Y27543967D01*
X29898048Y27543968D01*
X29854777Y27571776D01*
X29789069Y27614004D01*
X29789067Y27614005D01*
X29789065Y27614006D01*
X29664774Y27650500D01*
X29664772Y27650500D01*
X29535228Y27650500D01*
X29535226Y27650500D01*
X29410934Y27614006D01*
X29301951Y27543968D01*
X29217118Y27446064D01*
X29217118Y27446063D01*
X29163302Y27328225D01*
X29144867Y27200000D01*
X9600500Y27200000D01*
X9600499Y27480134D01*
X9585734Y27630053D01*
X9527381Y27822418D01*
X9461292Y27946063D01*
X9432624Y27999698D01*
X9432620Y27999704D01*
X9305094Y28155094D01*
X9149703Y28282621D01*
X9149697Y28282625D01*
X8972419Y28377381D01*
X8780051Y28435735D01*
X8687121Y28444888D01*
X8630135Y28450500D01*
X8630130Y28450500D01*
X6369869Y28450500D01*
X6219948Y28435735D01*
X6027580Y28377381D01*
X5850302Y28282625D01*
X5850296Y28282621D01*
X5694906Y28155094D01*
X5567379Y27999704D01*
X5567375Y27999698D01*
X5472619Y27822420D01*
X5414265Y27630052D01*
X5399500Y27480132D01*
X500500Y27480132D01*
X500500Y28800000D01*
X28244867Y28800000D01*
X28263302Y28671776D01*
X28263303Y28671774D01*
X28317118Y28553937D01*
X28401951Y28456033D01*
X28510931Y28385996D01*
X28510933Y28385996D01*
X28510934Y28385995D01*
X28635225Y28349501D01*
X28635227Y28349500D01*
X28635228Y28349500D01*
X28764773Y28349500D01*
X28764773Y28349501D01*
X28889069Y28385996D01*
X28998049Y28456033D01*
X29082882Y28553937D01*
X29136697Y28671774D01*
X29155133Y28800000D01*
X29136697Y28928226D01*
X29082882Y29046063D01*
X28998049Y29143967D01*
X28998048Y29143968D01*
X28942768Y29179494D01*
X28889069Y29214004D01*
X28889067Y29214005D01*
X28889065Y29214006D01*
X28764774Y29250500D01*
X28764772Y29250500D01*
X28635228Y29250500D01*
X28635226Y29250500D01*
X28510934Y29214006D01*
X28401951Y29143968D01*
X28317118Y29046064D01*
X28317118Y29046063D01*
X28263302Y28928225D01*
X28244867Y28800000D01*
X500500Y28800000D01*
X500500Y30980132D01*
X5399500Y30980132D01*
X5399500Y30519870D01*
X5414265Y30369949D01*
X5472619Y30177581D01*
X5567375Y30000303D01*
X5567379Y30000297D01*
X5694906Y29844906D01*
X5850297Y29717379D01*
X5850299Y29717378D01*
X5850302Y29717376D01*
X6027580Y29622620D01*
X6027582Y29622619D01*
X6219947Y29564266D01*
X6369865Y29549500D01*
X8630134Y29549501D01*
X8780053Y29564266D01*
X8972418Y29622619D01*
X9149703Y29717379D01*
X9305094Y29844906D01*
X9432621Y30000297D01*
X9527381Y30177582D01*
X9534181Y30200000D01*
X15544867Y30200000D01*
X15563302Y30071776D01*
X15563303Y30071774D01*
X15617118Y29953937D01*
X15701951Y29856033D01*
X15810931Y29785996D01*
X15810933Y29785996D01*
X15810934Y29785995D01*
X15935225Y29749501D01*
X15935227Y29749500D01*
X15935228Y29749500D01*
X16064773Y29749500D01*
X16064773Y29749501D01*
X16189069Y29785996D01*
X16298049Y29856033D01*
X16382882Y29953937D01*
X16436697Y30071774D01*
X16455133Y30200000D01*
X16440755Y30300000D01*
X26744867Y30300000D01*
X26763302Y30171776D01*
X26763303Y30171774D01*
X26817118Y30053937D01*
X26901951Y29956033D01*
X27010931Y29885996D01*
X27010933Y29885996D01*
X27010934Y29885995D01*
X27135225Y29849501D01*
X27135227Y29849500D01*
X27135228Y29849500D01*
X27264773Y29849500D01*
X27264773Y29849501D01*
X27389069Y29885996D01*
X27410860Y29900000D01*
X51444867Y29900000D01*
X51463302Y29771776D01*
X51463303Y29771774D01*
X51517118Y29653937D01*
X51601951Y29556033D01*
X51710931Y29485996D01*
X51710933Y29485996D01*
X51710934Y29485995D01*
X51835225Y29449501D01*
X51835227Y29449500D01*
X51835228Y29449500D01*
X51964773Y29449500D01*
X51964773Y29449501D01*
X52089069Y29485996D01*
X52198049Y29556033D01*
X52282882Y29653937D01*
X52336697Y29771774D01*
X52355133Y29900000D01*
X52336697Y30028226D01*
X52282882Y30146063D01*
X52198049Y30243967D01*
X52198048Y30243968D01*
X52154777Y30271776D01*
X52089069Y30314004D01*
X52089067Y30314005D01*
X52089065Y30314006D01*
X51964774Y30350500D01*
X51964772Y30350500D01*
X51835228Y30350500D01*
X51835226Y30350500D01*
X51710934Y30314006D01*
X51601951Y30243968D01*
X51517118Y30146064D01*
X51517118Y30146063D01*
X51463302Y30028225D01*
X51444867Y29900000D01*
X27410860Y29900000D01*
X27498049Y29956033D01*
X27582882Y30053937D01*
X27636697Y30171774D01*
X27655133Y30300000D01*
X27640755Y30400000D01*
X62144867Y30400000D01*
X62163302Y30271776D01*
X62163303Y30271774D01*
X62217118Y30153937D01*
X62301951Y30056033D01*
X62410931Y29985996D01*
X62410933Y29985996D01*
X62410934Y29985995D01*
X62535225Y29949501D01*
X62535227Y29949500D01*
X62535228Y29949500D01*
X62664773Y29949500D01*
X62664773Y29949501D01*
X62789069Y29985996D01*
X62898049Y30056033D01*
X62982882Y30153937D01*
X63036697Y30271774D01*
X63055133Y30400000D01*
X63036697Y30528226D01*
X62982882Y30646063D01*
X62898049Y30743967D01*
X62898048Y30743968D01*
X62856081Y30770938D01*
X62789069Y30814004D01*
X62789067Y30814005D01*
X62789065Y30814006D01*
X62664774Y30850500D01*
X62664772Y30850500D01*
X62535228Y30850500D01*
X62535226Y30850500D01*
X62410934Y30814006D01*
X62301951Y30743968D01*
X62217118Y30646064D01*
X62217118Y30646063D01*
X62163302Y30528225D01*
X62144867Y30400000D01*
X27640755Y30400000D01*
X27636697Y30428226D01*
X27582882Y30546063D01*
X27498049Y30643967D01*
X27498048Y30643968D01*
X27456081Y30670938D01*
X27389069Y30714004D01*
X27389067Y30714005D01*
X27389065Y30714006D01*
X27264774Y30750500D01*
X27264772Y30750500D01*
X27135228Y30750500D01*
X27135226Y30750500D01*
X27010934Y30714006D01*
X26901951Y30643968D01*
X26817118Y30546064D01*
X26817118Y30546063D01*
X26763302Y30428225D01*
X26744867Y30300000D01*
X16440755Y30300000D01*
X16436697Y30328226D01*
X16382882Y30446063D01*
X16298049Y30543967D01*
X16298048Y30543968D01*
X16256081Y30570938D01*
X16189069Y30614004D01*
X16189067Y30614005D01*
X16189065Y30614006D01*
X16064774Y30650500D01*
X16064772Y30650500D01*
X15935228Y30650500D01*
X15935226Y30650500D01*
X15810934Y30614006D01*
X15701951Y30543968D01*
X15617118Y30446064D01*
X15617118Y30446063D01*
X15563302Y30328225D01*
X15544867Y30200000D01*
X9534181Y30200000D01*
X9585734Y30369947D01*
X9600500Y30519865D01*
X9600499Y30980134D01*
X9585734Y31130053D01*
X9527381Y31322418D01*
X9432621Y31499703D01*
X9305094Y31655094D01*
X9149703Y31782621D01*
X9149697Y31782625D01*
X8972419Y31877381D01*
X8780051Y31935735D01*
X8687121Y31944888D01*
X8630135Y31950500D01*
X8630130Y31950500D01*
X6369869Y31950500D01*
X6219948Y31935735D01*
X6027580Y31877381D01*
X5850302Y31782625D01*
X5850296Y31782621D01*
X5694906Y31655094D01*
X5567379Y31499704D01*
X5567375Y31499698D01*
X5472619Y31322420D01*
X5414265Y31130052D01*
X5399500Y30980132D01*
X500500Y30980132D01*
X500500Y32700000D01*
X35344867Y32700000D01*
X35363302Y32571776D01*
X35363303Y32571774D01*
X35417118Y32453937D01*
X35501951Y32356033D01*
X35610931Y32285996D01*
X35610933Y32285996D01*
X35610934Y32285995D01*
X35735225Y32249501D01*
X35735227Y32249500D01*
X35735228Y32249500D01*
X35864773Y32249500D01*
X35864773Y32249501D01*
X35989069Y32285996D01*
X36098049Y32356033D01*
X36182882Y32453937D01*
X36236697Y32571774D01*
X36240755Y32600000D01*
X48544867Y32600000D01*
X48563302Y32471776D01*
X48563303Y32471774D01*
X48617118Y32353937D01*
X48701951Y32256033D01*
X48810931Y32185996D01*
X48810933Y32185996D01*
X48810934Y32185995D01*
X48935225Y32149501D01*
X48935227Y32149500D01*
X48935228Y32149500D01*
X49064773Y32149500D01*
X49064773Y32149501D01*
X49189069Y32185996D01*
X49298049Y32256033D01*
X49382882Y32353937D01*
X49436697Y32471774D01*
X49455133Y32600000D01*
X49436697Y32728226D01*
X49382882Y32846063D01*
X49298049Y32943967D01*
X49298048Y32943968D01*
X49256081Y32970938D01*
X49189069Y33014004D01*
X49189067Y33014005D01*
X49189065Y33014006D01*
X49064774Y33050500D01*
X49064772Y33050500D01*
X48935228Y33050500D01*
X48935226Y33050500D01*
X48810934Y33014006D01*
X48701951Y32943968D01*
X48617118Y32846064D01*
X48617118Y32846063D01*
X48563302Y32728225D01*
X48544867Y32600000D01*
X36240755Y32600000D01*
X36255133Y32700000D01*
X36236697Y32828226D01*
X36182882Y32946063D01*
X36098049Y33043967D01*
X36098048Y33043968D01*
X36054777Y33071776D01*
X35989069Y33114004D01*
X35989067Y33114005D01*
X35989065Y33114006D01*
X35864774Y33150500D01*
X35864772Y33150500D01*
X35735228Y33150500D01*
X35735226Y33150500D01*
X35610934Y33114006D01*
X35501951Y33043968D01*
X35417118Y32946064D01*
X35417118Y32946063D01*
X35363302Y32828225D01*
X35344867Y32700000D01*
X500500Y32700000D01*
X500500Y33200000D01*
X15144867Y33200000D01*
X15163302Y33071776D01*
X15163303Y33071774D01*
X15217118Y32953937D01*
X15301951Y32856033D01*
X15410931Y32785996D01*
X15410933Y32785996D01*
X15410934Y32785995D01*
X15535225Y32749501D01*
X15535227Y32749500D01*
X15535228Y32749500D01*
X15664773Y32749500D01*
X15664773Y32749501D01*
X15789069Y32785996D01*
X15898049Y32856033D01*
X15902765Y32861477D01*
X15945540Y32882889D01*
X15990928Y32867783D01*
X15997232Y32861479D01*
X16001951Y32856033D01*
X16110931Y32785996D01*
X16110933Y32785996D01*
X16110934Y32785995D01*
X16235225Y32749501D01*
X16235227Y32749500D01*
X16235228Y32749500D01*
X16364773Y32749500D01*
X16364773Y32749501D01*
X16489069Y32785996D01*
X16598049Y32856033D01*
X16602765Y32861477D01*
X16645540Y32882889D01*
X16690928Y32867783D01*
X16697232Y32861479D01*
X16701951Y32856033D01*
X16810931Y32785996D01*
X16810933Y32785996D01*
X16810934Y32785995D01*
X16935225Y32749501D01*
X16935227Y32749500D01*
X16935228Y32749500D01*
X17064773Y32749500D01*
X17064773Y32749501D01*
X17189069Y32785996D01*
X17298049Y32856033D01*
X17302765Y32861477D01*
X17345540Y32882889D01*
X17390928Y32867783D01*
X17397232Y32861479D01*
X17401951Y32856033D01*
X17510931Y32785996D01*
X17510933Y32785996D01*
X17510934Y32785995D01*
X17635225Y32749501D01*
X17635227Y32749500D01*
X17635228Y32749500D01*
X17764773Y32749500D01*
X17764773Y32749501D01*
X17889069Y32785996D01*
X17998049Y32856033D01*
X18002765Y32861477D01*
X18045540Y32882889D01*
X18090928Y32867783D01*
X18097232Y32861479D01*
X18101951Y32856033D01*
X18210931Y32785996D01*
X18210933Y32785996D01*
X18210934Y32785995D01*
X18335225Y32749501D01*
X18335227Y32749500D01*
X18335228Y32749500D01*
X18464773Y32749500D01*
X18464773Y32749501D01*
X18589069Y32785996D01*
X18698049Y32856033D01*
X18702765Y32861477D01*
X18745540Y32882889D01*
X18790928Y32867783D01*
X18797232Y32861479D01*
X18801951Y32856033D01*
X18910931Y32785996D01*
X18910933Y32785996D01*
X18910934Y32785995D01*
X19035225Y32749501D01*
X19035227Y32749500D01*
X19035228Y32749500D01*
X19164773Y32749500D01*
X19164773Y32749501D01*
X19289069Y32785996D01*
X19398049Y32856033D01*
X19482882Y32953937D01*
X19536697Y33071774D01*
X19555133Y33200000D01*
X19536697Y33328226D01*
X19482882Y33446063D01*
X19398049Y33543967D01*
X19398048Y33543968D01*
X19356081Y33570938D01*
X19289069Y33614004D01*
X19289067Y33614005D01*
X19289065Y33614006D01*
X19164774Y33650500D01*
X19164772Y33650500D01*
X19035228Y33650500D01*
X19035226Y33650500D01*
X18910934Y33614006D01*
X18801952Y33543968D01*
X18797233Y33538522D01*
X18754456Y33517112D01*
X18709069Y33532220D01*
X18702767Y33538522D01*
X18698049Y33543967D01*
X18589069Y33614004D01*
X18589067Y33614005D01*
X18589065Y33614006D01*
X18464774Y33650500D01*
X18464772Y33650500D01*
X18335228Y33650500D01*
X18335226Y33650500D01*
X18210934Y33614006D01*
X18101952Y33543968D01*
X18097233Y33538522D01*
X18054456Y33517112D01*
X18009069Y33532220D01*
X18002767Y33538522D01*
X17998049Y33543967D01*
X17889069Y33614004D01*
X17889067Y33614005D01*
X17889065Y33614006D01*
X17764774Y33650500D01*
X17764772Y33650500D01*
X17635228Y33650500D01*
X17635226Y33650500D01*
X17510934Y33614006D01*
X17401952Y33543968D01*
X17397233Y33538522D01*
X17354456Y33517112D01*
X17309069Y33532220D01*
X17302767Y33538522D01*
X17298049Y33543967D01*
X17189069Y33614004D01*
X17189067Y33614005D01*
X17189065Y33614006D01*
X17064774Y33650500D01*
X17064772Y33650500D01*
X16935228Y33650500D01*
X16935226Y33650500D01*
X16810934Y33614006D01*
X16701952Y33543968D01*
X16697233Y33538522D01*
X16654456Y33517112D01*
X16609069Y33532220D01*
X16602767Y33538522D01*
X16598049Y33543967D01*
X16489069Y33614004D01*
X16489067Y33614005D01*
X16489065Y33614006D01*
X16364774Y33650500D01*
X16364772Y33650500D01*
X16235228Y33650500D01*
X16235226Y33650500D01*
X16110934Y33614006D01*
X16001952Y33543968D01*
X15997233Y33538522D01*
X15954456Y33517112D01*
X15909069Y33532220D01*
X15902767Y33538522D01*
X15898049Y33543967D01*
X15789069Y33614004D01*
X15789067Y33614005D01*
X15789065Y33614006D01*
X15664774Y33650500D01*
X15664772Y33650500D01*
X15535228Y33650500D01*
X15535226Y33650500D01*
X15410934Y33614006D01*
X15301951Y33543968D01*
X15217118Y33446064D01*
X15217118Y33446063D01*
X15163302Y33328225D01*
X15144867Y33200000D01*
X500500Y33200000D01*
X500500Y34200000D01*
X54444867Y34200000D01*
X54463302Y34071776D01*
X54463303Y34071774D01*
X54517118Y33953937D01*
X54601951Y33856033D01*
X54710931Y33785996D01*
X54710933Y33785996D01*
X54710934Y33785995D01*
X54835225Y33749501D01*
X54835227Y33749500D01*
X54835228Y33749500D01*
X54964773Y33749500D01*
X54964773Y33749501D01*
X55089069Y33785996D01*
X55198049Y33856033D01*
X55282882Y33953937D01*
X55336697Y34071774D01*
X55347655Y34147990D01*
X55372062Y34189127D01*
X55418412Y34200958D01*
X55459551Y34176550D01*
X55466370Y34165058D01*
X55517117Y34053938D01*
X55517118Y34053937D01*
X55601951Y33956033D01*
X55710931Y33885996D01*
X55710933Y33885996D01*
X55710934Y33885995D01*
X55835225Y33849501D01*
X55835227Y33849500D01*
X55835228Y33849500D01*
X55964773Y33849500D01*
X55964773Y33849501D01*
X56089069Y33885996D01*
X56198049Y33956033D01*
X56282882Y34053937D01*
X56336697Y34171774D01*
X56355133Y34300000D01*
X56336697Y34428226D01*
X56282882Y34546063D01*
X56198049Y34643967D01*
X56198048Y34643968D01*
X56156081Y34670938D01*
X56089069Y34714004D01*
X56089067Y34714005D01*
X56089065Y34714006D01*
X55964774Y34750500D01*
X55964772Y34750500D01*
X55835228Y34750500D01*
X55835226Y34750500D01*
X55710934Y34714006D01*
X55601951Y34643968D01*
X55517118Y34546064D01*
X55517118Y34546063D01*
X55463302Y34428225D01*
X55452345Y34352012D01*
X55427936Y34310873D01*
X55381586Y34299043D01*
X55340447Y34323452D01*
X55333629Y34334943D01*
X55291028Y34428225D01*
X55282882Y34446063D01*
X55198049Y34543967D01*
X55198048Y34543968D01*
X55132650Y34585996D01*
X55089069Y34614004D01*
X55089067Y34614005D01*
X55089065Y34614006D01*
X54964774Y34650500D01*
X54964772Y34650500D01*
X54835228Y34650500D01*
X54835226Y34650500D01*
X54710934Y34614006D01*
X54601951Y34543968D01*
X54517118Y34446064D01*
X54517118Y34446063D01*
X54463302Y34328225D01*
X54444867Y34200000D01*
X500500Y34200000D01*
X500500Y35000000D01*
X52644867Y35000000D01*
X52663302Y34871776D01*
X52663303Y34871774D01*
X52717118Y34753937D01*
X52801951Y34656033D01*
X52910931Y34585996D01*
X52910933Y34585996D01*
X52910934Y34585995D01*
X53035225Y34549501D01*
X53035227Y34549500D01*
X53035228Y34549500D01*
X53164773Y34549500D01*
X53164773Y34549501D01*
X53289069Y34585996D01*
X53398049Y34656033D01*
X53482882Y34753937D01*
X53536697Y34871774D01*
X53555133Y35000000D01*
X53536697Y35128226D01*
X53482882Y35246063D01*
X53398049Y35343967D01*
X53398048Y35343968D01*
X53332650Y35385996D01*
X53289069Y35414004D01*
X53289067Y35414005D01*
X53289065Y35414006D01*
X53164774Y35450500D01*
X53164772Y35450500D01*
X53035228Y35450500D01*
X53035226Y35450500D01*
X52910934Y35414006D01*
X52801951Y35343968D01*
X52717118Y35246064D01*
X52717118Y35246063D01*
X52663302Y35128225D01*
X52644867Y35000000D01*
X500500Y35000000D01*
X500500Y35800000D01*
X12144867Y35800000D01*
X12163302Y35671776D01*
X12163303Y35671774D01*
X12217118Y35553937D01*
X12301951Y35456033D01*
X12410931Y35385996D01*
X12410933Y35385996D01*
X12410934Y35385995D01*
X12535225Y35349501D01*
X12535227Y35349500D01*
X12535228Y35349500D01*
X12664773Y35349500D01*
X12664773Y35349501D01*
X12789069Y35385996D01*
X12898049Y35456033D01*
X12902765Y35461477D01*
X12945540Y35482889D01*
X12990928Y35467783D01*
X12997232Y35461479D01*
X13001951Y35456033D01*
X13110931Y35385996D01*
X13110933Y35385996D01*
X13110934Y35385995D01*
X13235225Y35349501D01*
X13235227Y35349500D01*
X13235228Y35349500D01*
X13364773Y35349500D01*
X13364773Y35349501D01*
X13489069Y35385996D01*
X13598049Y35456033D01*
X13602765Y35461477D01*
X13645540Y35482889D01*
X13690928Y35467783D01*
X13697232Y35461479D01*
X13701951Y35456033D01*
X13810931Y35385996D01*
X13810933Y35385996D01*
X13810934Y35385995D01*
X13935225Y35349501D01*
X13935227Y35349500D01*
X13935228Y35349500D01*
X14064773Y35349500D01*
X14064773Y35349501D01*
X14189069Y35385996D01*
X14298049Y35456033D01*
X14336146Y35500000D01*
X45744867Y35500000D01*
X45763302Y35371776D01*
X45763303Y35371774D01*
X45817118Y35253937D01*
X45901951Y35156033D01*
X46010931Y35085996D01*
X46010933Y35085996D01*
X46010934Y35085995D01*
X46135225Y35049501D01*
X46135227Y35049500D01*
X46135228Y35049500D01*
X46264773Y35049500D01*
X46264773Y35049501D01*
X46389069Y35085996D01*
X46498049Y35156033D01*
X46582882Y35253937D01*
X46636697Y35371774D01*
X46655133Y35500000D01*
X46636697Y35628226D01*
X46582882Y35746063D01*
X46498049Y35843967D01*
X46498048Y35843968D01*
X46456081Y35870938D01*
X46389069Y35914004D01*
X46389067Y35914005D01*
X46389065Y35914006D01*
X46264774Y35950500D01*
X46264772Y35950500D01*
X46135228Y35950500D01*
X46135226Y35950500D01*
X46010934Y35914006D01*
X45901951Y35843968D01*
X45817118Y35746064D01*
X45817118Y35746063D01*
X45763302Y35628225D01*
X45744867Y35500000D01*
X14336146Y35500000D01*
X14382882Y35553937D01*
X14436697Y35671774D01*
X14455133Y35800000D01*
X14436697Y35928226D01*
X14382882Y36046063D01*
X14298049Y36143967D01*
X14298048Y36143968D01*
X14256081Y36170938D01*
X14189069Y36214004D01*
X14189067Y36214005D01*
X14189065Y36214006D01*
X14064774Y36250500D01*
X14064772Y36250500D01*
X13935228Y36250500D01*
X13935226Y36250500D01*
X13810934Y36214006D01*
X13701952Y36143968D01*
X13697233Y36138522D01*
X13654456Y36117112D01*
X13609069Y36132220D01*
X13602767Y36138522D01*
X13598049Y36143967D01*
X13489069Y36214004D01*
X13489067Y36214005D01*
X13489065Y36214006D01*
X13364774Y36250500D01*
X13364772Y36250500D01*
X13235228Y36250500D01*
X13235226Y36250500D01*
X13110934Y36214006D01*
X13001952Y36143968D01*
X12997233Y36138522D01*
X12954456Y36117112D01*
X12909069Y36132220D01*
X12902767Y36138522D01*
X12898049Y36143967D01*
X12789069Y36214004D01*
X12789067Y36214005D01*
X12789065Y36214006D01*
X12664774Y36250500D01*
X12664772Y36250500D01*
X12535228Y36250500D01*
X12535226Y36250500D01*
X12410934Y36214006D01*
X12301951Y36143968D01*
X12217118Y36046064D01*
X12217118Y36046063D01*
X12163302Y35928225D01*
X12144867Y35800000D01*
X500500Y35800000D01*
X500500Y36500000D01*
X29444867Y36500000D01*
X29463302Y36371776D01*
X29463303Y36371774D01*
X29517118Y36253937D01*
X29601951Y36156033D01*
X29710931Y36085996D01*
X29710933Y36085996D01*
X29710934Y36085995D01*
X29835225Y36049501D01*
X29835227Y36049500D01*
X29835228Y36049500D01*
X29964773Y36049500D01*
X29964773Y36049501D01*
X30089069Y36085996D01*
X30198049Y36156033D01*
X30282882Y36253937D01*
X30336697Y36371774D01*
X30355133Y36500000D01*
X30336697Y36628226D01*
X30282882Y36746063D01*
X30198049Y36843967D01*
X30198048Y36843968D01*
X30154777Y36871776D01*
X30089069Y36914004D01*
X30089067Y36914005D01*
X30089065Y36914006D01*
X29964774Y36950500D01*
X29964772Y36950500D01*
X29835228Y36950500D01*
X29835226Y36950500D01*
X29710934Y36914006D01*
X29601951Y36843968D01*
X29517118Y36746064D01*
X29517118Y36746063D01*
X29463302Y36628225D01*
X29444867Y36500000D01*
X500500Y36500000D01*
X500500Y37000000D01*
X30944867Y37000000D01*
X30963302Y36871776D01*
X30963303Y36871774D01*
X31017118Y36753937D01*
X31101951Y36656033D01*
X31185128Y36602579D01*
X31212410Y36563286D01*
X31203917Y36516210D01*
X31185129Y36497423D01*
X31158743Y36480466D01*
X31101951Y36443968D01*
X31017118Y36346064D01*
X31017118Y36346063D01*
X30963302Y36228225D01*
X30944867Y36100000D01*
X30963302Y35971776D01*
X30963303Y35971774D01*
X31017118Y35853937D01*
X31101951Y35756033D01*
X31210931Y35685996D01*
X31210933Y35685996D01*
X31210934Y35685995D01*
X31335225Y35649501D01*
X31335227Y35649500D01*
X31335228Y35649500D01*
X31464773Y35649500D01*
X31464773Y35649501D01*
X31589069Y35685996D01*
X31698049Y35756033D01*
X31782882Y35853937D01*
X31836697Y35971774D01*
X31855133Y36100000D01*
X31836697Y36228226D01*
X31782882Y36346063D01*
X31698049Y36443967D01*
X31698048Y36443968D01*
X31698047Y36443969D01*
X31647639Y36476364D01*
X31614871Y36497422D01*
X31587589Y36536714D01*
X31596082Y36583789D01*
X31614870Y36602578D01*
X31698049Y36656033D01*
X31782882Y36753937D01*
X31836697Y36871774D01*
X31855133Y37000000D01*
X48144867Y37000000D01*
X48163302Y36871776D01*
X48163303Y36871774D01*
X48217118Y36753937D01*
X48301951Y36656033D01*
X48410931Y36585996D01*
X48410933Y36585996D01*
X48410934Y36585995D01*
X48473079Y36567748D01*
X48533525Y36550000D01*
X48535225Y36549501D01*
X48535227Y36549500D01*
X48535228Y36549500D01*
X48664773Y36549500D01*
X48664773Y36549501D01*
X48789069Y36585996D01*
X48898049Y36656033D01*
X48982882Y36753937D01*
X49036697Y36871774D01*
X49055133Y37000000D01*
X49036697Y37128226D01*
X48982882Y37246063D01*
X48898049Y37343967D01*
X48898048Y37343968D01*
X48856081Y37370938D01*
X48789069Y37414004D01*
X48789067Y37414005D01*
X48789065Y37414006D01*
X48664774Y37450500D01*
X48664772Y37450500D01*
X48535228Y37450500D01*
X48535226Y37450500D01*
X48410934Y37414006D01*
X48301951Y37343968D01*
X48217118Y37246064D01*
X48217118Y37246063D01*
X48163302Y37128225D01*
X48144867Y37000000D01*
X31855133Y37000000D01*
X31836697Y37128226D01*
X31782882Y37246063D01*
X31698049Y37343967D01*
X31698048Y37343968D01*
X31656081Y37370938D01*
X31589069Y37414004D01*
X31589067Y37414005D01*
X31589065Y37414006D01*
X31464774Y37450500D01*
X31464772Y37450500D01*
X31335228Y37450500D01*
X31335226Y37450500D01*
X31210934Y37414006D01*
X31101951Y37343968D01*
X31017118Y37246064D01*
X31017118Y37246063D01*
X30963302Y37128225D01*
X30944867Y37000000D01*
X500500Y37000000D01*
X500500Y38100000D01*
X8644867Y38100000D01*
X8663302Y37971776D01*
X8663303Y37971774D01*
X8717118Y37853937D01*
X8801951Y37756033D01*
X8910931Y37685996D01*
X8910933Y37685996D01*
X8910934Y37685995D01*
X9035225Y37649501D01*
X9035227Y37649500D01*
X9035228Y37649500D01*
X9164773Y37649500D01*
X9164773Y37649501D01*
X9289069Y37685996D01*
X9398049Y37756033D01*
X9482882Y37853937D01*
X9536697Y37971774D01*
X9547944Y38050002D01*
X15719534Y38050002D01*
X15719534Y38049999D01*
X15739311Y37899771D01*
X15739314Y37899761D01*
X15768945Y37828225D01*
X15797302Y37759767D01*
X15889549Y37639549D01*
X16009767Y37547302D01*
X16149764Y37489313D01*
X16149768Y37489313D01*
X16149770Y37489312D01*
X16299998Y37469534D01*
X16300000Y37469534D01*
X16300002Y37469534D01*
X16450229Y37489312D01*
X16450229Y37489313D01*
X16450236Y37489313D01*
X16590233Y37547302D01*
X16661953Y37602336D01*
X16708157Y37614716D01*
X16738046Y37602336D01*
X16809767Y37547302D01*
X16949764Y37489313D01*
X16949768Y37489313D01*
X16949770Y37489312D01*
X17099998Y37469534D01*
X17100000Y37469534D01*
X17100002Y37469534D01*
X17250229Y37489312D01*
X17250229Y37489313D01*
X17250236Y37489313D01*
X17390233Y37547302D01*
X17510451Y37639549D01*
X17602698Y37759767D01*
X17660687Y37899764D01*
X17673883Y38000000D01*
X26644867Y38000000D01*
X26663302Y37871776D01*
X26663303Y37871774D01*
X26717118Y37753937D01*
X26801951Y37656033D01*
X26910931Y37585996D01*
X26910933Y37585996D01*
X26910934Y37585995D01*
X27035225Y37549501D01*
X27035227Y37549500D01*
X27035228Y37549500D01*
X27164773Y37549500D01*
X27164773Y37549501D01*
X27289069Y37585996D01*
X27398049Y37656033D01*
X27436146Y37700000D01*
X41144867Y37700000D01*
X41163302Y37571776D01*
X41163303Y37571774D01*
X41217118Y37453937D01*
X41301951Y37356033D01*
X41410931Y37285996D01*
X41410933Y37285996D01*
X41410934Y37285995D01*
X41535225Y37249501D01*
X41535227Y37249500D01*
X41535228Y37249500D01*
X41664773Y37249500D01*
X41664773Y37249501D01*
X41789069Y37285996D01*
X41898049Y37356033D01*
X41982882Y37453937D01*
X42036697Y37571774D01*
X42055133Y37700000D01*
X43544867Y37700000D01*
X43563302Y37571776D01*
X43563303Y37571774D01*
X43617118Y37453937D01*
X43701951Y37356033D01*
X43810931Y37285996D01*
X43810933Y37285996D01*
X43810934Y37285995D01*
X43935225Y37249501D01*
X43935227Y37249500D01*
X43935228Y37249500D01*
X44064773Y37249500D01*
X44064773Y37249501D01*
X44189069Y37285996D01*
X44298049Y37356033D01*
X44382882Y37453937D01*
X44436697Y37571774D01*
X44455133Y37700000D01*
X44436697Y37828226D01*
X44382882Y37946063D01*
X44298049Y38043967D01*
X44298048Y38043968D01*
X44251754Y38073719D01*
X44189069Y38114004D01*
X44189067Y38114005D01*
X44189065Y38114006D01*
X44064774Y38150500D01*
X44064772Y38150500D01*
X43935228Y38150500D01*
X43935226Y38150500D01*
X43810934Y38114006D01*
X43701951Y38043968D01*
X43617118Y37946064D01*
X43617118Y37946063D01*
X43563302Y37828225D01*
X43544867Y37700000D01*
X42055133Y37700000D01*
X42036697Y37828226D01*
X41982882Y37946063D01*
X41898049Y38043967D01*
X41898048Y38043968D01*
X41851754Y38073719D01*
X41789069Y38114004D01*
X41789067Y38114005D01*
X41789065Y38114006D01*
X41664774Y38150500D01*
X41664772Y38150500D01*
X41535228Y38150500D01*
X41535226Y38150500D01*
X41410934Y38114006D01*
X41301951Y38043968D01*
X41217118Y37946064D01*
X41217118Y37946063D01*
X41163302Y37828225D01*
X41144867Y37700000D01*
X27436146Y37700000D01*
X27482882Y37753937D01*
X27536697Y37871774D01*
X27555133Y38000000D01*
X27536697Y38128226D01*
X27482882Y38246063D01*
X27398049Y38343967D01*
X27398048Y38343968D01*
X27329742Y38387865D01*
X27289069Y38414004D01*
X27289067Y38414005D01*
X27289065Y38414006D01*
X27164774Y38450500D01*
X27164772Y38450500D01*
X27035228Y38450500D01*
X27035226Y38450500D01*
X26910934Y38414006D01*
X26801951Y38343968D01*
X26717118Y38246064D01*
X26717118Y38246063D01*
X26663302Y38128225D01*
X26644867Y38000000D01*
X17673883Y38000000D01*
X17680466Y38049999D01*
X17680466Y38050002D01*
X17660688Y38200230D01*
X17660687Y38200232D01*
X17660687Y38200236D01*
X17602698Y38340233D01*
X17510451Y38460451D01*
X17390233Y38552698D01*
X17390229Y38552700D01*
X17250239Y38610686D01*
X17250229Y38610689D01*
X17100002Y38630466D01*
X17099998Y38630466D01*
X16949770Y38610689D01*
X16949760Y38610686D01*
X16809769Y38552700D01*
X16809766Y38552698D01*
X16738047Y38497666D01*
X16691842Y38485286D01*
X16661953Y38497666D01*
X16590233Y38552698D01*
X16590230Y38552700D01*
X16450239Y38610686D01*
X16450229Y38610689D01*
X16300002Y38630466D01*
X16299998Y38630466D01*
X16149770Y38610689D01*
X16149760Y38610686D01*
X16009770Y38552700D01*
X16009767Y38552699D01*
X16009767Y38552698D01*
X15889549Y38460451D01*
X15800168Y38343967D01*
X15797300Y38340230D01*
X15739314Y38200240D01*
X15739311Y38200230D01*
X15719534Y38050002D01*
X9547944Y38050002D01*
X9555133Y38100000D01*
X9536697Y38228226D01*
X9482882Y38346063D01*
X9398049Y38443967D01*
X9398048Y38443968D01*
X9314491Y38497666D01*
X9289069Y38514004D01*
X9289067Y38514005D01*
X9289065Y38514006D01*
X9164774Y38550500D01*
X9164772Y38550500D01*
X9035228Y38550500D01*
X9035226Y38550500D01*
X8910934Y38514006D01*
X8801951Y38443968D01*
X8717118Y38346064D01*
X8717118Y38346063D01*
X8663302Y38228225D01*
X8644867Y38100000D01*
X500500Y38100000D01*
X500500Y39000000D01*
X25044867Y39000000D01*
X25063302Y38871776D01*
X25063303Y38871774D01*
X25117118Y38753937D01*
X25201951Y38656033D01*
X25310931Y38585996D01*
X25431822Y38550500D01*
X25435225Y38549501D01*
X25435227Y38549500D01*
X25435228Y38549500D01*
X25564773Y38549500D01*
X25564773Y38549501D01*
X25689069Y38585996D01*
X25798049Y38656033D01*
X25823812Y38685765D01*
X59609500Y38685765D01*
X59609500Y38534236D01*
X59609501Y38534228D01*
X59648717Y38387869D01*
X59648718Y38387866D01*
X59724486Y38256634D01*
X59724489Y38256630D01*
X59831629Y38149490D01*
X59831633Y38149487D01*
X59831635Y38149485D01*
X59962865Y38073719D01*
X59962868Y38073718D01*
X60051379Y38050002D01*
X60109234Y38034500D01*
X60109235Y38034500D01*
X60260765Y38034500D01*
X60260766Y38034500D01*
X60407135Y38073719D01*
X60538365Y38149485D01*
X60645515Y38256635D01*
X60721281Y38387865D01*
X60760500Y38534234D01*
X60760500Y38685766D01*
X60721281Y38832135D01*
X60645515Y38963365D01*
X60645513Y38963367D01*
X60645510Y38963371D01*
X60538370Y39070511D01*
X60538366Y39070514D01*
X60538365Y39070515D01*
X60438407Y39128226D01*
X60407134Y39146282D01*
X60407131Y39146283D01*
X60260772Y39185499D01*
X60260767Y39185500D01*
X60260766Y39185500D01*
X60109234Y39185500D01*
X60109233Y39185500D01*
X60109227Y39185499D01*
X59962868Y39146283D01*
X59962865Y39146282D01*
X59831633Y39070514D01*
X59831629Y39070511D01*
X59724489Y38963371D01*
X59724486Y38963367D01*
X59648718Y38832135D01*
X59648717Y38832132D01*
X59609501Y38685773D01*
X59609500Y38685765D01*
X25823812Y38685765D01*
X25882882Y38753937D01*
X25936697Y38871774D01*
X25955133Y39000000D01*
X25936697Y39128226D01*
X25882882Y39246063D01*
X25798049Y39343967D01*
X25798048Y39343968D01*
X25732650Y39385996D01*
X25710859Y39400000D01*
X38944867Y39400000D01*
X38963302Y39271776D01*
X38963303Y39271774D01*
X39017118Y39153937D01*
X39101951Y39056033D01*
X39210931Y38985996D01*
X39210933Y38985996D01*
X39210934Y38985995D01*
X39335225Y38949501D01*
X39335227Y38949500D01*
X39335228Y38949500D01*
X39464773Y38949500D01*
X39464773Y38949501D01*
X39589069Y38985996D01*
X39698049Y39056033D01*
X39782882Y39153937D01*
X39836697Y39271774D01*
X39855133Y39400000D01*
X39836697Y39528226D01*
X39782882Y39646063D01*
X39736146Y39700000D01*
X42644867Y39700000D01*
X42663302Y39571776D01*
X42663303Y39571774D01*
X42717118Y39453937D01*
X42801951Y39356033D01*
X42910931Y39285996D01*
X42910933Y39285996D01*
X42910934Y39285995D01*
X43035225Y39249501D01*
X43035227Y39249500D01*
X43035228Y39249500D01*
X43164773Y39249500D01*
X43164773Y39249501D01*
X43289069Y39285996D01*
X43398049Y39356033D01*
X43482882Y39453937D01*
X43536697Y39571774D01*
X43555133Y39700000D01*
X43540755Y39800000D01*
X48244867Y39800000D01*
X48263302Y39671776D01*
X48263303Y39671774D01*
X48317118Y39553937D01*
X48401951Y39456033D01*
X48510931Y39385996D01*
X48510933Y39385996D01*
X48510934Y39385995D01*
X48635225Y39349501D01*
X48635227Y39349500D01*
X48635228Y39349500D01*
X48764773Y39349500D01*
X48764773Y39349501D01*
X48889069Y39385996D01*
X48998049Y39456033D01*
X49082882Y39553937D01*
X49136697Y39671774D01*
X49155133Y39800000D01*
X56944867Y39800000D01*
X56963302Y39671776D01*
X56963303Y39671774D01*
X57017118Y39553937D01*
X57101951Y39456033D01*
X57210931Y39385996D01*
X57210933Y39385996D01*
X57210934Y39385995D01*
X57335225Y39349501D01*
X57335227Y39349500D01*
X57335228Y39349500D01*
X57464773Y39349500D01*
X57464773Y39349501D01*
X57589069Y39385996D01*
X57698049Y39456033D01*
X57782882Y39553937D01*
X57836697Y39671774D01*
X57855133Y39800000D01*
X57836697Y39928226D01*
X57782882Y40046063D01*
X57698049Y40143967D01*
X57698048Y40143968D01*
X57656081Y40170938D01*
X57589069Y40214004D01*
X57589067Y40214005D01*
X57589065Y40214006D01*
X57464774Y40250500D01*
X57464772Y40250500D01*
X57335228Y40250500D01*
X57335226Y40250500D01*
X57210934Y40214006D01*
X57101951Y40143968D01*
X57017118Y40046064D01*
X57017118Y40046063D01*
X56963302Y39928225D01*
X56944867Y39800000D01*
X49155133Y39800000D01*
X49136697Y39928226D01*
X49082882Y40046063D01*
X48998049Y40143967D01*
X48998048Y40143968D01*
X48956081Y40170938D01*
X48889069Y40214004D01*
X48889067Y40214005D01*
X48889065Y40214006D01*
X48764774Y40250500D01*
X48764772Y40250500D01*
X48635228Y40250500D01*
X48635226Y40250500D01*
X48510934Y40214006D01*
X48401951Y40143968D01*
X48317118Y40046064D01*
X48317118Y40046063D01*
X48263302Y39928225D01*
X48244867Y39800000D01*
X43540755Y39800000D01*
X43536697Y39828226D01*
X43482882Y39946063D01*
X43398049Y40043967D01*
X43398048Y40043968D01*
X43354777Y40071776D01*
X43289069Y40114004D01*
X43289067Y40114005D01*
X43289065Y40114006D01*
X43164774Y40150500D01*
X43164772Y40150500D01*
X43035228Y40150500D01*
X43035226Y40150500D01*
X42910934Y40114006D01*
X42801951Y40043968D01*
X42717118Y39946064D01*
X42717118Y39946063D01*
X42663302Y39828225D01*
X42644867Y39700000D01*
X39736146Y39700000D01*
X39698049Y39743967D01*
X39698048Y39743968D01*
X39632650Y39785996D01*
X39589069Y39814004D01*
X39589067Y39814005D01*
X39589065Y39814006D01*
X39464774Y39850500D01*
X39464772Y39850500D01*
X39335228Y39850500D01*
X39335226Y39850500D01*
X39210934Y39814006D01*
X39101951Y39743968D01*
X39017118Y39646064D01*
X39017118Y39646063D01*
X38963302Y39528225D01*
X38944867Y39400000D01*
X25710859Y39400000D01*
X25689069Y39414004D01*
X25689067Y39414005D01*
X25689065Y39414006D01*
X25564774Y39450500D01*
X25564772Y39450500D01*
X25435228Y39450500D01*
X25435226Y39450500D01*
X25310934Y39414006D01*
X25201951Y39343968D01*
X25117118Y39246064D01*
X25117118Y39246063D01*
X25063302Y39128225D01*
X25044867Y39000000D01*
X500500Y39000000D01*
X500500Y40000000D01*
X25544867Y40000000D01*
X25563302Y39871776D01*
X25563303Y39871774D01*
X25617118Y39753937D01*
X25701951Y39656033D01*
X25810931Y39585996D01*
X25810933Y39585996D01*
X25810934Y39585995D01*
X25935225Y39549501D01*
X25935227Y39549500D01*
X25935228Y39549500D01*
X26064773Y39549500D01*
X26064773Y39549501D01*
X26189069Y39585996D01*
X26298049Y39656033D01*
X26382882Y39753937D01*
X26436697Y39871774D01*
X26455133Y40000000D01*
X26436697Y40128226D01*
X26403919Y40200000D01*
X36644867Y40200000D01*
X36663302Y40071776D01*
X36663303Y40071774D01*
X36717118Y39953937D01*
X36801951Y39856033D01*
X36910931Y39785996D01*
X36910933Y39785996D01*
X36910934Y39785995D01*
X37035225Y39749501D01*
X37035227Y39749500D01*
X37035228Y39749500D01*
X37164773Y39749500D01*
X37164773Y39749501D01*
X37289069Y39785996D01*
X37398049Y39856033D01*
X37482882Y39953937D01*
X37536697Y40071774D01*
X37555133Y40200000D01*
X37536697Y40328226D01*
X37482882Y40446063D01*
X37398049Y40543967D01*
X37398048Y40543968D01*
X37332650Y40585996D01*
X37289069Y40614004D01*
X37289067Y40614005D01*
X37289065Y40614006D01*
X37164774Y40650500D01*
X37164772Y40650500D01*
X37035228Y40650500D01*
X37035226Y40650500D01*
X36910934Y40614006D01*
X36801951Y40543968D01*
X36717118Y40446064D01*
X36717118Y40446063D01*
X36663302Y40328225D01*
X36644867Y40200000D01*
X26403919Y40200000D01*
X26382882Y40246063D01*
X26298049Y40343967D01*
X26298048Y40343968D01*
X26232650Y40385996D01*
X26189069Y40414004D01*
X26189067Y40414005D01*
X26189065Y40414006D01*
X26064774Y40450500D01*
X26064772Y40450500D01*
X25935228Y40450500D01*
X25935226Y40450500D01*
X25810934Y40414006D01*
X25701951Y40343968D01*
X25617118Y40246064D01*
X25617118Y40246063D01*
X25563302Y40128225D01*
X25544867Y40000000D01*
X500500Y40000000D01*
X500500Y41000000D01*
X39444867Y41000000D01*
X39463302Y40871776D01*
X39463303Y40871774D01*
X39517118Y40753937D01*
X39601951Y40656033D01*
X39710931Y40585996D01*
X39710933Y40585996D01*
X39710934Y40585995D01*
X39835225Y40549501D01*
X39835227Y40549500D01*
X39835228Y40549500D01*
X39964773Y40549500D01*
X39964773Y40549501D01*
X40089069Y40585996D01*
X40198049Y40656033D01*
X40282882Y40753937D01*
X40303919Y40800000D01*
X44244867Y40800000D01*
X44263302Y40671776D01*
X44263303Y40671774D01*
X44317118Y40553937D01*
X44401951Y40456033D01*
X44510931Y40385996D01*
X44510933Y40385996D01*
X44510934Y40385995D01*
X44635225Y40349501D01*
X44635227Y40349500D01*
X44635228Y40349500D01*
X44764773Y40349500D01*
X44764773Y40349501D01*
X44889069Y40385996D01*
X44998049Y40456033D01*
X45082882Y40553937D01*
X45136697Y40671774D01*
X45155133Y40800000D01*
X45136697Y40928226D01*
X45082882Y41046063D01*
X45036146Y41100000D01*
X60244867Y41100000D01*
X60263302Y40971776D01*
X60263303Y40971774D01*
X60317118Y40853937D01*
X60401951Y40756033D01*
X60510931Y40685996D01*
X60631822Y40650500D01*
X60635225Y40649501D01*
X60635227Y40649500D01*
X60635228Y40649500D01*
X60764773Y40649500D01*
X60764773Y40649501D01*
X60889069Y40685996D01*
X60998049Y40756033D01*
X61082882Y40853937D01*
X61136697Y40971774D01*
X61155133Y41100000D01*
X61136697Y41228226D01*
X61082882Y41346063D01*
X60998049Y41443967D01*
X60998048Y41443968D01*
X60932650Y41485996D01*
X60889069Y41514004D01*
X60889067Y41514005D01*
X60889065Y41514006D01*
X60764774Y41550500D01*
X60764772Y41550500D01*
X60635228Y41550500D01*
X60635226Y41550500D01*
X60510934Y41514006D01*
X60401951Y41443968D01*
X60317118Y41346064D01*
X60317118Y41346063D01*
X60263302Y41228225D01*
X60244867Y41100000D01*
X45036146Y41100000D01*
X44998049Y41143967D01*
X44998048Y41143968D01*
X44956081Y41170938D01*
X44889069Y41214004D01*
X44889067Y41214005D01*
X44889065Y41214006D01*
X44764774Y41250500D01*
X44764772Y41250500D01*
X44635228Y41250500D01*
X44635226Y41250500D01*
X44510934Y41214006D01*
X44401951Y41143968D01*
X44317118Y41046064D01*
X44317118Y41046063D01*
X44263302Y40928225D01*
X44244867Y40800000D01*
X40303919Y40800000D01*
X40336697Y40871774D01*
X40355133Y41000000D01*
X40336697Y41128226D01*
X40282882Y41246063D01*
X40198049Y41343967D01*
X40198048Y41343968D01*
X40156081Y41370938D01*
X40089069Y41414004D01*
X40089067Y41414005D01*
X40089065Y41414006D01*
X39964774Y41450500D01*
X39964772Y41450500D01*
X39835228Y41450500D01*
X39835226Y41450500D01*
X39710934Y41414006D01*
X39601951Y41343968D01*
X39517118Y41246064D01*
X39517118Y41246063D01*
X39463302Y41128225D01*
X39444867Y41000000D01*
X500500Y41000000D01*
X500500Y42300000D01*
X26044867Y42300000D01*
X26063302Y42171776D01*
X26063303Y42171774D01*
X26117118Y42053937D01*
X26201951Y41956033D01*
X26310931Y41885996D01*
X26310933Y41885996D01*
X26310934Y41885995D01*
X26435225Y41849501D01*
X26435227Y41849500D01*
X26435228Y41849500D01*
X26564773Y41849500D01*
X26564773Y41849501D01*
X26689069Y41885996D01*
X26798049Y41956033D01*
X26882882Y42053937D01*
X26903919Y42100000D01*
X29544867Y42100000D01*
X29563302Y41971776D01*
X29563303Y41971774D01*
X29617118Y41853937D01*
X29701951Y41756033D01*
X29810931Y41685996D01*
X29810933Y41685996D01*
X29810934Y41685995D01*
X29935225Y41649501D01*
X29935227Y41649500D01*
X29935228Y41649500D01*
X30064773Y41649500D01*
X30064773Y41649501D01*
X30189069Y41685996D01*
X30298049Y41756033D01*
X30382882Y41853937D01*
X30403919Y41900000D01*
X31244867Y41900000D01*
X31263302Y41771776D01*
X31263303Y41771774D01*
X31317118Y41653937D01*
X31401951Y41556033D01*
X31510931Y41485996D01*
X31631822Y41450500D01*
X31635225Y41449501D01*
X31635227Y41449500D01*
X31635228Y41449500D01*
X31764773Y41449500D01*
X31764773Y41449501D01*
X31889069Y41485996D01*
X31998049Y41556033D01*
X32082882Y41653937D01*
X32136697Y41771774D01*
X32155133Y41900000D01*
X32136697Y42028226D01*
X32082882Y42146063D01*
X31998049Y42243967D01*
X31998048Y42243968D01*
X31956081Y42270938D01*
X31910860Y42300000D01*
X52944867Y42300000D01*
X52963302Y42171776D01*
X52963303Y42171774D01*
X53017118Y42053937D01*
X53101951Y41956033D01*
X53210931Y41885996D01*
X53210933Y41885996D01*
X53210934Y41885995D01*
X53335225Y41849501D01*
X53335227Y41849500D01*
X53335228Y41849500D01*
X53464773Y41849500D01*
X53464773Y41849501D01*
X53589069Y41885996D01*
X53698049Y41956033D01*
X53782882Y42053937D01*
X53803919Y42100000D01*
X57544867Y42100000D01*
X57563302Y41971776D01*
X57563303Y41971774D01*
X57617118Y41853937D01*
X57701951Y41756033D01*
X57810931Y41685996D01*
X57810933Y41685996D01*
X57810934Y41685995D01*
X57935225Y41649501D01*
X57935227Y41649500D01*
X57935228Y41649500D01*
X58064773Y41649500D01*
X58064773Y41649501D01*
X58189069Y41685996D01*
X58298049Y41756033D01*
X58382882Y41853937D01*
X58436697Y41971774D01*
X58455133Y42100000D01*
X58436697Y42228226D01*
X58382882Y42346063D01*
X58298049Y42443967D01*
X58298048Y42443968D01*
X58256081Y42470938D01*
X58189069Y42514004D01*
X58189067Y42514005D01*
X58189065Y42514006D01*
X58064774Y42550500D01*
X58064772Y42550500D01*
X57935228Y42550500D01*
X57935226Y42550500D01*
X57810934Y42514006D01*
X57701951Y42443968D01*
X57617118Y42346064D01*
X57617118Y42346063D01*
X57563302Y42228225D01*
X57544867Y42100000D01*
X53803919Y42100000D01*
X53836697Y42171774D01*
X53855133Y42300000D01*
X53836697Y42428226D01*
X53782882Y42546063D01*
X53698049Y42643967D01*
X53698048Y42643968D01*
X53656081Y42670938D01*
X53589069Y42714004D01*
X53589067Y42714005D01*
X53589065Y42714006D01*
X53464774Y42750500D01*
X53464772Y42750500D01*
X53335228Y42750500D01*
X53335226Y42750500D01*
X53210934Y42714006D01*
X53101951Y42643968D01*
X53017118Y42546064D01*
X53017118Y42546063D01*
X52963302Y42428225D01*
X52944867Y42300000D01*
X31910860Y42300000D01*
X31889069Y42314004D01*
X31889067Y42314005D01*
X31889065Y42314006D01*
X31764774Y42350500D01*
X31764772Y42350500D01*
X31635228Y42350500D01*
X31635226Y42350500D01*
X31510934Y42314006D01*
X31401951Y42243968D01*
X31317118Y42146064D01*
X31317118Y42146063D01*
X31263302Y42028225D01*
X31244867Y41900000D01*
X30403919Y41900000D01*
X30436697Y41971774D01*
X30455133Y42100000D01*
X30436697Y42228226D01*
X30382882Y42346063D01*
X30298049Y42443967D01*
X30298048Y42443968D01*
X30256081Y42470938D01*
X30189069Y42514004D01*
X30189067Y42514005D01*
X30189065Y42514006D01*
X30064774Y42550500D01*
X30064772Y42550500D01*
X29935228Y42550500D01*
X29935226Y42550500D01*
X29810934Y42514006D01*
X29701951Y42443968D01*
X29617118Y42346064D01*
X29617118Y42346063D01*
X29563302Y42228225D01*
X29544867Y42100000D01*
X26903919Y42100000D01*
X26936697Y42171774D01*
X26955133Y42300000D01*
X26936697Y42428226D01*
X26882882Y42546063D01*
X26798049Y42643967D01*
X26798048Y42643968D01*
X26756081Y42670938D01*
X26689069Y42714004D01*
X26689067Y42714005D01*
X26689065Y42714006D01*
X26564774Y42750500D01*
X26564772Y42750500D01*
X26435228Y42750500D01*
X26435226Y42750500D01*
X26310934Y42714006D01*
X26201951Y42643968D01*
X26117118Y42546064D01*
X26117118Y42546063D01*
X26063302Y42428225D01*
X26044867Y42300000D01*
X500500Y42300000D01*
X500500Y46530131D01*
X7249500Y46530131D01*
X7249500Y44269870D01*
X7264265Y44119949D01*
X7322619Y43927581D01*
X7417375Y43750303D01*
X7417379Y43750297D01*
X7544906Y43594906D01*
X7700297Y43467379D01*
X7700299Y43467378D01*
X7700302Y43467376D01*
X7877580Y43372620D01*
X7877582Y43372619D01*
X8069947Y43314266D01*
X8219865Y43299500D01*
X8680134Y43299501D01*
X8830053Y43314266D01*
X9022418Y43372619D01*
X9199703Y43467379D01*
X9355094Y43594906D01*
X9482621Y43750297D01*
X9577381Y43927582D01*
X9635734Y44119947D01*
X9650500Y44269865D01*
X9650499Y46530131D01*
X10749500Y46530131D01*
X10749500Y44269870D01*
X10764265Y44119949D01*
X10822619Y43927581D01*
X10917375Y43750303D01*
X10917379Y43750297D01*
X11044906Y43594906D01*
X11200297Y43467379D01*
X11200299Y43467378D01*
X11200302Y43467376D01*
X11377580Y43372620D01*
X11377582Y43372619D01*
X11569947Y43314266D01*
X11719865Y43299500D01*
X12180134Y43299501D01*
X12330053Y43314266D01*
X12522418Y43372619D01*
X12699703Y43467379D01*
X12855094Y43594906D01*
X12982621Y43750297D01*
X13077381Y43927582D01*
X13135734Y44119947D01*
X13150500Y44269865D01*
X13150500Y44900000D01*
X13644867Y44900000D01*
X13663302Y44771776D01*
X13663303Y44771774D01*
X13717118Y44653937D01*
X13801951Y44556033D01*
X13910931Y44485996D01*
X14031822Y44450500D01*
X14035225Y44449501D01*
X14035227Y44449500D01*
X14035228Y44449500D01*
X14164773Y44449500D01*
X14164773Y44449501D01*
X14289069Y44485996D01*
X14398049Y44556033D01*
X14482882Y44653937D01*
X14503919Y44700000D01*
X16344867Y44700000D01*
X16363302Y44571776D01*
X16363303Y44571774D01*
X16417118Y44453937D01*
X16501951Y44356033D01*
X16610931Y44285996D01*
X16610933Y44285996D01*
X16610934Y44285995D01*
X16735225Y44249501D01*
X16735227Y44249500D01*
X16735228Y44249500D01*
X16864773Y44249500D01*
X16864773Y44249501D01*
X16989069Y44285996D01*
X17098049Y44356033D01*
X17182882Y44453937D01*
X17185653Y44460004D01*
X34924571Y44460004D01*
X34924571Y44459997D01*
X34944242Y44247698D01*
X34944244Y44247687D01*
X35002596Y44042609D01*
X35097631Y43851750D01*
X35097632Y43851748D01*
X35097634Y43851745D01*
X35226128Y43681593D01*
X35383697Y43537949D01*
X35383696Y43537949D01*
X35564977Y43425704D01*
X35564978Y43425703D01*
X35564981Y43425702D01*
X35763802Y43348679D01*
X35973390Y43309500D01*
X35973393Y43309500D01*
X36186607Y43309500D01*
X36186610Y43309500D01*
X36396198Y43348679D01*
X36595019Y43425702D01*
X36776302Y43537948D01*
X36933872Y43681593D01*
X37062366Y43851745D01*
X37157405Y44042611D01*
X37215756Y44247690D01*
X37217811Y44269870D01*
X37235429Y44459997D01*
X37235429Y44460004D01*
X40004571Y44460004D01*
X40004571Y44459997D01*
X40024242Y44247698D01*
X40024244Y44247687D01*
X40082596Y44042609D01*
X40177631Y43851750D01*
X40177632Y43851748D01*
X40177634Y43851745D01*
X40306128Y43681593D01*
X40463697Y43537949D01*
X40463696Y43537949D01*
X40644977Y43425704D01*
X40644978Y43425703D01*
X40644981Y43425702D01*
X40843802Y43348679D01*
X41053390Y43309500D01*
X41053393Y43309500D01*
X41266607Y43309500D01*
X41266610Y43309500D01*
X41476198Y43348679D01*
X41675019Y43425702D01*
X41856302Y43537948D01*
X42013872Y43681593D01*
X42142366Y43851745D01*
X42237405Y44042611D01*
X42295756Y44247690D01*
X42297811Y44269870D01*
X42315429Y44459997D01*
X42315429Y44460004D01*
X42544571Y44460004D01*
X42544571Y44459997D01*
X42564242Y44247698D01*
X42564244Y44247687D01*
X42622596Y44042609D01*
X42717631Y43851750D01*
X42717632Y43851748D01*
X42717634Y43851745D01*
X42846128Y43681593D01*
X43003697Y43537949D01*
X43003696Y43537949D01*
X43184977Y43425704D01*
X43184978Y43425703D01*
X43184981Y43425702D01*
X43383802Y43348679D01*
X43593390Y43309500D01*
X43593393Y43309500D01*
X43806607Y43309500D01*
X43806610Y43309500D01*
X44016198Y43348679D01*
X44215019Y43425702D01*
X44396302Y43537948D01*
X44553872Y43681593D01*
X44682366Y43851745D01*
X44756187Y44000000D01*
X57544867Y44000000D01*
X57563302Y43871776D01*
X57563303Y43871774D01*
X57617118Y43753937D01*
X57701951Y43656033D01*
X57810931Y43585996D01*
X57810933Y43585996D01*
X57810934Y43585995D01*
X57935225Y43549501D01*
X57935227Y43549500D01*
X57935228Y43549500D01*
X58064773Y43549500D01*
X58064773Y43549501D01*
X58189069Y43585996D01*
X58298049Y43656033D01*
X58382882Y43753937D01*
X58436697Y43871774D01*
X58455133Y44000000D01*
X58436697Y44128226D01*
X58382882Y44246063D01*
X58298049Y44343967D01*
X58298048Y44343968D01*
X58256081Y44370938D01*
X58189069Y44414004D01*
X58189067Y44414005D01*
X58189065Y44414006D01*
X58064774Y44450500D01*
X58064772Y44450500D01*
X57935228Y44450500D01*
X57935226Y44450500D01*
X57810934Y44414006D01*
X57701951Y44343968D01*
X57617118Y44246064D01*
X57617118Y44246063D01*
X57563302Y44128225D01*
X57544867Y44000000D01*
X44756187Y44000000D01*
X44777405Y44042611D01*
X44835756Y44247690D01*
X44837811Y44269870D01*
X44855429Y44459997D01*
X44855429Y44460004D01*
X44835757Y44672303D01*
X44835755Y44672314D01*
X44827877Y44700000D01*
X44777405Y44877389D01*
X44682366Y45068255D01*
X44553872Y45238407D01*
X44396302Y45382052D01*
X44396303Y45382052D01*
X44215022Y45494297D01*
X44215021Y45494298D01*
X44098703Y45539359D01*
X44016198Y45571321D01*
X44016195Y45571322D01*
X44016194Y45571322D01*
X43806614Y45610500D01*
X43806610Y45610500D01*
X43593390Y45610500D01*
X43593385Y45610500D01*
X43383805Y45571322D01*
X43184978Y45494298D01*
X43184977Y45494297D01*
X43003696Y45382052D01*
X42846126Y45238405D01*
X42846124Y45238403D01*
X42717634Y45068255D01*
X42717631Y45068251D01*
X42622596Y44877392D01*
X42564244Y44672314D01*
X42564242Y44672303D01*
X42544571Y44460004D01*
X42315429Y44460004D01*
X42295757Y44672303D01*
X42295755Y44672314D01*
X42287877Y44700000D01*
X42237405Y44877389D01*
X42142366Y45068255D01*
X42013872Y45238407D01*
X41856302Y45382052D01*
X41856303Y45382052D01*
X41675022Y45494297D01*
X41675021Y45494298D01*
X41558703Y45539359D01*
X41476198Y45571321D01*
X41476195Y45571322D01*
X41476194Y45571322D01*
X41266614Y45610500D01*
X41266610Y45610500D01*
X41053390Y45610500D01*
X41053385Y45610500D01*
X40843805Y45571322D01*
X40644978Y45494298D01*
X40644977Y45494297D01*
X40463696Y45382052D01*
X40306126Y45238405D01*
X40306124Y45238403D01*
X40177634Y45068255D01*
X40177631Y45068251D01*
X40082596Y44877392D01*
X40024244Y44672314D01*
X40024242Y44672303D01*
X40004571Y44460004D01*
X37235429Y44460004D01*
X37215757Y44672303D01*
X37215755Y44672314D01*
X37207877Y44700000D01*
X37157405Y44877389D01*
X37062366Y45068255D01*
X36933872Y45238407D01*
X36776302Y45382052D01*
X36776303Y45382052D01*
X36595022Y45494297D01*
X36595021Y45494298D01*
X36478703Y45539359D01*
X36396198Y45571321D01*
X36396195Y45571322D01*
X36396194Y45571322D01*
X36186614Y45610500D01*
X36186610Y45610500D01*
X35973390Y45610500D01*
X35973385Y45610500D01*
X35763805Y45571322D01*
X35564978Y45494298D01*
X35564977Y45494297D01*
X35383696Y45382052D01*
X35226126Y45238405D01*
X35226124Y45238403D01*
X35097634Y45068255D01*
X35097631Y45068251D01*
X35002596Y44877392D01*
X34944244Y44672314D01*
X34944242Y44672303D01*
X34924571Y44460004D01*
X17185653Y44460004D01*
X17236697Y44571774D01*
X17255133Y44700000D01*
X17236697Y44828226D01*
X17182882Y44946063D01*
X17098049Y45043967D01*
X17098048Y45043968D01*
X17056081Y45070938D01*
X16989069Y45114004D01*
X16989067Y45114005D01*
X16989065Y45114006D01*
X16864774Y45150500D01*
X16864772Y45150500D01*
X16735228Y45150500D01*
X16735226Y45150500D01*
X16610934Y45114006D01*
X16501951Y45043968D01*
X16417118Y44946064D01*
X16417118Y44946063D01*
X16363302Y44828225D01*
X16344867Y44700000D01*
X14503919Y44700000D01*
X14536697Y44771774D01*
X14555133Y44900000D01*
X14536697Y45028226D01*
X14482882Y45146063D01*
X14398049Y45243967D01*
X14398048Y45243968D01*
X14356081Y45270938D01*
X14289069Y45314004D01*
X14289067Y45314005D01*
X14289065Y45314006D01*
X14164774Y45350500D01*
X14164772Y45350500D01*
X14035228Y45350500D01*
X14035226Y45350500D01*
X13910934Y45314006D01*
X13801951Y45243968D01*
X13717118Y45146064D01*
X13717118Y45146063D01*
X13663302Y45028225D01*
X13644867Y44900000D01*
X13150500Y44900000D01*
X13150499Y46530134D01*
X13135734Y46680053D01*
X13077381Y46872418D01*
X13009188Y47000000D01*
X12995823Y47025004D01*
X18084571Y47025004D01*
X18084571Y47024997D01*
X18104242Y46812698D01*
X18104244Y46812687D01*
X18162596Y46607609D01*
X18257631Y46416750D01*
X18257632Y46416748D01*
X18257634Y46416745D01*
X18386128Y46246593D01*
X18543697Y46102949D01*
X18543696Y46102949D01*
X18724977Y45990704D01*
X18724978Y45990703D01*
X18724981Y45990702D01*
X18923802Y45913679D01*
X19133390Y45874500D01*
X19133393Y45874500D01*
X19346607Y45874500D01*
X19346610Y45874500D01*
X19556198Y45913679D01*
X19755019Y45990702D01*
X19936302Y46102948D01*
X20093872Y46246593D01*
X20222366Y46416745D01*
X20317405Y46607611D01*
X20375756Y46812690D01*
X20375757Y46812698D01*
X20395429Y47024997D01*
X20395429Y47025004D01*
X20624571Y47025004D01*
X20624571Y47024997D01*
X20644242Y46812698D01*
X20644244Y46812687D01*
X20702596Y46607609D01*
X20797631Y46416750D01*
X20797632Y46416748D01*
X20797634Y46416745D01*
X20926128Y46246593D01*
X21083697Y46102949D01*
X21083696Y46102949D01*
X21264977Y45990704D01*
X21264978Y45990703D01*
X21264981Y45990702D01*
X21463802Y45913679D01*
X21673390Y45874500D01*
X21673393Y45874500D01*
X21886607Y45874500D01*
X21886610Y45874500D01*
X22096198Y45913679D01*
X22295019Y45990702D01*
X22476302Y46102948D01*
X22633872Y46246593D01*
X22762366Y46416745D01*
X22857405Y46607611D01*
X22915756Y46812690D01*
X22915757Y46812698D01*
X22935429Y47024997D01*
X22935429Y47025004D01*
X23164571Y47025004D01*
X23164571Y47024997D01*
X23184242Y46812698D01*
X23184244Y46812687D01*
X23242596Y46607609D01*
X23337631Y46416750D01*
X23337632Y46416748D01*
X23337634Y46416745D01*
X23466128Y46246593D01*
X23623697Y46102949D01*
X23623696Y46102949D01*
X23804977Y45990704D01*
X23804978Y45990703D01*
X23804981Y45990702D01*
X24003802Y45913679D01*
X24213390Y45874500D01*
X24213393Y45874500D01*
X24426607Y45874500D01*
X24426610Y45874500D01*
X24636198Y45913679D01*
X24835019Y45990702D01*
X25016302Y46102948D01*
X25173872Y46246593D01*
X25302366Y46416745D01*
X25397405Y46607611D01*
X25455756Y46812690D01*
X25455757Y46812698D01*
X25473113Y47000004D01*
X34924571Y47000004D01*
X34924571Y46999997D01*
X34944242Y46787698D01*
X34944244Y46787687D01*
X34974870Y46680053D01*
X34995482Y46607609D01*
X35002596Y46582609D01*
X35097631Y46391750D01*
X35097632Y46391748D01*
X35097634Y46391745D01*
X35226128Y46221593D01*
X35383697Y46077949D01*
X35383696Y46077949D01*
X35564977Y45965704D01*
X35564978Y45965703D01*
X35564981Y45965702D01*
X35763802Y45888679D01*
X35973390Y45849500D01*
X35973393Y45849500D01*
X36186607Y45849500D01*
X36186610Y45849500D01*
X36396198Y45888679D01*
X36595019Y45965702D01*
X36776302Y46077948D01*
X36933872Y46221593D01*
X37062366Y46391745D01*
X37157405Y46582611D01*
X37215756Y46787690D01*
X37215757Y46787698D01*
X37235429Y46999997D01*
X37235429Y47000004D01*
X40004571Y47000004D01*
X40004571Y46999997D01*
X40024242Y46787698D01*
X40024244Y46787687D01*
X40054870Y46680053D01*
X40075482Y46607609D01*
X40082596Y46582609D01*
X40177631Y46391750D01*
X40177632Y46391748D01*
X40177634Y46391745D01*
X40306128Y46221593D01*
X40463697Y46077949D01*
X40463696Y46077949D01*
X40644977Y45965704D01*
X40644978Y45965703D01*
X40644981Y45965702D01*
X40843802Y45888679D01*
X41053390Y45849500D01*
X41053393Y45849500D01*
X41266607Y45849500D01*
X41266610Y45849500D01*
X41476198Y45888679D01*
X41675019Y45965702D01*
X41856302Y46077948D01*
X42013872Y46221593D01*
X42142366Y46391745D01*
X42237405Y46582611D01*
X42295756Y46787690D01*
X42295757Y46787698D01*
X42315429Y46999997D01*
X42315429Y47000004D01*
X42295757Y47212303D01*
X42295755Y47212314D01*
X42265448Y47318828D01*
X42237405Y47417389D01*
X42142366Y47608255D01*
X42013872Y47778407D01*
X41886126Y47894864D01*
X42549500Y47894864D01*
X42549500Y46105137D01*
X42552415Y46080008D01*
X42553325Y46077948D01*
X42597794Y45977235D01*
X42677235Y45897794D01*
X42780009Y45852415D01*
X42805135Y45849500D01*
X44594864Y45849501D01*
X44619991Y45852415D01*
X44722765Y45897794D01*
X44802206Y45977235D01*
X44847585Y46080009D01*
X44850500Y46105135D01*
X44850500Y46500005D01*
X53944709Y46500005D01*
X53944709Y46499996D01*
X53963850Y46220147D01*
X53963851Y46220144D01*
X53963851Y46220140D01*
X53963852Y46220138D01*
X54016725Y45965702D01*
X54020925Y45945490D01*
X54020928Y45945481D01*
X54114862Y45681173D01*
X54243918Y45432105D01*
X54405687Y45202931D01*
X54405694Y45202923D01*
X54597148Y44997925D01*
X54597156Y44997918D01*
X54647022Y44957349D01*
X54814754Y44820889D01*
X54814756Y44820888D01*
X55054424Y44675142D01*
X55054428Y44675140D01*
X55054432Y44675138D01*
X55311725Y44563380D01*
X55581839Y44487697D01*
X55859742Y44449500D01*
X55859743Y44449500D01*
X56140257Y44449500D01*
X56140258Y44449500D01*
X56258594Y44465765D01*
X59609500Y44465765D01*
X59609500Y44314236D01*
X59609501Y44314228D01*
X59648717Y44167869D01*
X59648718Y44167866D01*
X59724486Y44036634D01*
X59724489Y44036630D01*
X59831629Y43929490D01*
X59831633Y43929487D01*
X59831635Y43929485D01*
X59931593Y43871774D01*
X59962865Y43853719D01*
X59962868Y43853718D01*
X60052435Y43829719D01*
X60109234Y43814500D01*
X60109235Y43814500D01*
X60260765Y43814500D01*
X60260766Y43814500D01*
X60407135Y43853719D01*
X60538365Y43929485D01*
X60645515Y44036635D01*
X60721281Y44167865D01*
X60760500Y44314234D01*
X60760500Y44465766D01*
X60721281Y44612135D01*
X60645515Y44743365D01*
X60645513Y44743367D01*
X60645510Y44743371D01*
X60538370Y44850511D01*
X60538366Y44850514D01*
X60538365Y44850515D01*
X60452655Y44900000D01*
X60407134Y44926282D01*
X60407131Y44926283D01*
X60260772Y44965499D01*
X60260767Y44965500D01*
X60260766Y44965500D01*
X60109234Y44965500D01*
X60109233Y44965500D01*
X60109227Y44965499D01*
X59962868Y44926283D01*
X59962865Y44926282D01*
X59831633Y44850514D01*
X59831629Y44850511D01*
X59724489Y44743371D01*
X59724486Y44743367D01*
X59648718Y44612135D01*
X59648717Y44612132D01*
X59609501Y44465773D01*
X59609500Y44465765D01*
X56258594Y44465765D01*
X56418161Y44487697D01*
X56688275Y44563380D01*
X56945568Y44675138D01*
X57185246Y44820889D01*
X57402845Y44997919D01*
X57445852Y45043968D01*
X57594305Y45202923D01*
X57594312Y45202931D01*
X57619354Y45238407D01*
X57756081Y45432104D01*
X57885136Y45681170D01*
X57979075Y45945489D01*
X58036148Y46220138D01*
X58047887Y46391745D01*
X58055291Y46499996D01*
X58055291Y46500005D01*
X58036149Y46779854D01*
X58036148Y46779857D01*
X58036148Y46779862D01*
X57979075Y47054511D01*
X57885136Y47318830D01*
X57756081Y47567896D01*
X57709945Y47633255D01*
X57594312Y47797070D01*
X57594305Y47797078D01*
X57402851Y48002076D01*
X57402843Y48002083D01*
X57237842Y48136321D01*
X57185246Y48179111D01*
X57173924Y48185996D01*
X56945575Y48324859D01*
X56915228Y48338041D01*
X56688275Y48436620D01*
X56688273Y48436621D01*
X56688272Y48436621D01*
X56688270Y48436622D01*
X56418164Y48512303D01*
X56140261Y48550500D01*
X56140258Y48550500D01*
X55859742Y48550500D01*
X55859738Y48550500D01*
X55581835Y48512303D01*
X55311729Y48436622D01*
X55311727Y48436621D01*
X55054424Y48324859D01*
X54814756Y48179113D01*
X54597156Y48002083D01*
X54597148Y48002076D01*
X54405694Y47797078D01*
X54405687Y47797070D01*
X54243918Y47567896D01*
X54114862Y47318828D01*
X54020928Y47054520D01*
X54020925Y47054511D01*
X53963851Y46779857D01*
X53963850Y46779854D01*
X53944709Y46500005D01*
X44850500Y46500005D01*
X44850499Y47894864D01*
X44847585Y47919991D01*
X44802206Y48022765D01*
X44722765Y48102206D01*
X44619991Y48147585D01*
X44594865Y48150500D01*
X44594863Y48150500D01*
X42805136Y48150500D01*
X42780007Y48147585D01*
X42677233Y48102205D01*
X42597795Y48022767D01*
X42597794Y48022766D01*
X42597794Y48022765D01*
X42565445Y47949500D01*
X42552415Y47919990D01*
X42549500Y47894864D01*
X41886126Y47894864D01*
X41856302Y47922052D01*
X41856303Y47922052D01*
X41675022Y48034297D01*
X41675021Y48034298D01*
X41558703Y48079359D01*
X41476198Y48111321D01*
X41476195Y48111322D01*
X41476194Y48111322D01*
X41266614Y48150500D01*
X41266610Y48150500D01*
X41053390Y48150500D01*
X41053385Y48150500D01*
X40843805Y48111322D01*
X40644978Y48034298D01*
X40644977Y48034297D01*
X40463696Y47922052D01*
X40306126Y47778405D01*
X40306124Y47778403D01*
X40177634Y47608255D01*
X40177631Y47608251D01*
X40082596Y47417392D01*
X40024244Y47212314D01*
X40024242Y47212303D01*
X40004571Y47000004D01*
X37235429Y47000004D01*
X37215757Y47212303D01*
X37215755Y47212314D01*
X37185448Y47318828D01*
X37157405Y47417389D01*
X37062366Y47608255D01*
X36933872Y47778407D01*
X36776302Y47922052D01*
X36776303Y47922052D01*
X36595022Y48034297D01*
X36595021Y48034298D01*
X36478703Y48079359D01*
X36396198Y48111321D01*
X36396195Y48111322D01*
X36396194Y48111322D01*
X36186614Y48150500D01*
X36186610Y48150500D01*
X35973390Y48150500D01*
X35973385Y48150500D01*
X35763805Y48111322D01*
X35564978Y48034298D01*
X35564977Y48034297D01*
X35383696Y47922052D01*
X35226126Y47778405D01*
X35226124Y47778403D01*
X35097634Y47608255D01*
X35097631Y47608251D01*
X35002596Y47417392D01*
X34944244Y47212314D01*
X34944242Y47212303D01*
X34924571Y47000004D01*
X25473113Y47000004D01*
X25475429Y47024997D01*
X25475429Y47025004D01*
X25455757Y47237303D01*
X25455755Y47237314D01*
X25449480Y47259365D01*
X25397405Y47442389D01*
X25302366Y47633255D01*
X25173872Y47803407D01*
X25016302Y47947052D01*
X25016303Y47947052D01*
X24835022Y48059297D01*
X24835021Y48059298D01*
X24700728Y48111322D01*
X24636198Y48136321D01*
X24636195Y48136322D01*
X24636194Y48136322D01*
X24426614Y48175500D01*
X24426610Y48175500D01*
X24213390Y48175500D01*
X24213385Y48175500D01*
X24003805Y48136322D01*
X23804978Y48059298D01*
X23804977Y48059297D01*
X23623696Y47947052D01*
X23466126Y47803405D01*
X23466124Y47803403D01*
X23337634Y47633255D01*
X23337631Y47633251D01*
X23242596Y47442392D01*
X23184244Y47237314D01*
X23184242Y47237303D01*
X23164571Y47025004D01*
X22935429Y47025004D01*
X22915757Y47237303D01*
X22915755Y47237314D01*
X22909480Y47259365D01*
X22857405Y47442389D01*
X22762366Y47633255D01*
X22633872Y47803407D01*
X22476302Y47947052D01*
X22476303Y47947052D01*
X22295022Y48059297D01*
X22295021Y48059298D01*
X22160728Y48111322D01*
X22096198Y48136321D01*
X22096195Y48136322D01*
X22096194Y48136322D01*
X21886614Y48175500D01*
X21886610Y48175500D01*
X21673390Y48175500D01*
X21673385Y48175500D01*
X21463805Y48136322D01*
X21264978Y48059298D01*
X21264977Y48059297D01*
X21083696Y47947052D01*
X20926126Y47803405D01*
X20926124Y47803403D01*
X20797634Y47633255D01*
X20797631Y47633251D01*
X20702596Y47442392D01*
X20644244Y47237314D01*
X20644242Y47237303D01*
X20624571Y47025004D01*
X20395429Y47025004D01*
X20375757Y47237303D01*
X20375755Y47237314D01*
X20369480Y47259365D01*
X20317405Y47442389D01*
X20222366Y47633255D01*
X20093872Y47803407D01*
X19936302Y47947052D01*
X19936303Y47947052D01*
X19755022Y48059297D01*
X19755021Y48059298D01*
X19620728Y48111322D01*
X19556198Y48136321D01*
X19556195Y48136322D01*
X19556194Y48136322D01*
X19346614Y48175500D01*
X19346610Y48175500D01*
X19133390Y48175500D01*
X19133385Y48175500D01*
X18923805Y48136322D01*
X18724978Y48059298D01*
X18724977Y48059297D01*
X18543696Y47947052D01*
X18386126Y47803405D01*
X18386124Y47803403D01*
X18257634Y47633255D01*
X18257631Y47633251D01*
X18162596Y47442392D01*
X18104244Y47237314D01*
X18104242Y47237303D01*
X18084571Y47025004D01*
X12995823Y47025004D01*
X12982624Y47049698D01*
X12982620Y47049704D01*
X12978668Y47054520D01*
X12855094Y47205094D01*
X12699703Y47332621D01*
X12699697Y47332625D01*
X12522419Y47427381D01*
X12330051Y47485735D01*
X12229475Y47495641D01*
X12180135Y47500500D01*
X12180131Y47500500D01*
X11719869Y47500500D01*
X11569948Y47485735D01*
X11377580Y47427381D01*
X11200302Y47332625D01*
X11200296Y47332621D01*
X11044906Y47205094D01*
X10917379Y47049704D01*
X10917375Y47049698D01*
X10822619Y46872420D01*
X10764265Y46680052D01*
X10749500Y46530131D01*
X9650499Y46530131D01*
X9650499Y46530134D01*
X9635734Y46680053D01*
X9577381Y46872418D01*
X9509188Y47000000D01*
X9482624Y47049698D01*
X9482620Y47049704D01*
X9478668Y47054520D01*
X9355094Y47205094D01*
X9199703Y47332621D01*
X9199697Y47332625D01*
X9022419Y47427381D01*
X8830051Y47485735D01*
X8729475Y47495641D01*
X8680135Y47500500D01*
X8680131Y47500500D01*
X8219869Y47500500D01*
X8069948Y47485735D01*
X7877580Y47427381D01*
X7700302Y47332625D01*
X7700296Y47332621D01*
X7544906Y47205094D01*
X7417379Y47049704D01*
X7417375Y47049698D01*
X7322619Y46872420D01*
X7264265Y46680052D01*
X7249500Y46530131D01*
X500500Y46530131D01*
X500500Y50000005D01*
X944709Y50000005D01*
X944709Y49999996D01*
X963850Y49720147D01*
X963851Y49720144D01*
X963851Y49720140D01*
X963852Y49720138D01*
X1020925Y49445490D01*
X1020928Y49445481D01*
X1114862Y49181173D01*
X1243918Y48932105D01*
X1405687Y48702931D01*
X1405694Y48702923D01*
X1597148Y48497925D01*
X1597156Y48497918D01*
X1647022Y48457349D01*
X1814754Y48320889D01*
X1814756Y48320888D01*
X2054424Y48175142D01*
X2054428Y48175140D01*
X2054432Y48175138D01*
X2311725Y48063380D01*
X2581839Y47987697D01*
X2859742Y47949500D01*
X2859743Y47949500D01*
X3140257Y47949500D01*
X3140258Y47949500D01*
X3418161Y47987697D01*
X3688275Y48063380D01*
X3945568Y48175138D01*
X3946164Y48175500D01*
X4002499Y48209759D01*
X4185246Y48320889D01*
X4402845Y48497919D01*
X4498182Y48600000D01*
X29144867Y48600000D01*
X29163302Y48471776D01*
X29163303Y48471774D01*
X29217118Y48353937D01*
X29301951Y48256033D01*
X29410931Y48185996D01*
X29410933Y48185996D01*
X29410934Y48185995D01*
X29446678Y48175500D01*
X29531822Y48150500D01*
X29535225Y48149501D01*
X29535227Y48149500D01*
X29535228Y48149500D01*
X29664773Y48149500D01*
X29664773Y48149501D01*
X29789069Y48185996D01*
X29898049Y48256033D01*
X29982882Y48353937D01*
X30036697Y48471774D01*
X30055133Y48600000D01*
X30036697Y48728226D01*
X29982882Y48846063D01*
X29898049Y48943967D01*
X29898048Y48943968D01*
X29856081Y48970938D01*
X29789069Y49014004D01*
X29789067Y49014005D01*
X29789065Y49014006D01*
X29664774Y49050500D01*
X29664772Y49050500D01*
X29535228Y49050500D01*
X29535226Y49050500D01*
X29410934Y49014006D01*
X29301951Y48943968D01*
X29217118Y48846064D01*
X29217118Y48846063D01*
X29163302Y48728225D01*
X29144867Y48600000D01*
X4498182Y48600000D01*
X4594312Y48702931D01*
X4756081Y48932104D01*
X4885136Y49181170D01*
X4979075Y49445489D01*
X5036148Y49720138D01*
X5055291Y50000000D01*
X5053804Y50021746D01*
X5036149Y50279854D01*
X5036148Y50279857D01*
X5036148Y50279862D01*
X4979075Y50554511D01*
X4885136Y50818830D01*
X4756081Y51067896D01*
X4635828Y51238255D01*
X4594312Y51297070D01*
X4594305Y51297078D01*
X4402851Y51502076D01*
X4402843Y51502083D01*
X4374841Y51524864D01*
X17534500Y51524864D01*
X17534500Y49735137D01*
X17537415Y49710008D01*
X17538325Y49707948D01*
X17582794Y49607235D01*
X17662235Y49527794D01*
X17765009Y49482415D01*
X17790135Y49479500D01*
X19579864Y49479501D01*
X19604991Y49482415D01*
X19707765Y49527794D01*
X19787206Y49607235D01*
X19832585Y49710009D01*
X19835500Y49735135D01*
X19835499Y50630004D01*
X20069571Y50630004D01*
X20069571Y50629997D01*
X20089242Y50417698D01*
X20089244Y50417687D01*
X20147596Y50212609D01*
X20242631Y50021750D01*
X20242632Y50021748D01*
X20242634Y50021745D01*
X20371128Y49851593D01*
X20528697Y49707949D01*
X20528696Y49707949D01*
X20709977Y49595704D01*
X20709978Y49595703D01*
X20709981Y49595702D01*
X20908802Y49518679D01*
X21118390Y49479500D01*
X21118393Y49479500D01*
X21331607Y49479500D01*
X21331610Y49479500D01*
X21541198Y49518679D01*
X21740019Y49595702D01*
X21921302Y49707948D01*
X22078872Y49851593D01*
X22207366Y50021745D01*
X22302405Y50212611D01*
X22360756Y50417690D01*
X22380429Y50630000D01*
X22380429Y50630004D01*
X22609571Y50630004D01*
X22609571Y50629997D01*
X22629242Y50417698D01*
X22629244Y50417687D01*
X22687596Y50212609D01*
X22782631Y50021750D01*
X22782632Y50021748D01*
X22782634Y50021745D01*
X22911128Y49851593D01*
X23068697Y49707949D01*
X23068696Y49707949D01*
X23249977Y49595704D01*
X23249978Y49595703D01*
X23249981Y49595702D01*
X23448802Y49518679D01*
X23658390Y49479500D01*
X23658393Y49479500D01*
X23871607Y49479500D01*
X23871610Y49479500D01*
X24081198Y49518679D01*
X24280019Y49595702D01*
X24461302Y49707948D01*
X24618872Y49851593D01*
X24747366Y50021745D01*
X24842405Y50212611D01*
X24900756Y50417690D01*
X24920429Y50630000D01*
X24920429Y50630004D01*
X27689571Y50630004D01*
X27689571Y50629997D01*
X27709242Y50417698D01*
X27709244Y50417687D01*
X27767596Y50212609D01*
X27862631Y50021750D01*
X27862632Y50021748D01*
X27862634Y50021745D01*
X27991128Y49851593D01*
X28148697Y49707949D01*
X28148696Y49707949D01*
X28329977Y49595704D01*
X28329978Y49595703D01*
X28329981Y49595702D01*
X28528802Y49518679D01*
X28738390Y49479500D01*
X28738393Y49479500D01*
X28951607Y49479500D01*
X28951610Y49479500D01*
X29161198Y49518679D01*
X29360019Y49595702D01*
X29541302Y49707948D01*
X29698872Y49851593D01*
X29827366Y50021745D01*
X29922405Y50212611D01*
X29980756Y50417690D01*
X30000429Y50630000D01*
X30000429Y50630004D01*
X30229571Y50630004D01*
X30229571Y50629997D01*
X30249242Y50417698D01*
X30249244Y50417687D01*
X30307596Y50212609D01*
X30402631Y50021750D01*
X30402632Y50021748D01*
X30402634Y50021745D01*
X30531128Y49851593D01*
X30688697Y49707949D01*
X30688696Y49707949D01*
X30869977Y49595704D01*
X30869978Y49595703D01*
X30869981Y49595702D01*
X31068802Y49518679D01*
X31278390Y49479500D01*
X31278393Y49479500D01*
X31491607Y49479500D01*
X31491610Y49479500D01*
X31701198Y49518679D01*
X31900019Y49595702D01*
X32081302Y49707948D01*
X32238872Y49851593D01*
X32367366Y50021745D01*
X32462405Y50212611D01*
X32520756Y50417690D01*
X32540429Y50630000D01*
X32540429Y50630004D01*
X32769571Y50630004D01*
X32769571Y50629997D01*
X32789242Y50417698D01*
X32789244Y50417687D01*
X32847596Y50212609D01*
X32942631Y50021750D01*
X32942632Y50021748D01*
X32942634Y50021745D01*
X33071128Y49851593D01*
X33228697Y49707949D01*
X33228696Y49707949D01*
X33409977Y49595704D01*
X33409978Y49595703D01*
X33409981Y49595702D01*
X33608802Y49518679D01*
X33818390Y49479500D01*
X33818393Y49479500D01*
X34031607Y49479500D01*
X34031610Y49479500D01*
X34241198Y49518679D01*
X34440019Y49595702D01*
X34621302Y49707948D01*
X34778872Y49851593D01*
X34907366Y50021745D01*
X35002405Y50212611D01*
X35060756Y50417690D01*
X35080429Y50630000D01*
X35080429Y50630004D01*
X35309571Y50630004D01*
X35309571Y50629997D01*
X35329242Y50417698D01*
X35329244Y50417687D01*
X35387596Y50212609D01*
X35482631Y50021750D01*
X35482632Y50021748D01*
X35482634Y50021745D01*
X35611128Y49851593D01*
X35768697Y49707949D01*
X35768696Y49707949D01*
X35949977Y49595704D01*
X35949978Y49595703D01*
X35949981Y49595702D01*
X36148802Y49518679D01*
X36358390Y49479500D01*
X36358393Y49479500D01*
X36571607Y49479500D01*
X36571610Y49479500D01*
X36781198Y49518679D01*
X36980019Y49595702D01*
X37161302Y49707948D01*
X37318872Y49851593D01*
X37447366Y50021745D01*
X37542405Y50212611D01*
X37600756Y50417690D01*
X37620429Y50630000D01*
X37620429Y50630004D01*
X37849571Y50630004D01*
X37849571Y50629997D01*
X37869242Y50417698D01*
X37869244Y50417687D01*
X37927596Y50212609D01*
X38022631Y50021750D01*
X38022632Y50021748D01*
X38022634Y50021745D01*
X38151128Y49851593D01*
X38308697Y49707949D01*
X38308696Y49707949D01*
X38489977Y49595704D01*
X38489978Y49595703D01*
X38489981Y49595702D01*
X38688802Y49518679D01*
X38898390Y49479500D01*
X38898393Y49479500D01*
X39111607Y49479500D01*
X39111610Y49479500D01*
X39321198Y49518679D01*
X39520019Y49595702D01*
X39701302Y49707948D01*
X39858872Y49851593D01*
X39987366Y50021745D01*
X40082405Y50212611D01*
X40140756Y50417690D01*
X40160429Y50630000D01*
X40160429Y50630004D01*
X40389571Y50630004D01*
X40389571Y50629997D01*
X40409242Y50417698D01*
X40409244Y50417687D01*
X40467596Y50212609D01*
X40562631Y50021750D01*
X40562632Y50021748D01*
X40562634Y50021745D01*
X40691128Y49851593D01*
X40848697Y49707949D01*
X40848696Y49707949D01*
X41029977Y49595704D01*
X41029978Y49595703D01*
X41029981Y49595702D01*
X41228802Y49518679D01*
X41438390Y49479500D01*
X41438393Y49479500D01*
X41651607Y49479500D01*
X41651610Y49479500D01*
X41861198Y49518679D01*
X42060019Y49595702D01*
X42241302Y49707948D01*
X42398872Y49851593D01*
X42527366Y50021745D01*
X42622405Y50212611D01*
X42680756Y50417690D01*
X42700429Y50630000D01*
X42680756Y50842310D01*
X42622405Y51047389D01*
X42527366Y51238255D01*
X42398872Y51408407D01*
X42271126Y51524864D01*
X44454500Y51524864D01*
X44454500Y49735137D01*
X44457415Y49710008D01*
X44458325Y49707948D01*
X44502794Y49607235D01*
X44582235Y49527794D01*
X44685009Y49482415D01*
X44710135Y49479500D01*
X46499864Y49479501D01*
X46524991Y49482415D01*
X46627765Y49527794D01*
X46707206Y49607235D01*
X46752585Y49710009D01*
X46755500Y49735135D01*
X46755499Y50630004D01*
X46989571Y50630004D01*
X46989571Y50629997D01*
X47009242Y50417698D01*
X47009244Y50417687D01*
X47067596Y50212609D01*
X47162631Y50021750D01*
X47162632Y50021748D01*
X47162634Y50021745D01*
X47291128Y49851593D01*
X47448697Y49707949D01*
X47448696Y49707949D01*
X47629977Y49595704D01*
X47629978Y49595703D01*
X47629981Y49595702D01*
X47828802Y49518679D01*
X48038390Y49479500D01*
X48038393Y49479500D01*
X48251607Y49479500D01*
X48251610Y49479500D01*
X48461198Y49518679D01*
X48660019Y49595702D01*
X48841302Y49707948D01*
X48998872Y49851593D01*
X49127366Y50021745D01*
X49222405Y50212611D01*
X49280756Y50417690D01*
X49300429Y50630000D01*
X49300429Y50630004D01*
X49529571Y50630004D01*
X49529571Y50629997D01*
X49549242Y50417698D01*
X49549244Y50417687D01*
X49607596Y50212609D01*
X49702631Y50021750D01*
X49702632Y50021748D01*
X49702634Y50021745D01*
X49831128Y49851593D01*
X49988697Y49707949D01*
X49988696Y49707949D01*
X50169977Y49595704D01*
X50169978Y49595703D01*
X50169981Y49595702D01*
X50368802Y49518679D01*
X50578390Y49479500D01*
X50578393Y49479500D01*
X50791607Y49479500D01*
X50791610Y49479500D01*
X51001198Y49518679D01*
X51200019Y49595702D01*
X51381302Y49707948D01*
X51538872Y49851593D01*
X51667366Y50021745D01*
X51762405Y50212611D01*
X51820756Y50417690D01*
X51840429Y50630000D01*
X51840429Y50630004D01*
X52069571Y50630004D01*
X52069571Y50629997D01*
X52089242Y50417698D01*
X52089244Y50417687D01*
X52147596Y50212609D01*
X52242631Y50021750D01*
X52242632Y50021748D01*
X52242634Y50021745D01*
X52371128Y49851593D01*
X52528697Y49707949D01*
X52528696Y49707949D01*
X52709977Y49595704D01*
X52709978Y49595703D01*
X52709981Y49595702D01*
X52908802Y49518679D01*
X53118390Y49479500D01*
X53118393Y49479500D01*
X53331607Y49479500D01*
X53331610Y49479500D01*
X53541198Y49518679D01*
X53740019Y49595702D01*
X53921302Y49707948D01*
X54078872Y49851593D01*
X54207366Y50021745D01*
X54302405Y50212611D01*
X54360756Y50417690D01*
X54380429Y50630000D01*
X54380429Y50630004D01*
X54609571Y50630004D01*
X54609571Y50629997D01*
X54629242Y50417698D01*
X54629244Y50417687D01*
X54687596Y50212609D01*
X54782631Y50021750D01*
X54782632Y50021748D01*
X54782634Y50021745D01*
X54911128Y49851593D01*
X55068697Y49707949D01*
X55068696Y49707949D01*
X55249977Y49595704D01*
X55249978Y49595703D01*
X55249981Y49595702D01*
X55448802Y49518679D01*
X55658390Y49479500D01*
X55658393Y49479500D01*
X55871607Y49479500D01*
X55871610Y49479500D01*
X56081198Y49518679D01*
X56280019Y49595702D01*
X56461302Y49707948D01*
X56618872Y49851593D01*
X56747366Y50021745D01*
X56842405Y50212611D01*
X56900756Y50417690D01*
X56920429Y50630000D01*
X56920429Y50630004D01*
X57149571Y50630004D01*
X57149571Y50629997D01*
X57169242Y50417698D01*
X57169244Y50417687D01*
X57227596Y50212609D01*
X57322631Y50021750D01*
X57322632Y50021748D01*
X57322634Y50021745D01*
X57451128Y49851593D01*
X57608697Y49707949D01*
X57608696Y49707949D01*
X57789977Y49595704D01*
X57789978Y49595703D01*
X57789981Y49595702D01*
X57988802Y49518679D01*
X58198390Y49479500D01*
X58198393Y49479500D01*
X58411607Y49479500D01*
X58411610Y49479500D01*
X58621198Y49518679D01*
X58820019Y49595702D01*
X59001302Y49707948D01*
X59158872Y49851593D01*
X59287366Y50021745D01*
X59382405Y50212611D01*
X59440756Y50417690D01*
X59460429Y50630000D01*
X59460429Y50630004D01*
X59689571Y50630004D01*
X59689571Y50629997D01*
X59709242Y50417698D01*
X59709244Y50417687D01*
X59767596Y50212609D01*
X59862631Y50021750D01*
X59862632Y50021748D01*
X59862634Y50021745D01*
X59991128Y49851593D01*
X60148697Y49707949D01*
X60148696Y49707949D01*
X60329977Y49595704D01*
X60329978Y49595703D01*
X60329981Y49595702D01*
X60528802Y49518679D01*
X60738390Y49479500D01*
X60738393Y49479500D01*
X60951607Y49479500D01*
X60951610Y49479500D01*
X61161198Y49518679D01*
X61360019Y49595702D01*
X61541302Y49707948D01*
X61698872Y49851593D01*
X61827366Y50021745D01*
X61922405Y50212611D01*
X61980756Y50417690D01*
X62000429Y50630000D01*
X62000429Y50630004D01*
X62229571Y50630004D01*
X62229571Y50629997D01*
X62249242Y50417698D01*
X62249244Y50417687D01*
X62307596Y50212609D01*
X62402631Y50021750D01*
X62402632Y50021748D01*
X62402634Y50021745D01*
X62531128Y49851593D01*
X62688697Y49707949D01*
X62688696Y49707949D01*
X62869977Y49595704D01*
X62869978Y49595703D01*
X62869981Y49595702D01*
X63068802Y49518679D01*
X63278390Y49479500D01*
X63278393Y49479500D01*
X63491607Y49479500D01*
X63491610Y49479500D01*
X63701198Y49518679D01*
X63900019Y49595702D01*
X64081302Y49707948D01*
X64238872Y49851593D01*
X64367366Y50021745D01*
X64462405Y50212611D01*
X64520756Y50417690D01*
X64540429Y50630000D01*
X64520756Y50842310D01*
X64462405Y51047389D01*
X64367366Y51238255D01*
X64238872Y51408407D01*
X64081302Y51552052D01*
X64081303Y51552052D01*
X63900022Y51664297D01*
X63900021Y51664298D01*
X63783703Y51709359D01*
X63701198Y51741321D01*
X63701195Y51741322D01*
X63701194Y51741322D01*
X63491614Y51780500D01*
X63491610Y51780500D01*
X63278390Y51780500D01*
X63278385Y51780500D01*
X63068805Y51741322D01*
X62869978Y51664298D01*
X62869977Y51664297D01*
X62688696Y51552052D01*
X62531126Y51408405D01*
X62531124Y51408403D01*
X62402634Y51238255D01*
X62402631Y51238251D01*
X62307596Y51047392D01*
X62249244Y50842314D01*
X62249242Y50842303D01*
X62229571Y50630004D01*
X62000429Y50630004D01*
X61980756Y50842310D01*
X61922405Y51047389D01*
X61827366Y51238255D01*
X61698872Y51408407D01*
X61541302Y51552052D01*
X61541303Y51552052D01*
X61360022Y51664297D01*
X61360021Y51664298D01*
X61243703Y51709359D01*
X61161198Y51741321D01*
X61161195Y51741322D01*
X61161194Y51741322D01*
X60951614Y51780500D01*
X60951610Y51780500D01*
X60738390Y51780500D01*
X60738385Y51780500D01*
X60528805Y51741322D01*
X60329978Y51664298D01*
X60329977Y51664297D01*
X60148696Y51552052D01*
X59991126Y51408405D01*
X59991124Y51408403D01*
X59862634Y51238255D01*
X59862631Y51238251D01*
X59767596Y51047392D01*
X59709244Y50842314D01*
X59709242Y50842303D01*
X59689571Y50630004D01*
X59460429Y50630004D01*
X59440756Y50842310D01*
X59382405Y51047389D01*
X59287366Y51238255D01*
X59158872Y51408407D01*
X59001302Y51552052D01*
X59001303Y51552052D01*
X58820022Y51664297D01*
X58820021Y51664298D01*
X58703703Y51709359D01*
X58621198Y51741321D01*
X58621195Y51741322D01*
X58621194Y51741322D01*
X58411614Y51780500D01*
X58411610Y51780500D01*
X58198390Y51780500D01*
X58198385Y51780500D01*
X57988805Y51741322D01*
X57789978Y51664298D01*
X57789977Y51664297D01*
X57608696Y51552052D01*
X57451126Y51408405D01*
X57451124Y51408403D01*
X57322634Y51238255D01*
X57322631Y51238251D01*
X57227596Y51047392D01*
X57169244Y50842314D01*
X57169242Y50842303D01*
X57149571Y50630004D01*
X56920429Y50630004D01*
X56900756Y50842310D01*
X56842405Y51047389D01*
X56747366Y51238255D01*
X56618872Y51408407D01*
X56461302Y51552052D01*
X56461303Y51552052D01*
X56280022Y51664297D01*
X56280021Y51664298D01*
X56163703Y51709359D01*
X56081198Y51741321D01*
X56081195Y51741322D01*
X56081194Y51741322D01*
X55871614Y51780500D01*
X55871610Y51780500D01*
X55658390Y51780500D01*
X55658385Y51780500D01*
X55448805Y51741322D01*
X55249978Y51664298D01*
X55249977Y51664297D01*
X55068696Y51552052D01*
X54911126Y51408405D01*
X54911124Y51408403D01*
X54782634Y51238255D01*
X54782631Y51238251D01*
X54687596Y51047392D01*
X54629244Y50842314D01*
X54629242Y50842303D01*
X54609571Y50630004D01*
X54380429Y50630004D01*
X54360756Y50842310D01*
X54302405Y51047389D01*
X54207366Y51238255D01*
X54078872Y51408407D01*
X53921302Y51552052D01*
X53921303Y51552052D01*
X53740022Y51664297D01*
X53740021Y51664298D01*
X53623703Y51709359D01*
X53541198Y51741321D01*
X53541195Y51741322D01*
X53541194Y51741322D01*
X53331614Y51780500D01*
X53331610Y51780500D01*
X53118390Y51780500D01*
X53118385Y51780500D01*
X52908805Y51741322D01*
X52709978Y51664298D01*
X52709977Y51664297D01*
X52528696Y51552052D01*
X52371126Y51408405D01*
X52371124Y51408403D01*
X52242634Y51238255D01*
X52242631Y51238251D01*
X52147596Y51047392D01*
X52089244Y50842314D01*
X52089242Y50842303D01*
X52069571Y50630004D01*
X51840429Y50630004D01*
X51820756Y50842310D01*
X51762405Y51047389D01*
X51667366Y51238255D01*
X51538872Y51408407D01*
X51381302Y51552052D01*
X51381303Y51552052D01*
X51200022Y51664297D01*
X51200021Y51664298D01*
X51083703Y51709359D01*
X51001198Y51741321D01*
X51001195Y51741322D01*
X51001194Y51741322D01*
X50791614Y51780500D01*
X50791610Y51780500D01*
X50578390Y51780500D01*
X50578385Y51780500D01*
X50368805Y51741322D01*
X50169978Y51664298D01*
X50169977Y51664297D01*
X49988696Y51552052D01*
X49831126Y51408405D01*
X49831124Y51408403D01*
X49702634Y51238255D01*
X49702631Y51238251D01*
X49607596Y51047392D01*
X49549244Y50842314D01*
X49549242Y50842303D01*
X49529571Y50630004D01*
X49300429Y50630004D01*
X49280756Y50842310D01*
X49222405Y51047389D01*
X49127366Y51238255D01*
X48998872Y51408407D01*
X48841302Y51552052D01*
X48841303Y51552052D01*
X48660022Y51664297D01*
X48660021Y51664298D01*
X48543703Y51709359D01*
X48461198Y51741321D01*
X48461195Y51741322D01*
X48461194Y51741322D01*
X48251614Y51780500D01*
X48251610Y51780500D01*
X48038390Y51780500D01*
X48038385Y51780500D01*
X47828805Y51741322D01*
X47629978Y51664298D01*
X47629977Y51664297D01*
X47448696Y51552052D01*
X47291126Y51408405D01*
X47291124Y51408403D01*
X47162634Y51238255D01*
X47162631Y51238251D01*
X47067596Y51047392D01*
X47009244Y50842314D01*
X47009242Y50842303D01*
X46989571Y50630004D01*
X46755499Y50630004D01*
X46755499Y51524864D01*
X46752585Y51549991D01*
X46707206Y51652765D01*
X46627765Y51732206D01*
X46524991Y51777585D01*
X46499865Y51780500D01*
X46499863Y51780500D01*
X44710136Y51780500D01*
X44685007Y51777585D01*
X44582233Y51732205D01*
X44502795Y51652767D01*
X44457415Y51549990D01*
X44454500Y51524864D01*
X42271126Y51524864D01*
X42241302Y51552052D01*
X42241303Y51552052D01*
X42060022Y51664297D01*
X42060021Y51664298D01*
X41943703Y51709359D01*
X41861198Y51741321D01*
X41861195Y51741322D01*
X41861194Y51741322D01*
X41651614Y51780500D01*
X41651610Y51780500D01*
X41438390Y51780500D01*
X41438385Y51780500D01*
X41228805Y51741322D01*
X41029978Y51664298D01*
X41029977Y51664297D01*
X40848696Y51552052D01*
X40691126Y51408405D01*
X40691124Y51408403D01*
X40562634Y51238255D01*
X40562631Y51238251D01*
X40467596Y51047392D01*
X40409244Y50842314D01*
X40409242Y50842303D01*
X40389571Y50630004D01*
X40160429Y50630004D01*
X40140756Y50842310D01*
X40082405Y51047389D01*
X39987366Y51238255D01*
X39858872Y51408407D01*
X39701302Y51552052D01*
X39701303Y51552052D01*
X39520022Y51664297D01*
X39520021Y51664298D01*
X39403703Y51709359D01*
X39321198Y51741321D01*
X39321195Y51741322D01*
X39321194Y51741322D01*
X39111614Y51780500D01*
X39111610Y51780500D01*
X38898390Y51780500D01*
X38898385Y51780500D01*
X38688805Y51741322D01*
X38489978Y51664298D01*
X38489977Y51664297D01*
X38308696Y51552052D01*
X38151126Y51408405D01*
X38151124Y51408403D01*
X38022634Y51238255D01*
X38022631Y51238251D01*
X37927596Y51047392D01*
X37869244Y50842314D01*
X37869242Y50842303D01*
X37849571Y50630004D01*
X37620429Y50630004D01*
X37600756Y50842310D01*
X37542405Y51047389D01*
X37447366Y51238255D01*
X37318872Y51408407D01*
X37161302Y51552052D01*
X37161303Y51552052D01*
X36980022Y51664297D01*
X36980021Y51664298D01*
X36863703Y51709359D01*
X36781198Y51741321D01*
X36781195Y51741322D01*
X36781194Y51741322D01*
X36571614Y51780500D01*
X36571610Y51780500D01*
X36358390Y51780500D01*
X36358385Y51780500D01*
X36148805Y51741322D01*
X35949978Y51664298D01*
X35949977Y51664297D01*
X35768696Y51552052D01*
X35611126Y51408405D01*
X35611124Y51408403D01*
X35482634Y51238255D01*
X35482631Y51238251D01*
X35387596Y51047392D01*
X35329244Y50842314D01*
X35329242Y50842303D01*
X35309571Y50630004D01*
X35080429Y50630004D01*
X35060756Y50842310D01*
X35002405Y51047389D01*
X34907366Y51238255D01*
X34778872Y51408407D01*
X34621302Y51552052D01*
X34621303Y51552052D01*
X34440022Y51664297D01*
X34440021Y51664298D01*
X34323703Y51709359D01*
X34241198Y51741321D01*
X34241195Y51741322D01*
X34241194Y51741322D01*
X34031614Y51780500D01*
X34031610Y51780500D01*
X33818390Y51780500D01*
X33818385Y51780500D01*
X33608805Y51741322D01*
X33409978Y51664298D01*
X33409977Y51664297D01*
X33228696Y51552052D01*
X33071126Y51408405D01*
X33071124Y51408403D01*
X32942634Y51238255D01*
X32942631Y51238251D01*
X32847596Y51047392D01*
X32789244Y50842314D01*
X32789242Y50842303D01*
X32769571Y50630004D01*
X32540429Y50630004D01*
X32520756Y50842310D01*
X32462405Y51047389D01*
X32367366Y51238255D01*
X32238872Y51408407D01*
X32081302Y51552052D01*
X32081303Y51552052D01*
X31900022Y51664297D01*
X31900021Y51664298D01*
X31783703Y51709359D01*
X31701198Y51741321D01*
X31701195Y51741322D01*
X31701194Y51741322D01*
X31491614Y51780500D01*
X31491610Y51780500D01*
X31278390Y51780500D01*
X31278385Y51780500D01*
X31068805Y51741322D01*
X30869978Y51664298D01*
X30869977Y51664297D01*
X30688696Y51552052D01*
X30531126Y51408405D01*
X30531124Y51408403D01*
X30402634Y51238255D01*
X30402631Y51238251D01*
X30307596Y51047392D01*
X30249244Y50842314D01*
X30249242Y50842303D01*
X30229571Y50630004D01*
X30000429Y50630004D01*
X29980756Y50842310D01*
X29922405Y51047389D01*
X29827366Y51238255D01*
X29698872Y51408407D01*
X29541302Y51552052D01*
X29541303Y51552052D01*
X29360022Y51664297D01*
X29360021Y51664298D01*
X29243703Y51709359D01*
X29161198Y51741321D01*
X29161195Y51741322D01*
X29161194Y51741322D01*
X28951614Y51780500D01*
X28951610Y51780500D01*
X28738390Y51780500D01*
X28738385Y51780500D01*
X28528805Y51741322D01*
X28329978Y51664298D01*
X28329977Y51664297D01*
X28148696Y51552052D01*
X27991126Y51408405D01*
X27991124Y51408403D01*
X27862634Y51238255D01*
X27862631Y51238251D01*
X27767596Y51047392D01*
X27709244Y50842314D01*
X27709242Y50842303D01*
X27689571Y50630004D01*
X24920429Y50630004D01*
X24900756Y50842310D01*
X24842405Y51047389D01*
X24747366Y51238255D01*
X24618872Y51408407D01*
X24461302Y51552052D01*
X24461303Y51552052D01*
X24280022Y51664297D01*
X24280021Y51664298D01*
X24163703Y51709359D01*
X24081198Y51741321D01*
X24081195Y51741322D01*
X24081194Y51741322D01*
X23871614Y51780500D01*
X23871610Y51780500D01*
X23658390Y51780500D01*
X23658385Y51780500D01*
X23448805Y51741322D01*
X23249978Y51664298D01*
X23249977Y51664297D01*
X23068696Y51552052D01*
X22911126Y51408405D01*
X22911124Y51408403D01*
X22782634Y51238255D01*
X22782631Y51238251D01*
X22687596Y51047392D01*
X22629244Y50842314D01*
X22629242Y50842303D01*
X22609571Y50630004D01*
X22380429Y50630004D01*
X22360756Y50842310D01*
X22302405Y51047389D01*
X22207366Y51238255D01*
X22078872Y51408407D01*
X21921302Y51552052D01*
X21921303Y51552052D01*
X21740022Y51664297D01*
X21740021Y51664298D01*
X21623703Y51709359D01*
X21541198Y51741321D01*
X21541195Y51741322D01*
X21541194Y51741322D01*
X21331614Y51780500D01*
X21331610Y51780500D01*
X21118390Y51780500D01*
X21118385Y51780500D01*
X20908805Y51741322D01*
X20709978Y51664298D01*
X20709977Y51664297D01*
X20528696Y51552052D01*
X20371126Y51408405D01*
X20371124Y51408403D01*
X20242634Y51238255D01*
X20242631Y51238251D01*
X20147596Y51047392D01*
X20089244Y50842314D01*
X20089242Y50842303D01*
X20069571Y50630004D01*
X19835499Y50630004D01*
X19835499Y51524864D01*
X19832585Y51549991D01*
X19787206Y51652765D01*
X19707765Y51732206D01*
X19604991Y51777585D01*
X19579865Y51780500D01*
X19579863Y51780500D01*
X17790136Y51780500D01*
X17765007Y51777585D01*
X17662233Y51732205D01*
X17582795Y51652767D01*
X17537415Y51549990D01*
X17534500Y51524864D01*
X4374841Y51524864D01*
X4303110Y51583221D01*
X4185246Y51679111D01*
X4185243Y51679113D01*
X3945575Y51824859D01*
X3915228Y51838041D01*
X3688275Y51936620D01*
X3688273Y51936621D01*
X3688272Y51936621D01*
X3688270Y51936622D01*
X3418164Y52012303D01*
X3140261Y52050500D01*
X3140258Y52050500D01*
X2859742Y52050500D01*
X2859738Y52050500D01*
X2581835Y52012303D01*
X2311729Y51936622D01*
X2311727Y51936621D01*
X2054424Y51824859D01*
X1814756Y51679113D01*
X1597156Y51502083D01*
X1597148Y51502076D01*
X1405694Y51297078D01*
X1405687Y51297070D01*
X1243918Y51067896D01*
X1114862Y50818828D01*
X1020928Y50554520D01*
X1020925Y50554511D01*
X963851Y50279857D01*
X963850Y50279854D01*
X944709Y50000005D01*
X500500Y50000005D01*
X500500Y51896490D01*
X500893Y51903488D01*
X504626Y51936622D01*
X512235Y52004156D01*
X515349Y52017795D01*
X526793Y52050500D01*
X547643Y52110087D01*
X553709Y52122683D01*
X605731Y52205476D01*
X614450Y52216409D01*
X683591Y52285550D01*
X694524Y52294269D01*
X777317Y52346291D01*
X789913Y52352357D01*
X882209Y52384652D01*
X895844Y52387765D01*
X996512Y52399108D01*
X1003510Y52399500D01*
X1065892Y52399500D01*
X64834108Y52399500D01*
X64896490Y52399500D01*
X64903487Y52399108D01*
G37*
%TD.AperFunction*%
%TD*%
M02*
