%TF.GenerationSoftware,KiCad,Pcbnew,8.0.5*%
%TF.CreationDate,2024-10-03T19:56:58-04:00*%
%TF.ProjectId,EX-CSB1,45582d43-5342-4312-9e6b-696361645f70,rev?*%
%TF.SameCoordinates,Original*%
%TF.FileFunction,Legend,Top*%
%TF.FilePolarity,Positive*%
%FSLAX46Y46*%
G04 Gerber Fmt 4.6, Leading zero omitted, Abs format (unit mm)*
G04 Created by KiCad (PCBNEW 8.0.5) date 2024-10-03 19:56:58*
%MOMM*%
%LPD*%
G01*
G04 APERTURE LIST*
G04 Aperture macros list*
%AMRoundRect*
0 Rectangle with rounded corners*
0 $1 Rounding radius*
0 $2 $3 $4 $5 $6 $7 $8 $9 X,Y pos of 4 corners*
0 Add a 4 corners polygon primitive as box body*
4,1,4,$2,$3,$4,$5,$6,$7,$8,$9,$2,$3,0*
0 Add four circle primitives for the rounded corners*
1,1,$1+$1,$2,$3*
1,1,$1+$1,$4,$5*
1,1,$1+$1,$6,$7*
1,1,$1+$1,$8,$9*
0 Add four rect primitives between the rounded corners*
20,1,$1+$1,$2,$3,$4,$5,0*
20,1,$1+$1,$4,$5,$6,$7,0*
20,1,$1+$1,$6,$7,$8,$9,0*
20,1,$1+$1,$8,$9,$2,$3,0*%
%AMFreePoly0*
4,1,19,0.500000,-0.750000,0.000000,-0.750000,0.000000,-0.744911,-0.071157,-0.744911,-0.207708,-0.704816,-0.327430,-0.627875,-0.420627,-0.520320,-0.479746,-0.390866,-0.500000,-0.250000,-0.500000,0.250000,-0.479746,0.390866,-0.420627,0.520320,-0.327430,0.627875,-0.207708,0.704816,-0.071157,0.744911,0.000000,0.744911,0.000000,0.750000,0.500000,0.750000,0.500000,-0.750000,0.500000,-0.750000,
$1*%
%AMFreePoly1*
4,1,19,0.000000,0.744911,0.071157,0.744911,0.207708,0.704816,0.327430,0.627875,0.420627,0.520320,0.479746,0.390866,0.500000,0.250000,0.500000,-0.250000,0.479746,-0.390866,0.420627,-0.520320,0.327430,-0.627875,0.207708,-0.704816,0.071157,-0.744911,0.000000,-0.744911,0.000000,-0.750000,-0.500000,-0.750000,-0.500000,0.750000,0.000000,0.750000,0.000000,0.744911,0.000000,0.744911,
$1*%
G04 Aperture macros list end*
%ADD10C,0.100000*%
%ADD11C,0.150000*%
%ADD12C,0.120000*%
%ADD13C,0.000000*%
%ADD14R,1.350000X1.800000*%
%ADD15RoundRect,0.250000X0.475000X-0.250000X0.475000X0.250000X-0.475000X0.250000X-0.475000X-0.250000X0*%
%ADD16RoundRect,0.124000X-0.186000X-0.196000X0.186000X-0.196000X0.186000X0.196000X-0.186000X0.196000X0*%
%ADD17RoundRect,0.124138X-0.175862X-0.195862X0.175862X-0.195862X0.175862X0.195862X-0.175862X0.195862X0*%
%ADD18RoundRect,0.124000X0.186000X0.196000X-0.186000X0.196000X-0.186000X-0.196000X0.186000X-0.196000X0*%
%ADD19RoundRect,0.124000X0.196000X-0.186000X0.196000X0.186000X-0.196000X0.186000X-0.196000X-0.186000X0*%
%ADD20C,3.500000*%
%ADD21R,2.000000X0.640000*%
%ADD22RoundRect,0.124138X0.175862X0.195862X-0.175862X0.195862X-0.175862X-0.195862X0.175862X-0.195862X0*%
%ADD23C,0.600000*%
%ADD24RoundRect,0.720000X-1.080000X0.180000X-1.080000X-0.180000X1.080000X-0.180000X1.080000X0.180000X0*%
%ADD25FreePoly0,90.000000*%
%ADD26FreePoly1,90.000000*%
%ADD27RoundRect,0.250000X-0.250000X-0.475000X0.250000X-0.475000X0.250000X0.475000X-0.250000X0.475000X0*%
%ADD28R,1.700000X1.700000*%
%ADD29O,1.700000X1.700000*%
%ADD30RoundRect,0.218750X-0.218750X-0.256250X0.218750X-0.256250X0.218750X0.256250X-0.218750X0.256250X0*%
%ADD31RoundRect,0.250000X0.250000X0.475000X-0.250000X0.475000X-0.250000X-0.475000X0.250000X-0.475000X0*%
%ADD32RoundRect,0.124138X0.195862X-0.175862X0.195862X0.175862X-0.195862X0.175862X-0.195862X-0.175862X0*%
%ADD33RoundRect,0.124138X-0.195862X0.175862X-0.195862X-0.175862X0.195862X-0.175862X0.195862X0.175862X0*%
%ADD34RoundRect,0.250000X-0.550000X1.500000X-0.550000X-1.500000X0.550000X-1.500000X0.550000X1.500000X0*%
%ADD35C,0.650000*%
%ADD36RoundRect,0.150000X0.425000X-0.150000X0.425000X0.150000X-0.425000X0.150000X-0.425000X-0.150000X0*%
%ADD37RoundRect,0.075000X0.500000X-0.075000X0.500000X0.075000X-0.500000X0.075000X-0.500000X-0.075000X0*%
%ADD38O,2.100000X1.000000*%
%ADD39O,1.800000X1.000000*%
%ADD40RoundRect,0.250000X-0.325000X-0.650000X0.325000X-0.650000X0.325000X0.650000X-0.325000X0.650000X0*%
%ADD41RoundRect,0.150000X-0.150000X0.512500X-0.150000X-0.512500X0.150000X-0.512500X0.150000X0.512500X0*%
%ADD42RoundRect,0.250000X-0.475000X0.250000X-0.475000X-0.250000X0.475000X-0.250000X0.475000X0.250000X0*%
%ADD43R,0.650000X0.400000*%
%ADD44RoundRect,0.720000X0.180000X1.080000X-0.180000X1.080000X-0.180000X-1.080000X0.180000X-1.080000X0*%
%ADD45RoundRect,0.218750X-0.256250X0.218750X-0.256250X-0.218750X0.256250X-0.218750X0.256250X0.218750X0*%
%ADD46RoundRect,0.049200X-1.750800X1.180800X-1.750800X-1.180800X1.750800X-1.180800X1.750800X1.180800X0*%
%ADD47RoundRect,0.110000X-0.110000X0.677500X-0.110000X-0.677500X0.110000X-0.677500X0.110000X0.677500X0*%
%ADD48RoundRect,0.250000X1.000000X0.650000X-1.000000X0.650000X-1.000000X-0.650000X1.000000X-0.650000X0*%
%ADD49RoundRect,0.250000X-0.650000X0.325000X-0.650000X-0.325000X0.650000X-0.325000X0.650000X0.325000X0*%
%ADD50RoundRect,0.218750X0.218750X0.256250X-0.218750X0.256250X-0.218750X-0.256250X0.218750X-0.256250X0*%
%ADD51RoundRect,0.150000X0.825000X0.150000X-0.825000X0.150000X-0.825000X-0.150000X0.825000X-0.150000X0*%
%ADD52RoundRect,0.124000X-0.196000X0.186000X-0.196000X-0.186000X0.196000X-0.186000X0.196000X0.186000X0*%
%ADD53RoundRect,0.250000X-1.500000X-0.550000X1.500000X-0.550000X1.500000X0.550000X-1.500000X0.550000X0*%
%ADD54RoundRect,0.250000X-1.000000X-0.650000X1.000000X-0.650000X1.000000X0.650000X-1.000000X0.650000X0*%
%ADD55RoundRect,0.150000X-0.625000X0.150000X-0.625000X-0.150000X0.625000X-0.150000X0.625000X0.150000X0*%
%ADD56RoundRect,0.250000X-0.650000X0.350000X-0.650000X-0.350000X0.650000X-0.350000X0.650000X0.350000X0*%
%ADD57RoundRect,0.019500X-0.955500X-1.480500X0.955500X-1.480500X0.955500X1.480500X-0.955500X1.480500X0*%
%ADD58R,0.450000X0.600000*%
%ADD59R,1.500000X2.000000*%
%ADD60R,3.800000X2.000000*%
%ADD61R,3.500000X3.500000*%
%ADD62RoundRect,0.350000X-1.400000X-1.400000X1.400000X-1.400000X1.400000X1.400000X-1.400000X1.400000X0*%
%ADD63RoundRect,0.875000X-1.125000X-0.875000X1.125000X-0.875000X1.125000X0.875000X-1.125000X0.875000X0*%
%ADD64RoundRect,0.250000X0.550000X-1.500000X0.550000X1.500000X-0.550000X1.500000X-0.550000X-1.500000X0*%
%ADD65RoundRect,0.150000X-0.150000X0.825000X-0.150000X-0.825000X0.150000X-0.825000X0.150000X0.825000X0*%
%ADD66R,0.900000X1.500000*%
%ADD67R,1.500000X0.900000*%
%ADD68R,0.900000X0.900000*%
%ADD69RoundRect,0.150000X0.512500X0.150000X-0.512500X0.150000X-0.512500X-0.150000X0.512500X-0.150000X0*%
G04 APERTURE END LIST*
D10*
X24122190Y24343525D02*
X24122190Y25343525D01*
X24122190Y24867335D02*
X24693618Y24867335D01*
X24693618Y24343525D02*
X24693618Y25343525D01*
X25312666Y24343525D02*
X25217428Y24391144D01*
X25217428Y24391144D02*
X25169809Y24438764D01*
X25169809Y24438764D02*
X25122190Y24534002D01*
X25122190Y24534002D02*
X25122190Y24819716D01*
X25122190Y24819716D02*
X25169809Y24914954D01*
X25169809Y24914954D02*
X25217428Y24962573D01*
X25217428Y24962573D02*
X25312666Y25010192D01*
X25312666Y25010192D02*
X25455523Y25010192D01*
X25455523Y25010192D02*
X25550761Y24962573D01*
X25550761Y24962573D02*
X25598380Y24914954D01*
X25598380Y24914954D02*
X25645999Y24819716D01*
X25645999Y24819716D02*
X25645999Y24534002D01*
X25645999Y24534002D02*
X25598380Y24438764D01*
X25598380Y24438764D02*
X25550761Y24391144D01*
X25550761Y24391144D02*
X25455523Y24343525D01*
X25455523Y24343525D02*
X25312666Y24343525D01*
X25931714Y25010192D02*
X26312666Y25010192D01*
X26074571Y25343525D02*
X26074571Y24486383D01*
X26074571Y24486383D02*
X26122190Y24391144D01*
X26122190Y24391144D02*
X26217428Y24343525D01*
X26217428Y24343525D02*
X26312666Y24343525D01*
X22265047Y22781200D02*
X22407904Y22733581D01*
X22407904Y22733581D02*
X22645999Y22733581D01*
X22645999Y22733581D02*
X22741237Y22781200D01*
X22741237Y22781200D02*
X22788856Y22828820D01*
X22788856Y22828820D02*
X22836475Y22924058D01*
X22836475Y22924058D02*
X22836475Y23019296D01*
X22836475Y23019296D02*
X22788856Y23114534D01*
X22788856Y23114534D02*
X22741237Y23162153D01*
X22741237Y23162153D02*
X22645999Y23209772D01*
X22645999Y23209772D02*
X22455523Y23257391D01*
X22455523Y23257391D02*
X22360285Y23305010D01*
X22360285Y23305010D02*
X22312666Y23352629D01*
X22312666Y23352629D02*
X22265047Y23447867D01*
X22265047Y23447867D02*
X22265047Y23543105D01*
X22265047Y23543105D02*
X22312666Y23638343D01*
X22312666Y23638343D02*
X22360285Y23685962D01*
X22360285Y23685962D02*
X22455523Y23733581D01*
X22455523Y23733581D02*
X22693618Y23733581D01*
X22693618Y23733581D02*
X22836475Y23685962D01*
X23693618Y23400248D02*
X23693618Y22733581D01*
X23265047Y23400248D02*
X23265047Y22876439D01*
X23265047Y22876439D02*
X23312666Y22781200D01*
X23312666Y22781200D02*
X23407904Y22733581D01*
X23407904Y22733581D02*
X23550761Y22733581D01*
X23550761Y22733581D02*
X23645999Y22781200D01*
X23645999Y22781200D02*
X23693618Y22828820D01*
X24169809Y22733581D02*
X24169809Y23400248D01*
X24169809Y23209772D02*
X24217428Y23305010D01*
X24217428Y23305010D02*
X24265047Y23352629D01*
X24265047Y23352629D02*
X24360285Y23400248D01*
X24360285Y23400248D02*
X24455523Y23400248D01*
X24646000Y23400248D02*
X25026952Y23400248D01*
X24788857Y22733581D02*
X24788857Y23590724D01*
X24788857Y23590724D02*
X24836476Y23685962D01*
X24836476Y23685962D02*
X24931714Y23733581D01*
X24931714Y23733581D02*
X25026952Y23733581D01*
X25788857Y22733581D02*
X25788857Y23257391D01*
X25788857Y23257391D02*
X25741238Y23352629D01*
X25741238Y23352629D02*
X25646000Y23400248D01*
X25646000Y23400248D02*
X25455524Y23400248D01*
X25455524Y23400248D02*
X25360286Y23352629D01*
X25788857Y22781200D02*
X25693619Y22733581D01*
X25693619Y22733581D02*
X25455524Y22733581D01*
X25455524Y22733581D02*
X25360286Y22781200D01*
X25360286Y22781200D02*
X25312667Y22876439D01*
X25312667Y22876439D02*
X25312667Y22971677D01*
X25312667Y22971677D02*
X25360286Y23066915D01*
X25360286Y23066915D02*
X25455524Y23114534D01*
X25455524Y23114534D02*
X25693619Y23114534D01*
X25693619Y23114534D02*
X25788857Y23162153D01*
X26693619Y22781200D02*
X26598381Y22733581D01*
X26598381Y22733581D02*
X26407905Y22733581D01*
X26407905Y22733581D02*
X26312667Y22781200D01*
X26312667Y22781200D02*
X26265048Y22828820D01*
X26265048Y22828820D02*
X26217429Y22924058D01*
X26217429Y22924058D02*
X26217429Y23209772D01*
X26217429Y23209772D02*
X26265048Y23305010D01*
X26265048Y23305010D02*
X26312667Y23352629D01*
X26312667Y23352629D02*
X26407905Y23400248D01*
X26407905Y23400248D02*
X26598381Y23400248D01*
X26598381Y23400248D02*
X26693619Y23352629D01*
X27503143Y22781200D02*
X27407905Y22733581D01*
X27407905Y22733581D02*
X27217429Y22733581D01*
X27217429Y22733581D02*
X27122191Y22781200D01*
X27122191Y22781200D02*
X27074572Y22876439D01*
X27074572Y22876439D02*
X27074572Y23257391D01*
X27074572Y23257391D02*
X27122191Y23352629D01*
X27122191Y23352629D02*
X27217429Y23400248D01*
X27217429Y23400248D02*
X27407905Y23400248D01*
X27407905Y23400248D02*
X27503143Y23352629D01*
X27503143Y23352629D02*
X27550762Y23257391D01*
X27550762Y23257391D02*
X27550762Y23162153D01*
X27550762Y23162153D02*
X27074572Y23066915D01*
X27979334Y22828820D02*
X28026953Y22781200D01*
X28026953Y22781200D02*
X27979334Y22733581D01*
X27979334Y22733581D02*
X27931715Y22781200D01*
X27931715Y22781200D02*
X27979334Y22828820D01*
X27979334Y22828820D02*
X27979334Y22733581D01*
X27979334Y23114534D02*
X27931715Y23685962D01*
X27931715Y23685962D02*
X27979334Y23733581D01*
X27979334Y23733581D02*
X28026953Y23685962D01*
X28026953Y23685962D02*
X27979334Y23114534D01*
X27979334Y23114534D02*
X27979334Y23733581D01*
X33181666Y13386315D02*
X33943571Y13386315D01*
X33562618Y13005362D02*
X33562618Y13767267D01*
D11*
X16761904Y45297562D02*
X16666666Y45345181D01*
X16666666Y45345181D02*
X16523809Y45345181D01*
X16523809Y45345181D02*
X16380952Y45297562D01*
X16380952Y45297562D02*
X16285714Y45202324D01*
X16285714Y45202324D02*
X16238095Y45107086D01*
X16238095Y45107086D02*
X16190476Y44916610D01*
X16190476Y44916610D02*
X16190476Y44773753D01*
X16190476Y44773753D02*
X16238095Y44583277D01*
X16238095Y44583277D02*
X16285714Y44488039D01*
X16285714Y44488039D02*
X16380952Y44392800D01*
X16380952Y44392800D02*
X16523809Y44345181D01*
X16523809Y44345181D02*
X16619047Y44345181D01*
X16619047Y44345181D02*
X16761904Y44392800D01*
X16761904Y44392800D02*
X16809523Y44440420D01*
X16809523Y44440420D02*
X16809523Y44773753D01*
X16809523Y44773753D02*
X16619047Y44773753D01*
D10*
X28628884Y15058534D02*
X29390789Y15058534D01*
X29009836Y14677581D02*
X29009836Y15439486D01*
X38026017Y29376505D02*
X37645065Y29376505D01*
X37645065Y29376505D02*
X37606969Y28995553D01*
X37606969Y28995553D02*
X37645065Y29033648D01*
X37645065Y29033648D02*
X37721255Y29071743D01*
X37721255Y29071743D02*
X37911731Y29071743D01*
X37911731Y29071743D02*
X37987922Y29033648D01*
X37987922Y29033648D02*
X38026017Y28995553D01*
X38026017Y28995553D02*
X38064112Y28919362D01*
X38064112Y28919362D02*
X38064112Y28728886D01*
X38064112Y28728886D02*
X38026017Y28652696D01*
X38026017Y28652696D02*
X37987922Y28614600D01*
X37987922Y28614600D02*
X37911731Y28576505D01*
X37911731Y28576505D02*
X37721255Y28576505D01*
X37721255Y28576505D02*
X37645065Y28614600D01*
X37645065Y28614600D02*
X37606969Y28652696D01*
D11*
X38861904Y42397562D02*
X38766666Y42445181D01*
X38766666Y42445181D02*
X38623809Y42445181D01*
X38623809Y42445181D02*
X38480952Y42397562D01*
X38480952Y42397562D02*
X38385714Y42302324D01*
X38385714Y42302324D02*
X38338095Y42207086D01*
X38338095Y42207086D02*
X38290476Y42016610D01*
X38290476Y42016610D02*
X38290476Y41873753D01*
X38290476Y41873753D02*
X38338095Y41683277D01*
X38338095Y41683277D02*
X38385714Y41588039D01*
X38385714Y41588039D02*
X38480952Y41492800D01*
X38480952Y41492800D02*
X38623809Y41445181D01*
X38623809Y41445181D02*
X38719047Y41445181D01*
X38719047Y41445181D02*
X38861904Y41492800D01*
X38861904Y41492800D02*
X38909523Y41540420D01*
X38909523Y41540420D02*
X38909523Y41873753D01*
X38909523Y41873753D02*
X38719047Y41873753D01*
X13489160Y28830896D02*
X13965350Y28830896D01*
X13393922Y28545181D02*
X13727255Y29545181D01*
X13727255Y29545181D02*
X14060588Y28545181D01*
X18819048Y44926134D02*
X19580953Y44926134D01*
X19200000Y44545181D02*
X19200000Y45307086D01*
X7190476Y35745181D02*
X7190476Y36411848D01*
X7190476Y36745181D02*
X7142857Y36697562D01*
X7142857Y36697562D02*
X7190476Y36649943D01*
X7190476Y36649943D02*
X7238095Y36697562D01*
X7238095Y36697562D02*
X7190476Y36745181D01*
X7190476Y36745181D02*
X7190476Y36649943D01*
X7580951Y36758515D02*
X7619047Y36796610D01*
X7619047Y36796610D02*
X7695237Y36834705D01*
X7695237Y36834705D02*
X7885713Y36834705D01*
X7885713Y36834705D02*
X7961904Y36796610D01*
X7961904Y36796610D02*
X7999999Y36758515D01*
X7999999Y36758515D02*
X8038094Y36682324D01*
X8038094Y36682324D02*
X8038094Y36606134D01*
X8038094Y36606134D02*
X7999999Y36491848D01*
X7999999Y36491848D02*
X7542856Y36034705D01*
X7542856Y36034705D02*
X8038094Y36034705D01*
X8857142Y35792800D02*
X8761904Y35745181D01*
X8761904Y35745181D02*
X8571428Y35745181D01*
X8571428Y35745181D02*
X8476190Y35792800D01*
X8476190Y35792800D02*
X8428571Y35840420D01*
X8428571Y35840420D02*
X8380952Y35935658D01*
X8380952Y35935658D02*
X8380952Y36221372D01*
X8380952Y36221372D02*
X8428571Y36316610D01*
X8428571Y36316610D02*
X8476190Y36364229D01*
X8476190Y36364229D02*
X8571428Y36411848D01*
X8571428Y36411848D02*
X8761904Y36411848D01*
X8761904Y36411848D02*
X8857142Y36364229D01*
X20795238Y44392800D02*
X20890476Y44345181D01*
X20890476Y44345181D02*
X21080952Y44345181D01*
X21080952Y44345181D02*
X21176190Y44392800D01*
X21176190Y44392800D02*
X21223809Y44488039D01*
X21223809Y44488039D02*
X21223809Y44535658D01*
X21223809Y44535658D02*
X21176190Y44630896D01*
X21176190Y44630896D02*
X21080952Y44678515D01*
X21080952Y44678515D02*
X20938095Y44678515D01*
X20938095Y44678515D02*
X20842857Y44726134D01*
X20842857Y44726134D02*
X20795238Y44821372D01*
X20795238Y44821372D02*
X20795238Y44868991D01*
X20795238Y44868991D02*
X20842857Y44964229D01*
X20842857Y44964229D02*
X20938095Y45011848D01*
X20938095Y45011848D02*
X21080952Y45011848D01*
X21080952Y45011848D02*
X21176190Y44964229D01*
X22080952Y44392800D02*
X21985714Y44345181D01*
X21985714Y44345181D02*
X21795238Y44345181D01*
X21795238Y44345181D02*
X21700000Y44392800D01*
X21700000Y44392800D02*
X21652381Y44440420D01*
X21652381Y44440420D02*
X21604762Y44535658D01*
X21604762Y44535658D02*
X21604762Y44821372D01*
X21604762Y44821372D02*
X21652381Y44916610D01*
X21652381Y44916610D02*
X21700000Y44964229D01*
X21700000Y44964229D02*
X21795238Y45011848D01*
X21795238Y45011848D02*
X21985714Y45011848D01*
X21985714Y45011848D02*
X22080952Y44964229D01*
X22652381Y44345181D02*
X22557143Y44392800D01*
X22557143Y44392800D02*
X22509524Y44488039D01*
X22509524Y44488039D02*
X22509524Y45345181D01*
X23380952Y44392800D02*
X23476190Y44345181D01*
X23476190Y44345181D02*
X23666666Y44345181D01*
X23666666Y44345181D02*
X23761904Y44392800D01*
X23761904Y44392800D02*
X23809523Y44488039D01*
X23809523Y44488039D02*
X23809523Y44535658D01*
X23809523Y44535658D02*
X23761904Y44630896D01*
X23761904Y44630896D02*
X23666666Y44678515D01*
X23666666Y44678515D02*
X23523809Y44678515D01*
X23523809Y44678515D02*
X23428571Y44726134D01*
X23428571Y44726134D02*
X23380952Y44821372D01*
X23380952Y44821372D02*
X23380952Y44868991D01*
X23380952Y44868991D02*
X23428571Y44964229D01*
X23428571Y44964229D02*
X23523809Y45011848D01*
X23523809Y45011848D02*
X23666666Y45011848D01*
X23666666Y45011848D02*
X23761904Y44964229D01*
X24666666Y44345181D02*
X24666666Y45345181D01*
X24666666Y44392800D02*
X24571428Y44345181D01*
X24571428Y44345181D02*
X24380952Y44345181D01*
X24380952Y44345181D02*
X24285714Y44392800D01*
X24285714Y44392800D02*
X24238095Y44440420D01*
X24238095Y44440420D02*
X24190476Y44535658D01*
X24190476Y44535658D02*
X24190476Y44821372D01*
X24190476Y44821372D02*
X24238095Y44916610D01*
X24238095Y44916610D02*
X24285714Y44964229D01*
X24285714Y44964229D02*
X24380952Y45011848D01*
X24380952Y45011848D02*
X24571428Y45011848D01*
X24571428Y45011848D02*
X24666666Y44964229D01*
X25571428Y44345181D02*
X25571428Y44868991D01*
X25571428Y44868991D02*
X25523809Y44964229D01*
X25523809Y44964229D02*
X25428571Y45011848D01*
X25428571Y45011848D02*
X25238095Y45011848D01*
X25238095Y45011848D02*
X25142857Y44964229D01*
X25571428Y44392800D02*
X25476190Y44345181D01*
X25476190Y44345181D02*
X25238095Y44345181D01*
X25238095Y44345181D02*
X25142857Y44392800D01*
X25142857Y44392800D02*
X25095238Y44488039D01*
X25095238Y44488039D02*
X25095238Y44583277D01*
X25095238Y44583277D02*
X25142857Y44678515D01*
X25142857Y44678515D02*
X25238095Y44726134D01*
X25238095Y44726134D02*
X25476190Y44726134D01*
X25476190Y44726134D02*
X25571428Y44773753D01*
X10522493Y15564229D02*
X10474874Y15611848D01*
X10474874Y15611848D02*
X10379636Y15754705D01*
X10379636Y15754705D02*
X10332017Y15849943D01*
X10332017Y15849943D02*
X10284398Y15992800D01*
X10284398Y15992800D02*
X10236779Y16230896D01*
X10236779Y16230896D02*
X10236779Y16421372D01*
X10236779Y16421372D02*
X10284398Y16659467D01*
X10284398Y16659467D02*
X10332017Y16802324D01*
X10332017Y16802324D02*
X10379636Y16897562D01*
X10379636Y16897562D02*
X10474874Y17040420D01*
X10474874Y17040420D02*
X10522493Y17088039D01*
X10903446Y16611848D02*
X10903446Y15611848D01*
X10903446Y16564229D02*
X10998684Y16611848D01*
X10998684Y16611848D02*
X11189160Y16611848D01*
X11189160Y16611848D02*
X11284398Y16564229D01*
X11284398Y16564229D02*
X11332017Y16516610D01*
X11332017Y16516610D02*
X11379636Y16421372D01*
X11379636Y16421372D02*
X11379636Y16135658D01*
X11379636Y16135658D02*
X11332017Y16040420D01*
X11332017Y16040420D02*
X11284398Y15992800D01*
X11284398Y15992800D02*
X11189160Y15945181D01*
X11189160Y15945181D02*
X10998684Y15945181D01*
X10998684Y15945181D02*
X10903446Y15992800D01*
X11808208Y15945181D02*
X11808208Y16611848D01*
X11808208Y16421372D02*
X11855827Y16516610D01*
X11855827Y16516610D02*
X11903446Y16564229D01*
X11903446Y16564229D02*
X11998684Y16611848D01*
X11998684Y16611848D02*
X12093922Y16611848D01*
X12570113Y15945181D02*
X12474875Y15992800D01*
X12474875Y15992800D02*
X12427256Y16040420D01*
X12427256Y16040420D02*
X12379637Y16135658D01*
X12379637Y16135658D02*
X12379637Y16421372D01*
X12379637Y16421372D02*
X12427256Y16516610D01*
X12427256Y16516610D02*
X12474875Y16564229D01*
X12474875Y16564229D02*
X12570113Y16611848D01*
X12570113Y16611848D02*
X12712970Y16611848D01*
X12712970Y16611848D02*
X12808208Y16564229D01*
X12808208Y16564229D02*
X12855827Y16516610D01*
X12855827Y16516610D02*
X12903446Y16421372D01*
X12903446Y16421372D02*
X12903446Y16135658D01*
X12903446Y16135658D02*
X12855827Y16040420D01*
X12855827Y16040420D02*
X12808208Y15992800D01*
X12808208Y15992800D02*
X12712970Y15945181D01*
X12712970Y15945181D02*
X12570113Y15945181D01*
X13760589Y16611848D02*
X13760589Y15802324D01*
X13760589Y15802324D02*
X13712970Y15707086D01*
X13712970Y15707086D02*
X13665351Y15659467D01*
X13665351Y15659467D02*
X13570113Y15611848D01*
X13570113Y15611848D02*
X13427256Y15611848D01*
X13427256Y15611848D02*
X13332018Y15659467D01*
X13760589Y15992800D02*
X13665351Y15945181D01*
X13665351Y15945181D02*
X13474875Y15945181D01*
X13474875Y15945181D02*
X13379637Y15992800D01*
X13379637Y15992800D02*
X13332018Y16040420D01*
X13332018Y16040420D02*
X13284399Y16135658D01*
X13284399Y16135658D02*
X13284399Y16421372D01*
X13284399Y16421372D02*
X13332018Y16516610D01*
X13332018Y16516610D02*
X13379637Y16564229D01*
X13379637Y16564229D02*
X13474875Y16611848D01*
X13474875Y16611848D02*
X13665351Y16611848D01*
X13665351Y16611848D02*
X13760589Y16564229D01*
X14236780Y16040420D02*
X14284399Y15992800D01*
X14284399Y15992800D02*
X14236780Y15945181D01*
X14236780Y15945181D02*
X14189161Y15992800D01*
X14189161Y15992800D02*
X14236780Y16040420D01*
X14236780Y16040420D02*
X14236780Y15945181D01*
X14617732Y15564229D02*
X14665351Y15611848D01*
X14665351Y15611848D02*
X14760589Y15754705D01*
X14760589Y15754705D02*
X14808208Y15849943D01*
X14808208Y15849943D02*
X14855827Y15992800D01*
X14855827Y15992800D02*
X14903446Y16230896D01*
X14903446Y16230896D02*
X14903446Y16421372D01*
X14903446Y16421372D02*
X14855827Y16659467D01*
X14855827Y16659467D02*
X14808208Y16802324D01*
X14808208Y16802324D02*
X14760589Y16897562D01*
X14760589Y16897562D02*
X14665351Y17040420D01*
X14665351Y17040420D02*
X14617732Y17088039D01*
D10*
X39016674Y29376505D02*
X39511912Y29376505D01*
X39511912Y29376505D02*
X39245246Y29071743D01*
X39245246Y29071743D02*
X39359531Y29071743D01*
X39359531Y29071743D02*
X39435722Y29033648D01*
X39435722Y29033648D02*
X39473817Y28995553D01*
X39473817Y28995553D02*
X39511912Y28919362D01*
X39511912Y28919362D02*
X39511912Y28728886D01*
X39511912Y28728886D02*
X39473817Y28652696D01*
X39473817Y28652696D02*
X39435722Y28614600D01*
X39435722Y28614600D02*
X39359531Y28576505D01*
X39359531Y28576505D02*
X39130960Y28576505D01*
X39130960Y28576505D02*
X39054769Y28614600D01*
X39054769Y28614600D02*
X39016674Y28652696D01*
X39854770Y28652696D02*
X39892865Y28614600D01*
X39892865Y28614600D02*
X39854770Y28576505D01*
X39854770Y28576505D02*
X39816674Y28614600D01*
X39816674Y28614600D02*
X39854770Y28652696D01*
X39854770Y28652696D02*
X39854770Y28576505D01*
X40159531Y29376505D02*
X40654769Y29376505D01*
X40654769Y29376505D02*
X40388103Y29071743D01*
X40388103Y29071743D02*
X40502388Y29071743D01*
X40502388Y29071743D02*
X40578579Y29033648D01*
X40578579Y29033648D02*
X40616674Y28995553D01*
X40616674Y28995553D02*
X40654769Y28919362D01*
X40654769Y28919362D02*
X40654769Y28728886D01*
X40654769Y28728886D02*
X40616674Y28652696D01*
X40616674Y28652696D02*
X40578579Y28614600D01*
X40578579Y28614600D02*
X40502388Y28576505D01*
X40502388Y28576505D02*
X40273817Y28576505D01*
X40273817Y28576505D02*
X40197626Y28614600D01*
X40197626Y28614600D02*
X40159531Y28652696D01*
D11*
X6866666Y42468991D02*
X7009523Y42421372D01*
X7009523Y42421372D02*
X7057142Y42373753D01*
X7057142Y42373753D02*
X7104761Y42278515D01*
X7104761Y42278515D02*
X7104761Y42135658D01*
X7104761Y42135658D02*
X7057142Y42040420D01*
X7057142Y42040420D02*
X7009523Y41992800D01*
X7009523Y41992800D02*
X6914285Y41945181D01*
X6914285Y41945181D02*
X6533333Y41945181D01*
X6533333Y41945181D02*
X6533333Y42945181D01*
X6533333Y42945181D02*
X6866666Y42945181D01*
X6866666Y42945181D02*
X6961904Y42897562D01*
X6961904Y42897562D02*
X7009523Y42849943D01*
X7009523Y42849943D02*
X7057142Y42754705D01*
X7057142Y42754705D02*
X7057142Y42659467D01*
X7057142Y42659467D02*
X7009523Y42564229D01*
X7009523Y42564229D02*
X6961904Y42516610D01*
X6961904Y42516610D02*
X6866666Y42468991D01*
X6866666Y42468991D02*
X6533333Y42468991D01*
X7676190Y41945181D02*
X7580952Y41992800D01*
X7580952Y41992800D02*
X7533333Y42040420D01*
X7533333Y42040420D02*
X7485714Y42135658D01*
X7485714Y42135658D02*
X7485714Y42421372D01*
X7485714Y42421372D02*
X7533333Y42516610D01*
X7533333Y42516610D02*
X7580952Y42564229D01*
X7580952Y42564229D02*
X7676190Y42611848D01*
X7676190Y42611848D02*
X7819047Y42611848D01*
X7819047Y42611848D02*
X7914285Y42564229D01*
X7914285Y42564229D02*
X7961904Y42516610D01*
X7961904Y42516610D02*
X8009523Y42421372D01*
X8009523Y42421372D02*
X8009523Y42135658D01*
X8009523Y42135658D02*
X7961904Y42040420D01*
X7961904Y42040420D02*
X7914285Y41992800D01*
X7914285Y41992800D02*
X7819047Y41945181D01*
X7819047Y41945181D02*
X7676190Y41945181D01*
X8580952Y41945181D02*
X8485714Y41992800D01*
X8485714Y41992800D02*
X8438095Y42040420D01*
X8438095Y42040420D02*
X8390476Y42135658D01*
X8390476Y42135658D02*
X8390476Y42421372D01*
X8390476Y42421372D02*
X8438095Y42516610D01*
X8438095Y42516610D02*
X8485714Y42564229D01*
X8485714Y42564229D02*
X8580952Y42611848D01*
X8580952Y42611848D02*
X8723809Y42611848D01*
X8723809Y42611848D02*
X8819047Y42564229D01*
X8819047Y42564229D02*
X8866666Y42516610D01*
X8866666Y42516610D02*
X8914285Y42421372D01*
X8914285Y42421372D02*
X8914285Y42135658D01*
X8914285Y42135658D02*
X8866666Y42040420D01*
X8866666Y42040420D02*
X8819047Y41992800D01*
X8819047Y41992800D02*
X8723809Y41945181D01*
X8723809Y41945181D02*
X8580952Y41945181D01*
X9295238Y41992800D02*
X9390476Y41945181D01*
X9390476Y41945181D02*
X9580952Y41945181D01*
X9580952Y41945181D02*
X9676190Y41992800D01*
X9676190Y41992800D02*
X9723809Y42088039D01*
X9723809Y42088039D02*
X9723809Y42135658D01*
X9723809Y42135658D02*
X9676190Y42230896D01*
X9676190Y42230896D02*
X9580952Y42278515D01*
X9580952Y42278515D02*
X9438095Y42278515D01*
X9438095Y42278515D02*
X9342857Y42326134D01*
X9342857Y42326134D02*
X9295238Y42421372D01*
X9295238Y42421372D02*
X9295238Y42468991D01*
X9295238Y42468991D02*
X9342857Y42564229D01*
X9342857Y42564229D02*
X9438095Y42611848D01*
X9438095Y42611848D02*
X9580952Y42611848D01*
X9580952Y42611848D02*
X9676190Y42564229D01*
X10009524Y42611848D02*
X10390476Y42611848D01*
X10152381Y42945181D02*
X10152381Y42088039D01*
X10152381Y42088039D02*
X10200000Y41992800D01*
X10200000Y41992800D02*
X10295238Y41945181D01*
X10295238Y41945181D02*
X10390476Y41945181D01*
X11104762Y41992800D02*
X11009524Y41945181D01*
X11009524Y41945181D02*
X10819048Y41945181D01*
X10819048Y41945181D02*
X10723810Y41992800D01*
X10723810Y41992800D02*
X10676191Y42088039D01*
X10676191Y42088039D02*
X10676191Y42468991D01*
X10676191Y42468991D02*
X10723810Y42564229D01*
X10723810Y42564229D02*
X10819048Y42611848D01*
X10819048Y42611848D02*
X11009524Y42611848D01*
X11009524Y42611848D02*
X11104762Y42564229D01*
X11104762Y42564229D02*
X11152381Y42468991D01*
X11152381Y42468991D02*
X11152381Y42373753D01*
X11152381Y42373753D02*
X10676191Y42278515D01*
X11580953Y41945181D02*
X11580953Y42611848D01*
X11580953Y42421372D02*
X11628572Y42516610D01*
X11628572Y42516610D02*
X11676191Y42564229D01*
X11676191Y42564229D02*
X11771429Y42611848D01*
X11771429Y42611848D02*
X11866667Y42611848D01*
X12961906Y41945181D02*
X12961906Y42611848D01*
X12961906Y42945181D02*
X12914287Y42897562D01*
X12914287Y42897562D02*
X12961906Y42849943D01*
X12961906Y42849943D02*
X13009525Y42897562D01*
X13009525Y42897562D02*
X12961906Y42945181D01*
X12961906Y42945181D02*
X12961906Y42849943D01*
X13438096Y42611848D02*
X13438096Y41945181D01*
X13438096Y42516610D02*
X13485715Y42564229D01*
X13485715Y42564229D02*
X13580953Y42611848D01*
X13580953Y42611848D02*
X13723810Y42611848D01*
X13723810Y42611848D02*
X13819048Y42564229D01*
X13819048Y42564229D02*
X13866667Y42468991D01*
X13866667Y42468991D02*
X13866667Y41945181D01*
X40180952Y41592800D02*
X40276190Y41545181D01*
X40276190Y41545181D02*
X40466666Y41545181D01*
X40466666Y41545181D02*
X40561904Y41592800D01*
X40561904Y41592800D02*
X40609523Y41688039D01*
X40609523Y41688039D02*
X40609523Y41735658D01*
X40609523Y41735658D02*
X40561904Y41830896D01*
X40561904Y41830896D02*
X40466666Y41878515D01*
X40466666Y41878515D02*
X40323809Y41878515D01*
X40323809Y41878515D02*
X40228571Y41926134D01*
X40228571Y41926134D02*
X40180952Y42021372D01*
X40180952Y42021372D02*
X40180952Y42068991D01*
X40180952Y42068991D02*
X40228571Y42164229D01*
X40228571Y42164229D02*
X40323809Y42211848D01*
X40323809Y42211848D02*
X40466666Y42211848D01*
X40466666Y42211848D02*
X40561904Y42164229D01*
X41466666Y41545181D02*
X41466666Y42545181D01*
X41466666Y41592800D02*
X41371428Y41545181D01*
X41371428Y41545181D02*
X41180952Y41545181D01*
X41180952Y41545181D02*
X41085714Y41592800D01*
X41085714Y41592800D02*
X41038095Y41640420D01*
X41038095Y41640420D02*
X40990476Y41735658D01*
X40990476Y41735658D02*
X40990476Y42021372D01*
X40990476Y42021372D02*
X41038095Y42116610D01*
X41038095Y42116610D02*
X41085714Y42164229D01*
X41085714Y42164229D02*
X41180952Y42211848D01*
X41180952Y42211848D02*
X41371428Y42211848D01*
X41371428Y42211848D02*
X41466666Y42164229D01*
X42371428Y41545181D02*
X42371428Y42068991D01*
X42371428Y42068991D02*
X42323809Y42164229D01*
X42323809Y42164229D02*
X42228571Y42211848D01*
X42228571Y42211848D02*
X42038095Y42211848D01*
X42038095Y42211848D02*
X41942857Y42164229D01*
X42371428Y41592800D02*
X42276190Y41545181D01*
X42276190Y41545181D02*
X42038095Y41545181D01*
X42038095Y41545181D02*
X41942857Y41592800D01*
X41942857Y41592800D02*
X41895238Y41688039D01*
X41895238Y41688039D02*
X41895238Y41783277D01*
X41895238Y41783277D02*
X41942857Y41878515D01*
X41942857Y41878515D02*
X42038095Y41926134D01*
X42038095Y41926134D02*
X42276190Y41926134D01*
X42276190Y41926134D02*
X42371428Y41973753D01*
X43319048Y42126134D02*
X44080953Y42126134D01*
X43700000Y41745181D02*
X43700000Y42507086D01*
X10422493Y25564229D02*
X10374874Y25611848D01*
X10374874Y25611848D02*
X10279636Y25754705D01*
X10279636Y25754705D02*
X10232017Y25849943D01*
X10232017Y25849943D02*
X10184398Y25992800D01*
X10184398Y25992800D02*
X10136779Y26230896D01*
X10136779Y26230896D02*
X10136779Y26421372D01*
X10136779Y26421372D02*
X10184398Y26659467D01*
X10184398Y26659467D02*
X10232017Y26802324D01*
X10232017Y26802324D02*
X10279636Y26897562D01*
X10279636Y26897562D02*
X10374874Y27040420D01*
X10374874Y27040420D02*
X10422493Y27088039D01*
X10803446Y25945181D02*
X10803446Y26611848D01*
X10803446Y26516610D02*
X10851065Y26564229D01*
X10851065Y26564229D02*
X10946303Y26611848D01*
X10946303Y26611848D02*
X11089160Y26611848D01*
X11089160Y26611848D02*
X11184398Y26564229D01*
X11184398Y26564229D02*
X11232017Y26468991D01*
X11232017Y26468991D02*
X11232017Y25945181D01*
X11232017Y26468991D02*
X11279636Y26564229D01*
X11279636Y26564229D02*
X11374874Y26611848D01*
X11374874Y26611848D02*
X11517731Y26611848D01*
X11517731Y26611848D02*
X11612970Y26564229D01*
X11612970Y26564229D02*
X11660589Y26468991D01*
X11660589Y26468991D02*
X11660589Y25945181D01*
X12565350Y25945181D02*
X12565350Y26468991D01*
X12565350Y26468991D02*
X12517731Y26564229D01*
X12517731Y26564229D02*
X12422493Y26611848D01*
X12422493Y26611848D02*
X12232017Y26611848D01*
X12232017Y26611848D02*
X12136779Y26564229D01*
X12565350Y25992800D02*
X12470112Y25945181D01*
X12470112Y25945181D02*
X12232017Y25945181D01*
X12232017Y25945181D02*
X12136779Y25992800D01*
X12136779Y25992800D02*
X12089160Y26088039D01*
X12089160Y26088039D02*
X12089160Y26183277D01*
X12089160Y26183277D02*
X12136779Y26278515D01*
X12136779Y26278515D02*
X12232017Y26326134D01*
X12232017Y26326134D02*
X12470112Y26326134D01*
X12470112Y26326134D02*
X12565350Y26373753D01*
X13041541Y25945181D02*
X13041541Y26611848D01*
X13041541Y26945181D02*
X12993922Y26897562D01*
X12993922Y26897562D02*
X13041541Y26849943D01*
X13041541Y26849943D02*
X13089160Y26897562D01*
X13089160Y26897562D02*
X13041541Y26945181D01*
X13041541Y26945181D02*
X13041541Y26849943D01*
X13517731Y26611848D02*
X13517731Y25945181D01*
X13517731Y26516610D02*
X13565350Y26564229D01*
X13565350Y26564229D02*
X13660588Y26611848D01*
X13660588Y26611848D02*
X13803445Y26611848D01*
X13803445Y26611848D02*
X13898683Y26564229D01*
X13898683Y26564229D02*
X13946302Y26468991D01*
X13946302Y26468991D02*
X13946302Y25945181D01*
X14422493Y26040420D02*
X14470112Y25992800D01*
X14470112Y25992800D02*
X14422493Y25945181D01*
X14422493Y25945181D02*
X14374874Y25992800D01*
X14374874Y25992800D02*
X14422493Y26040420D01*
X14422493Y26040420D02*
X14422493Y25945181D01*
X14803445Y25564229D02*
X14851064Y25611848D01*
X14851064Y25611848D02*
X14946302Y25754705D01*
X14946302Y25754705D02*
X14993921Y25849943D01*
X14993921Y25849943D02*
X15041540Y25992800D01*
X15041540Y25992800D02*
X15089159Y26230896D01*
X15089159Y26230896D02*
X15089159Y26421372D01*
X15089159Y26421372D02*
X15041540Y26659467D01*
X15041540Y26659467D02*
X14993921Y26802324D01*
X14993921Y26802324D02*
X14946302Y26897562D01*
X14946302Y26897562D02*
X14851064Y27040420D01*
X14851064Y27040420D02*
X14803445Y27088039D01*
X13870112Y19068991D02*
X14012969Y19021372D01*
X14012969Y19021372D02*
X14060588Y18973753D01*
X14060588Y18973753D02*
X14108207Y18878515D01*
X14108207Y18878515D02*
X14108207Y18735658D01*
X14108207Y18735658D02*
X14060588Y18640420D01*
X14060588Y18640420D02*
X14012969Y18592800D01*
X14012969Y18592800D02*
X13917731Y18545181D01*
X13917731Y18545181D02*
X13536779Y18545181D01*
X13536779Y18545181D02*
X13536779Y19545181D01*
X13536779Y19545181D02*
X13870112Y19545181D01*
X13870112Y19545181D02*
X13965350Y19497562D01*
X13965350Y19497562D02*
X14012969Y19449943D01*
X14012969Y19449943D02*
X14060588Y19354705D01*
X14060588Y19354705D02*
X14060588Y19259467D01*
X14060588Y19259467D02*
X14012969Y19164229D01*
X14012969Y19164229D02*
X13965350Y19116610D01*
X13965350Y19116610D02*
X13870112Y19068991D01*
X13870112Y19068991D02*
X13536779Y19068991D01*
X31890476Y44745181D02*
X31890476Y45411848D01*
X31890476Y45745181D02*
X31842857Y45697562D01*
X31842857Y45697562D02*
X31890476Y45649943D01*
X31890476Y45649943D02*
X31938095Y45697562D01*
X31938095Y45697562D02*
X31890476Y45745181D01*
X31890476Y45745181D02*
X31890476Y45649943D01*
X32280951Y45758515D02*
X32319047Y45796610D01*
X32319047Y45796610D02*
X32395237Y45834705D01*
X32395237Y45834705D02*
X32585713Y45834705D01*
X32585713Y45834705D02*
X32661904Y45796610D01*
X32661904Y45796610D02*
X32699999Y45758515D01*
X32699999Y45758515D02*
X32738094Y45682324D01*
X32738094Y45682324D02*
X32738094Y45606134D01*
X32738094Y45606134D02*
X32699999Y45491848D01*
X32699999Y45491848D02*
X32242856Y45034705D01*
X32242856Y45034705D02*
X32738094Y45034705D01*
X33557142Y44792800D02*
X33461904Y44745181D01*
X33461904Y44745181D02*
X33271428Y44745181D01*
X33271428Y44745181D02*
X33176190Y44792800D01*
X33176190Y44792800D02*
X33128571Y44840420D01*
X33128571Y44840420D02*
X33080952Y44935658D01*
X33080952Y44935658D02*
X33080952Y45221372D01*
X33080952Y45221372D02*
X33128571Y45316610D01*
X33128571Y45316610D02*
X33176190Y45364229D01*
X33176190Y45364229D02*
X33271428Y45411848D01*
X33271428Y45411848D02*
X33461904Y45411848D01*
X33461904Y45411848D02*
X33557142Y45364229D01*
X35095238Y41592800D02*
X35190476Y41545181D01*
X35190476Y41545181D02*
X35380952Y41545181D01*
X35380952Y41545181D02*
X35476190Y41592800D01*
X35476190Y41592800D02*
X35523809Y41688039D01*
X35523809Y41688039D02*
X35523809Y41735658D01*
X35523809Y41735658D02*
X35476190Y41830896D01*
X35476190Y41830896D02*
X35380952Y41878515D01*
X35380952Y41878515D02*
X35238095Y41878515D01*
X35238095Y41878515D02*
X35142857Y41926134D01*
X35142857Y41926134D02*
X35095238Y42021372D01*
X35095238Y42021372D02*
X35095238Y42068991D01*
X35095238Y42068991D02*
X35142857Y42164229D01*
X35142857Y42164229D02*
X35238095Y42211848D01*
X35238095Y42211848D02*
X35380952Y42211848D01*
X35380952Y42211848D02*
X35476190Y42164229D01*
X36380952Y41592800D02*
X36285714Y41545181D01*
X36285714Y41545181D02*
X36095238Y41545181D01*
X36095238Y41545181D02*
X36000000Y41592800D01*
X36000000Y41592800D02*
X35952381Y41640420D01*
X35952381Y41640420D02*
X35904762Y41735658D01*
X35904762Y41735658D02*
X35904762Y42021372D01*
X35904762Y42021372D02*
X35952381Y42116610D01*
X35952381Y42116610D02*
X36000000Y42164229D01*
X36000000Y42164229D02*
X36095238Y42211848D01*
X36095238Y42211848D02*
X36285714Y42211848D01*
X36285714Y42211848D02*
X36380952Y42164229D01*
X36952381Y41545181D02*
X36857143Y41592800D01*
X36857143Y41592800D02*
X36809524Y41688039D01*
X36809524Y41688039D02*
X36809524Y42545181D01*
X13969047Y9445181D02*
X13426190Y9445181D01*
X13697618Y9445181D02*
X13697618Y10445181D01*
X13697618Y10445181D02*
X13607142Y10302324D01*
X13607142Y10302324D02*
X13516666Y10207086D01*
X13516666Y10207086D02*
X13426190Y10159467D01*
X14557142Y10445181D02*
X14647619Y10445181D01*
X14647619Y10445181D02*
X14738095Y10397562D01*
X14738095Y10397562D02*
X14783333Y10349943D01*
X14783333Y10349943D02*
X14828571Y10254705D01*
X14828571Y10254705D02*
X14873809Y10064229D01*
X14873809Y10064229D02*
X14873809Y9826134D01*
X14873809Y9826134D02*
X14828571Y9635658D01*
X14828571Y9635658D02*
X14783333Y9540420D01*
X14783333Y9540420D02*
X14738095Y9492800D01*
X14738095Y9492800D02*
X14647619Y9445181D01*
X14647619Y9445181D02*
X14557142Y9445181D01*
X14557142Y9445181D02*
X14466666Y9492800D01*
X14466666Y9492800D02*
X14421428Y9540420D01*
X14421428Y9540420D02*
X14376190Y9635658D01*
X14376190Y9635658D02*
X14330952Y9826134D01*
X14330952Y9826134D02*
X14330952Y10064229D01*
X14330952Y10064229D02*
X14376190Y10254705D01*
X14376190Y10254705D02*
X14421428Y10349943D01*
X14421428Y10349943D02*
X14466666Y10397562D01*
X14466666Y10397562D02*
X14557142Y10445181D01*
X15280952Y9826134D02*
X16004762Y9826134D01*
X16411904Y10349943D02*
X16457142Y10397562D01*
X16457142Y10397562D02*
X16547618Y10445181D01*
X16547618Y10445181D02*
X16773809Y10445181D01*
X16773809Y10445181D02*
X16864285Y10397562D01*
X16864285Y10397562D02*
X16909523Y10349943D01*
X16909523Y10349943D02*
X16954761Y10254705D01*
X16954761Y10254705D02*
X16954761Y10159467D01*
X16954761Y10159467D02*
X16909523Y10016610D01*
X16909523Y10016610D02*
X16366666Y9445181D01*
X16366666Y9445181D02*
X16954761Y9445181D01*
X17814285Y10445181D02*
X17361904Y10445181D01*
X17361904Y10445181D02*
X17316666Y9968991D01*
X17316666Y9968991D02*
X17361904Y10016610D01*
X17361904Y10016610D02*
X17452380Y10064229D01*
X17452380Y10064229D02*
X17678571Y10064229D01*
X17678571Y10064229D02*
X17769047Y10016610D01*
X17769047Y10016610D02*
X17814285Y9968991D01*
X17814285Y9968991D02*
X17859523Y9873753D01*
X17859523Y9873753D02*
X17859523Y9635658D01*
X17859523Y9635658D02*
X17814285Y9540420D01*
X17814285Y9540420D02*
X17769047Y9492800D01*
X17769047Y9492800D02*
X17678571Y9445181D01*
X17678571Y9445181D02*
X17452380Y9445181D01*
X17452380Y9445181D02*
X17361904Y9492800D01*
X17361904Y9492800D02*
X17316666Y9540420D01*
X18130952Y10445181D02*
X18447618Y9445181D01*
X18447618Y9445181D02*
X18764285Y10445181D01*
X19804762Y9968991D02*
X20528572Y9968991D01*
X20528572Y9683277D02*
X19804762Y9683277D01*
D10*
X2443884Y13351391D02*
X2777217Y13351391D01*
X2920074Y12827581D02*
X2443884Y12827581D01*
X2443884Y12827581D02*
X2443884Y13827581D01*
X2443884Y13827581D02*
X2920074Y13827581D01*
X3253408Y13827581D02*
X3920074Y12827581D01*
X3920074Y13827581D02*
X3253408Y12827581D01*
X4301027Y13208534D02*
X5062932Y13208534D01*
X6110550Y12922820D02*
X6062931Y12875200D01*
X6062931Y12875200D02*
X5920074Y12827581D01*
X5920074Y12827581D02*
X5824836Y12827581D01*
X5824836Y12827581D02*
X5681979Y12875200D01*
X5681979Y12875200D02*
X5586741Y12970439D01*
X5586741Y12970439D02*
X5539122Y13065677D01*
X5539122Y13065677D02*
X5491503Y13256153D01*
X5491503Y13256153D02*
X5491503Y13399010D01*
X5491503Y13399010D02*
X5539122Y13589486D01*
X5539122Y13589486D02*
X5586741Y13684724D01*
X5586741Y13684724D02*
X5681979Y13779962D01*
X5681979Y13779962D02*
X5824836Y13827581D01*
X5824836Y13827581D02*
X5920074Y13827581D01*
X5920074Y13827581D02*
X6062931Y13779962D01*
X6062931Y13779962D02*
X6110550Y13732343D01*
X6491503Y12875200D02*
X6634360Y12827581D01*
X6634360Y12827581D02*
X6872455Y12827581D01*
X6872455Y12827581D02*
X6967693Y12875200D01*
X6967693Y12875200D02*
X7015312Y12922820D01*
X7015312Y12922820D02*
X7062931Y13018058D01*
X7062931Y13018058D02*
X7062931Y13113296D01*
X7062931Y13113296D02*
X7015312Y13208534D01*
X7015312Y13208534D02*
X6967693Y13256153D01*
X6967693Y13256153D02*
X6872455Y13303772D01*
X6872455Y13303772D02*
X6681979Y13351391D01*
X6681979Y13351391D02*
X6586741Y13399010D01*
X6586741Y13399010D02*
X6539122Y13446629D01*
X6539122Y13446629D02*
X6491503Y13541867D01*
X6491503Y13541867D02*
X6491503Y13637105D01*
X6491503Y13637105D02*
X6539122Y13732343D01*
X6539122Y13732343D02*
X6586741Y13779962D01*
X6586741Y13779962D02*
X6681979Y13827581D01*
X6681979Y13827581D02*
X6920074Y13827581D01*
X6920074Y13827581D02*
X7062931Y13779962D01*
X7824836Y13351391D02*
X7967693Y13303772D01*
X7967693Y13303772D02*
X8015312Y13256153D01*
X8015312Y13256153D02*
X8062931Y13160915D01*
X8062931Y13160915D02*
X8062931Y13018058D01*
X8062931Y13018058D02*
X8015312Y12922820D01*
X8015312Y12922820D02*
X7967693Y12875200D01*
X7967693Y12875200D02*
X7872455Y12827581D01*
X7872455Y12827581D02*
X7491503Y12827581D01*
X7491503Y12827581D02*
X7491503Y13827581D01*
X7491503Y13827581D02*
X7824836Y13827581D01*
X7824836Y13827581D02*
X7920074Y13779962D01*
X7920074Y13779962D02*
X7967693Y13732343D01*
X7967693Y13732343D02*
X8015312Y13637105D01*
X8015312Y13637105D02*
X8015312Y13541867D01*
X8015312Y13541867D02*
X7967693Y13446629D01*
X7967693Y13446629D02*
X7920074Y13399010D01*
X7920074Y13399010D02*
X7824836Y13351391D01*
X7824836Y13351391D02*
X7491503Y13351391D01*
X9015312Y12827581D02*
X8443884Y12827581D01*
X8729598Y12827581D02*
X8729598Y13827581D01*
X8729598Y13827581D02*
X8634360Y13684724D01*
X8634360Y13684724D02*
X8539122Y13589486D01*
X8539122Y13589486D02*
X8443884Y13541867D01*
X10205789Y13351391D02*
X10539122Y13351391D01*
X10681979Y12827581D02*
X10205789Y12827581D01*
X10205789Y12827581D02*
X10205789Y13827581D01*
X10205789Y13827581D02*
X10681979Y13827581D01*
X11015313Y12827581D02*
X11539122Y13494248D01*
X11015313Y13494248D02*
X11539122Y12827581D01*
X11920075Y13494248D02*
X11920075Y12494248D01*
X11920075Y13446629D02*
X12015313Y13494248D01*
X12015313Y13494248D02*
X12205789Y13494248D01*
X12205789Y13494248D02*
X12301027Y13446629D01*
X12301027Y13446629D02*
X12348646Y13399010D01*
X12348646Y13399010D02*
X12396265Y13303772D01*
X12396265Y13303772D02*
X12396265Y13018058D01*
X12396265Y13018058D02*
X12348646Y12922820D01*
X12348646Y12922820D02*
X12301027Y12875200D01*
X12301027Y12875200D02*
X12205789Y12827581D01*
X12205789Y12827581D02*
X12015313Y12827581D01*
X12015313Y12827581D02*
X11920075Y12875200D01*
X12824837Y12827581D02*
X12824837Y13494248D01*
X12824837Y13303772D02*
X12872456Y13399010D01*
X12872456Y13399010D02*
X12920075Y13446629D01*
X12920075Y13446629D02*
X13015313Y13494248D01*
X13015313Y13494248D02*
X13110551Y13494248D01*
X13824837Y12875200D02*
X13729599Y12827581D01*
X13729599Y12827581D02*
X13539123Y12827581D01*
X13539123Y12827581D02*
X13443885Y12875200D01*
X13443885Y12875200D02*
X13396266Y12970439D01*
X13396266Y12970439D02*
X13396266Y13351391D01*
X13396266Y13351391D02*
X13443885Y13446629D01*
X13443885Y13446629D02*
X13539123Y13494248D01*
X13539123Y13494248D02*
X13729599Y13494248D01*
X13729599Y13494248D02*
X13824837Y13446629D01*
X13824837Y13446629D02*
X13872456Y13351391D01*
X13872456Y13351391D02*
X13872456Y13256153D01*
X13872456Y13256153D02*
X13396266Y13160915D01*
X14253409Y12875200D02*
X14348647Y12827581D01*
X14348647Y12827581D02*
X14539123Y12827581D01*
X14539123Y12827581D02*
X14634361Y12875200D01*
X14634361Y12875200D02*
X14681980Y12970439D01*
X14681980Y12970439D02*
X14681980Y13018058D01*
X14681980Y13018058D02*
X14634361Y13113296D01*
X14634361Y13113296D02*
X14539123Y13160915D01*
X14539123Y13160915D02*
X14396266Y13160915D01*
X14396266Y13160915D02*
X14301028Y13208534D01*
X14301028Y13208534D02*
X14253409Y13303772D01*
X14253409Y13303772D02*
X14253409Y13351391D01*
X14253409Y13351391D02*
X14301028Y13446629D01*
X14301028Y13446629D02*
X14396266Y13494248D01*
X14396266Y13494248D02*
X14539123Y13494248D01*
X14539123Y13494248D02*
X14634361Y13446629D01*
X15062933Y12875200D02*
X15158171Y12827581D01*
X15158171Y12827581D02*
X15348647Y12827581D01*
X15348647Y12827581D02*
X15443885Y12875200D01*
X15443885Y12875200D02*
X15491504Y12970439D01*
X15491504Y12970439D02*
X15491504Y13018058D01*
X15491504Y13018058D02*
X15443885Y13113296D01*
X15443885Y13113296D02*
X15348647Y13160915D01*
X15348647Y13160915D02*
X15205790Y13160915D01*
X15205790Y13160915D02*
X15110552Y13208534D01*
X15110552Y13208534D02*
X15062933Y13303772D01*
X15062933Y13303772D02*
X15062933Y13351391D01*
X15062933Y13351391D02*
X15110552Y13446629D01*
X15110552Y13446629D02*
X15205790Y13494248D01*
X15205790Y13494248D02*
X15348647Y13494248D01*
X15348647Y13494248D02*
X15443885Y13446629D01*
D12*
%TO.C,SW101*%
X60400000Y33000000D02*
X60400000Y32700000D01*
X60500000Y30325000D02*
X60500000Y30000000D01*
X60500000Y30000000D02*
X64500000Y30000000D01*
X64500000Y33000000D02*
X60400000Y33000000D01*
X64500000Y33000000D02*
X64500000Y32700000D01*
X64500000Y30000000D02*
X64500000Y30325000D01*
%TO.C,C115*%
X7064999Y38738747D02*
X7064999Y39261253D01*
X8534999Y38738747D02*
X8534999Y39261253D01*
%TO.C,C118*%
X43192164Y25860000D02*
X43407836Y25860000D01*
X43192164Y25140000D02*
X43407836Y25140000D01*
%TO.C,R121*%
X54246359Y39380000D02*
X54553641Y39380000D01*
X54246359Y38620000D02*
X54553641Y38620000D01*
%TO.C,C108*%
X18607836Y34560000D02*
X18392164Y34560000D01*
X18607836Y33840000D02*
X18392164Y33840000D01*
%TO.C,C204*%
X35655000Y14017164D02*
X35655000Y14232836D01*
X36375000Y14017164D02*
X36375000Y14232836D01*
%TO.C,U104*%
X38700000Y24700000D02*
X43500000Y24700000D01*
X38700000Y24550000D02*
X37000000Y24550000D01*
X38700000Y24550000D02*
X38700000Y24700000D01*
X38700000Y22050000D02*
X38700000Y23350000D01*
X38700000Y20700000D02*
X38700000Y20850000D01*
X43500000Y24700000D02*
X43500000Y24550000D01*
X43500000Y20850000D02*
X43500000Y20700000D01*
X43500000Y20700000D02*
X38700000Y20700000D01*
%TO.C,R116*%
X60653641Y26080003D02*
X60346359Y26080003D01*
X60653641Y25320003D02*
X60346359Y25320003D01*
%TO.C,J103*%
X500000Y14690000D02*
X8810000Y14690000D01*
X2700000Y23310000D02*
X2700000Y14690000D01*
X8810000Y23310000D02*
X500000Y23310000D01*
X8810000Y23310000D02*
X8810000Y21800000D01*
X8810000Y19700000D02*
X8810000Y18300000D01*
X8810000Y14690000D02*
X8810000Y16200000D01*
%TO.C,JP101*%
X27100000Y43300000D02*
X27100000Y44700000D01*
X27800000Y45400000D02*
X28400000Y45400000D01*
X28400000Y42600000D02*
X27800000Y42600000D01*
X29100000Y44700000D02*
X29100000Y43300000D01*
X27100000Y44700000D02*
G75*
G02*
X27800000Y45400000I700000J0D01*
G01*
X27800000Y42600000D02*
G75*
G02*
X27100000Y43300000I-1J699999D01*
G01*
X28400000Y45400000D02*
G75*
G02*
X29100000Y44700000I0J-700000D01*
G01*
X29100000Y43300000D02*
G75*
G02*
X28400000Y42600000I-699999J-1D01*
G01*
%TO.C,C114*%
X47338747Y48235000D02*
X47861253Y48235000D01*
X47338747Y46765000D02*
X47861253Y46765000D01*
%TO.C,C101*%
X63238748Y26734997D02*
X63761252Y26734997D01*
X63238748Y25264997D02*
X63761252Y25264997D01*
%TO.C,C110*%
X19007836Y21360000D02*
X18792164Y21360000D01*
X19007836Y20640000D02*
X18792164Y20640000D01*
%TO.C,J108*%
X26495000Y3700000D02*
X27825000Y3700000D01*
X26495000Y2370000D02*
X26495000Y3700000D01*
X29095000Y3700000D02*
X46935000Y3700000D01*
X29095000Y1040000D02*
X29095000Y3700000D01*
X29095000Y1040000D02*
X46935000Y1040000D01*
X46935000Y1040000D02*
X46935000Y3700000D01*
%TO.C,C209*%
X38092164Y7260000D02*
X38307836Y7260000D01*
X38092164Y6540000D02*
X38307836Y6540000D01*
%TO.C,D104*%
X10102500Y18935001D02*
X10102500Y17465001D01*
X10102500Y17465001D02*
X12387500Y17465001D01*
X12387500Y18935001D02*
X10102500Y18935001D01*
%TO.C,R119*%
X61053641Y35480000D02*
X60746359Y35480000D01*
X61053641Y34720000D02*
X60746359Y34720000D01*
%TO.C,R202*%
X38353641Y8180000D02*
X38046359Y8180000D01*
X38353641Y7420000D02*
X38046359Y7420000D01*
%TO.C,C207*%
X42361253Y12335000D02*
X41838749Y12335000D01*
X42361253Y10865000D02*
X41838749Y10865000D01*
%TO.C,R201*%
X17620000Y12546359D02*
X17620000Y12853641D01*
X18380000Y12546359D02*
X18380000Y12853641D01*
%TO.C,R205*%
X40420000Y26353641D02*
X40420000Y26046359D01*
X41180000Y26353641D02*
X41180000Y26046359D01*
%TO.C,C203*%
X26590000Y12345563D02*
X26590000Y6590000D01*
X26590000Y6590000D02*
X28940000Y6590000D01*
X27654437Y13410000D02*
X26590000Y12345563D01*
X27654437Y13410000D02*
X28940000Y13410000D01*
X32345563Y13410000D02*
X31060000Y13410000D01*
X32345563Y13410000D02*
X33410000Y12345563D01*
X33410000Y12345563D02*
X33410000Y6590000D01*
X33410000Y6590000D02*
X31060000Y6590000D01*
%TO.C,C111*%
X19007836Y35660000D02*
X18792164Y35660000D01*
X19007836Y34940000D02*
X18792164Y34940000D01*
%TO.C,R203*%
X36320000Y7246359D02*
X36320000Y7553641D01*
X37080000Y7246359D02*
X37080000Y7553641D01*
%TO.C,C107*%
X18607836Y20260000D02*
X18392164Y20260000D01*
X18607836Y19540000D02*
X18392164Y19540000D01*
%TO.C,J114*%
X62690000Y46170000D02*
X60990000Y46170000D01*
X62690000Y36830000D02*
X60990000Y36830000D01*
%TO.C,R109*%
X30746359Y28480000D02*
X31053641Y28480000D01*
X30746359Y27720000D02*
X31053641Y27720000D01*
%TO.C,R111*%
X29720000Y39653641D02*
X29720000Y39346359D01*
X30480000Y39653641D02*
X30480000Y39346359D01*
%TO.C,J107*%
X17355000Y51960000D02*
X18685000Y51960000D01*
X17355000Y50630000D02*
X17355000Y51960000D01*
X19955000Y51960000D02*
X42875000Y51960000D01*
X19955000Y49300000D02*
X19955000Y51960000D01*
X19955000Y49300000D02*
X42875000Y49300000D01*
X42875000Y49300000D02*
X42875000Y51960000D01*
%TO.C,C105*%
X21188748Y33910000D02*
X22611252Y33910000D01*
X21188748Y32090000D02*
X22611252Y32090000D01*
%TO.C,U201*%
X37040000Y10500000D02*
X37040000Y11300000D01*
X37040000Y10500000D02*
X37040000Y9700000D01*
X40160000Y10500000D02*
X40160000Y12300000D01*
X40160000Y10500000D02*
X40160000Y9700000D01*
%TO.C,C211*%
X28765000Y33961252D02*
X28765000Y33438748D01*
X30235000Y33961252D02*
X30235000Y33438748D01*
%TO.C,Q101*%
X50100000Y32040000D02*
X52000000Y32040000D01*
X51500000Y34360000D02*
X50100000Y34360000D01*
%TO.C,J110*%
X5890000Y52400000D02*
X5890000Y44090000D01*
X5890000Y44090000D02*
X7400000Y44090000D01*
X10900000Y44090000D02*
X9500000Y44090000D01*
X14510000Y50200000D02*
X5890000Y50200000D01*
X14510000Y44090000D02*
X13000000Y44090000D01*
X14510000Y44090000D02*
X14510000Y52400000D01*
%TO.C,D205*%
X38765000Y27985000D02*
X38765000Y25700000D01*
X40235000Y27985000D02*
X38765000Y27985000D01*
X40235000Y25700000D02*
X40235000Y27985000D01*
%TO.C,R103*%
X60653641Y28380000D02*
X60346359Y28380000D01*
X60653641Y27620000D02*
X60346359Y27620000D01*
%TO.C,R106*%
X17153641Y31480000D02*
X16846359Y31480000D01*
X17153641Y30720000D02*
X16846359Y30720000D01*
%TO.C,C210*%
X34361252Y28835000D02*
X33838748Y28835000D01*
X34361252Y27365000D02*
X33838748Y27365000D01*
%TO.C,U101*%
X15240000Y25500000D02*
X15240000Y27700000D01*
X15240000Y25500000D02*
X15240000Y23300000D01*
X20760000Y25500000D02*
X20760000Y29150000D01*
X20760000Y25500000D02*
X20760000Y23300000D01*
%TO.C,R117*%
X60653641Y27080000D02*
X60346359Y27080000D01*
X60653641Y26320000D02*
X60346359Y26320000D01*
%TO.C,D106*%
X35510000Y26750000D02*
X30000000Y26750000D01*
X35510000Y23450000D02*
X30000000Y23450000D01*
X35510000Y23450000D02*
X35510000Y26750000D01*
%TO.C,R118*%
X60746359Y48280000D02*
X61053641Y48280000D01*
X60746359Y47520000D02*
X61053641Y47520000D01*
%TO.C,C205*%
X33890001Y11211252D02*
X33890001Y9788748D01*
X35710001Y11211252D02*
X35710001Y9788748D01*
%TO.C,D202*%
X37165000Y27985000D02*
X37165000Y25700000D01*
X38635000Y27985000D02*
X37165000Y27985000D01*
X38635000Y25700000D02*
X38635000Y27985000D01*
%TO.C,D105*%
X45815000Y30635000D02*
X45815000Y29165000D01*
X45815000Y29165000D02*
X48100000Y29165000D01*
X48100000Y30635000D02*
X45815000Y30635000D01*
%TO.C,R101*%
X11146359Y31480000D02*
X11453641Y31480000D01*
X11146359Y30720000D02*
X11453641Y30720000D01*
%TO.C,J106*%
X34750000Y48330000D02*
X34750000Y43130000D01*
X42430000Y48330000D02*
X34750000Y48330000D01*
X42430000Y48330000D02*
X42430000Y45730000D01*
X42430000Y45730000D02*
X45030000Y45730000D01*
X43700000Y48330000D02*
X45030000Y48330000D01*
X45030000Y48330000D02*
X45030000Y47000000D01*
X45030000Y45730000D02*
X45030000Y43130000D01*
X45030000Y43130000D02*
X34750000Y43130000D01*
%TO.C,D103*%
X10787500Y19064999D02*
X13072500Y19064999D01*
X13072500Y20534999D02*
X10787500Y20534999D01*
X13072500Y19064999D02*
X13072500Y20534999D01*
%TO.C,R204*%
X36185001Y26348641D02*
X36185001Y26041359D01*
X36945001Y26348641D02*
X36945001Y26041359D01*
%TO.C,J101*%
X500000Y24690000D02*
X8810000Y24690000D01*
X2700000Y33310000D02*
X2700000Y24690000D01*
X8810000Y33310000D02*
X500000Y33310000D01*
X8810000Y33310000D02*
X8810000Y31800000D01*
X8810000Y29700000D02*
X8810000Y28300000D01*
X8810000Y24690000D02*
X8810000Y26200000D01*
%TO.C,C117*%
X34761252Y6135000D02*
X34238748Y6135000D01*
X34761252Y4665000D02*
X34238748Y4665000D01*
%TO.C,U106*%
X49400000Y45960000D02*
X47450000Y45960000D01*
X49400000Y45960000D02*
X51350000Y45960000D01*
X49400000Y35840000D02*
X47450000Y35840000D01*
X49400000Y35840000D02*
X52850000Y35840000D01*
%TO.C,C103*%
X16490000Y17411252D02*
X16490000Y15988748D01*
X18310000Y17411252D02*
X18310000Y15988748D01*
%TO.C,C113*%
X28740000Y39607836D02*
X28740000Y39392164D01*
X29460000Y39607836D02*
X29460000Y39392164D01*
%TO.C,J113*%
X44275000Y51960000D02*
X45605000Y51960000D01*
X44275000Y50630000D02*
X44275000Y51960000D01*
X46875000Y51960000D02*
X64715000Y51960000D01*
X46875000Y49300000D02*
X46875000Y51960000D01*
X46875000Y49300000D02*
X64715000Y49300000D01*
X64715000Y49300000D02*
X64715000Y51960000D01*
%TO.C,D101*%
X10115000Y28935001D02*
X10115000Y27465001D01*
X10115000Y27465001D02*
X12400000Y27465001D01*
X12400000Y28935001D02*
X10115000Y28935001D01*
%TO.C,R120*%
X54246359Y38080000D02*
X54553641Y38080000D01*
X54246359Y37320000D02*
X54553641Y37320000D01*
D13*
%TO.C,REF\u002A\u002A*%
G36*
X25496315Y26710499D02*
G01*
X25553060Y26670771D01*
X25598051Y26616943D01*
X25627528Y26553176D01*
X25637731Y26483634D01*
X25631331Y26433508D01*
X25606729Y26374165D01*
X25566831Y26317663D01*
X25519269Y26273691D01*
X25493807Y26258888D01*
X25439984Y26244651D01*
X25378256Y26242733D01*
X25322027Y26253142D01*
X25307971Y26258795D01*
X25249101Y26301189D01*
X25203650Y26362365D01*
X25175775Y26435325D01*
X25168906Y26492972D01*
X25180629Y26564573D01*
X25213658Y26629932D01*
X25263602Y26683652D01*
X25326070Y26720338D01*
X25362604Y26731001D01*
X25431576Y26731963D01*
X25496315Y26710499D01*
G37*
G36*
X25515124Y29118428D02*
G01*
X25580240Y29084807D01*
X25631320Y29035609D01*
X25651423Y29002501D01*
X25656506Y28989268D01*
X25660183Y28971605D01*
X25662412Y28946567D01*
X25663149Y28911210D01*
X25662354Y28862591D01*
X25659982Y28797767D01*
X25655992Y28713792D01*
X25650340Y28607724D01*
X25644102Y28496285D01*
X25637657Y28384838D01*
X25631453Y28281713D01*
X25625710Y28190276D01*
X25620650Y28113895D01*
X25616494Y28055937D01*
X25613462Y28019769D01*
X25612096Y28009097D01*
X25609924Y27990238D01*
X25606627Y27947600D01*
X25602447Y27885004D01*
X25597629Y27806272D01*
X25592414Y27715224D01*
X25587047Y27615682D01*
X25587024Y27615245D01*
X25581545Y27512882D01*
X25576145Y27416453D01*
X25571091Y27330354D01*
X25566646Y27258982D01*
X25563075Y27206734D01*
X25560775Y27179204D01*
X25555566Y27128246D01*
X25549679Y27067373D01*
X25546599Y27034100D01*
X25536477Y26966413D01*
X25519085Y26921530D01*
X25492010Y26895114D01*
X25463535Y26884733D01*
X25400368Y26875271D01*
X25353405Y26879541D01*
X25315779Y26899082D01*
X25290635Y26923446D01*
X25274034Y26943056D01*
X25262320Y26961167D01*
X25254347Y26983135D01*
X25248970Y27014312D01*
X25245045Y27060055D01*
X25241427Y27125716D01*
X25239660Y27161830D01*
X25235822Y27237308D01*
X25230741Y27332134D01*
X25224872Y27438080D01*
X25218672Y27546918D01*
X25212632Y27649794D01*
X25206422Y27754662D01*
X25199212Y27877927D01*
X25191536Y28010394D01*
X25183924Y28142869D01*
X25176910Y28266159D01*
X25175040Y28299304D01*
X25168968Y28405072D01*
X25162695Y28510639D01*
X25156590Y28610046D01*
X25151024Y28697335D01*
X25146365Y28766549D01*
X25144169Y28796801D01*
X25139815Y28884948D01*
X25142980Y28951472D01*
X25155035Y29001586D01*
X25177350Y29040504D01*
X25211298Y29073440D01*
X25218327Y29078821D01*
X25287572Y29116670D01*
X25363587Y29135276D01*
X25441172Y29135557D01*
X25515124Y29118428D01*
G37*
G36*
X25471308Y30187618D02*
G01*
X25535173Y30171972D01*
X25594120Y30143320D01*
X25650493Y30099495D01*
X25706632Y30038331D01*
X25764880Y29957663D01*
X25827578Y29855325D01*
X25893152Y29736518D01*
X25916643Y29693266D01*
X25950023Y29632958D01*
X25989681Y29562061D01*
X26032009Y29487041D01*
X26055150Y29446311D01*
X26101097Y29365416D01*
X26149937Y29279006D01*
X26196844Y29195647D01*
X26236992Y29123905D01*
X26249828Y29100827D01*
X26285743Y29036406D01*
X26321281Y28973184D01*
X26351956Y28919115D01*
X26370660Y28886627D01*
X26392997Y28847691D01*
X26424310Y28792239D01*
X26460507Y28727557D01*
X26497494Y28660930D01*
X26498777Y28658607D01*
X26537709Y28588805D01*
X26578038Y28517616D01*
X26614896Y28453575D01*
X26642428Y28406850D01*
X26668485Y28362845D01*
X26688053Y28328477D01*
X26697777Y28309682D01*
X26698280Y28308047D01*
X26704581Y28294286D01*
X26721232Y28263395D01*
X26744855Y28221609D01*
X26749061Y28214320D01*
X26777804Y28164049D01*
X26814034Y28099826D01*
X26852202Y28031520D01*
X26874390Y27991476D01*
X26908164Y27930438D01*
X26940641Y27872025D01*
X26967503Y27823993D01*
X26981073Y27799958D01*
X27007235Y27753555D01*
X27032876Y27707378D01*
X27038917Y27696347D01*
X27074109Y27632231D01*
X27112950Y27562236D01*
X27152982Y27490706D01*
X27191746Y27421983D01*
X27226785Y27360411D01*
X27255639Y27310334D01*
X27275851Y27276095D01*
X27284276Y27262851D01*
X27298950Y27239433D01*
X27319945Y27201472D01*
X27334682Y27173025D01*
X27360356Y27123674D01*
X27386652Y27075583D01*
X27398173Y27055561D01*
X27434335Y26994387D01*
X27459474Y26951321D01*
X27476531Y26921260D01*
X27488442Y26899101D01*
X27489713Y26896638D01*
X27501170Y26875575D01*
X27523368Y26835779D01*
X27553598Y26782073D01*
X27589151Y26719276D01*
X27608838Y26684641D01*
X27644720Y26621295D01*
X27675321Y26566698D01*
X27698355Y26524975D01*
X27711536Y26500252D01*
X27713765Y26495317D01*
X27720335Y26482066D01*
X27737195Y26453407D01*
X27751661Y26429985D01*
X27776835Y26385810D01*
X27805862Y26328909D01*
X27831458Y26273824D01*
X27853967Y26218225D01*
X27866724Y26172031D01*
X27872374Y26122282D01*
X27873565Y26067476D01*
X27872496Y26007646D01*
X27867643Y25965298D01*
X27856935Y25930336D01*
X27838302Y25892666D01*
X27837378Y25890989D01*
X27777430Y25808614D01*
X27699823Y25743455D01*
X27610181Y25699945D01*
X27599425Y25696561D01*
X27587529Y25693481D01*
X27573297Y25690693D01*
X27555535Y25688182D01*
X27533050Y25685936D01*
X27504648Y25683941D01*
X27469134Y25682185D01*
X27425315Y25680652D01*
X27371996Y25679331D01*
X27307984Y25678208D01*
X27232083Y25677270D01*
X27143101Y25676503D01*
X27039843Y25675894D01*
X26921116Y25675429D01*
X26785724Y25675096D01*
X26632474Y25674881D01*
X26460173Y25674771D01*
X26267625Y25674751D01*
X26053637Y25674810D01*
X25817015Y25674934D01*
X25556565Y25675108D01*
X25395641Y25675227D01*
X25162958Y25675441D01*
X24937049Y25675725D01*
X24719271Y25676076D01*
X24510981Y25676486D01*
X24313535Y25676952D01*
X24128290Y25677468D01*
X23956603Y25678029D01*
X23799830Y25678630D01*
X23659327Y25679265D01*
X23536451Y25679929D01*
X23432559Y25680617D01*
X23349008Y25681325D01*
X23287153Y25682046D01*
X23248352Y25682776D01*
X23234059Y25683478D01*
X23206812Y25694817D01*
X23196139Y25702604D01*
X23173236Y25713851D01*
X23162993Y25715082D01*
X23131336Y25725194D01*
X23090571Y25751901D01*
X23047102Y25789757D01*
X23007337Y25833317D01*
X22982616Y25868410D01*
X22948242Y25950120D01*
X22932992Y26044212D01*
X22934056Y26067420D01*
X23230107Y26067420D01*
X23235084Y26045411D01*
X23246806Y26026587D01*
X23253340Y26019108D01*
X23256958Y26015540D01*
X23261646Y26012294D01*
X23268577Y26009353D01*
X23278921Y26006703D01*
X23293851Y26004328D01*
X23314538Y26002214D01*
X23342153Y26000346D01*
X23377869Y25998707D01*
X23422857Y25997284D01*
X23478287Y25996061D01*
X23545333Y25995022D01*
X23625165Y25994153D01*
X23718955Y25993439D01*
X23827875Y25992864D01*
X23953095Y25992414D01*
X24095789Y25992073D01*
X24257126Y25991825D01*
X24438280Y25991657D01*
X24640420Y25991552D01*
X24864720Y25991496D01*
X25112350Y25991473D01*
X25384483Y25991469D01*
X25392968Y25991469D01*
X25684008Y25991519D01*
X25950188Y25991674D01*
X26192353Y25991940D01*
X26411353Y25992323D01*
X26608033Y25992830D01*
X26783242Y25993467D01*
X26937827Y25994240D01*
X27072635Y25995157D01*
X27188514Y25996222D01*
X27286311Y25997444D01*
X27366873Y25998827D01*
X27431047Y26000379D01*
X27479682Y26002106D01*
X27513624Y26004014D01*
X27533721Y26006110D01*
X27539936Y26007658D01*
X27566892Y26029479D01*
X27579728Y26052731D01*
X27578270Y26089995D01*
X27562437Y26142195D01*
X27534471Y26203178D01*
X27508265Y26248777D01*
X27482977Y26291097D01*
X27452240Y26345145D01*
X27425591Y26393881D01*
X27396198Y26448733D01*
X27373672Y26489947D01*
X27352563Y26527170D01*
X27327419Y26570051D01*
X27299980Y26616179D01*
X27267051Y26672722D01*
X27230694Y26737111D01*
X27205854Y26782369D01*
X27176446Y26836293D01*
X27140363Y26901542D01*
X27104376Y26965884D01*
X27096664Y26979554D01*
X27060451Y27043987D01*
X27021345Y27114161D01*
X26986784Y27176717D01*
X26981233Y27186845D01*
X26955664Y27233096D01*
X26920491Y27296057D01*
X26879557Y27368883D01*
X26836703Y27444727D01*
X26816506Y27480324D01*
X26779403Y27545760D01*
X26732114Y27629379D01*
X26677733Y27725698D01*
X26619352Y27829234D01*
X26560067Y27934506D01*
X26505466Y28031587D01*
X26453823Y28123452D01*
X26405217Y28209864D01*
X26361598Y28287364D01*
X26324914Y28352488D01*
X26297114Y28401777D01*
X26280148Y28431770D01*
X26277749Y28435985D01*
X26236973Y28507952D01*
X26188253Y28594800D01*
X26136616Y28687543D01*
X26102714Y28748824D01*
X26073008Y28802316D01*
X26035641Y28869059D01*
X25993597Y28943784D01*
X25949857Y29021218D01*
X25907406Y29096092D01*
X25869226Y29163133D01*
X25838300Y29217071D01*
X25817610Y29252636D01*
X25817489Y29252840D01*
X25800507Y29282325D01*
X25773389Y29330332D01*
X25739070Y29391585D01*
X25700484Y29460805D01*
X25660565Y29532714D01*
X25622246Y29602036D01*
X25588463Y29663491D01*
X25562149Y29711804D01*
X25556361Y29722551D01*
X25509109Y29797704D01*
X25461947Y29847779D01*
X25415923Y29872256D01*
X25372085Y29870614D01*
X25331481Y29842332D01*
X25326526Y29836709D01*
X25308685Y29811679D01*
X25280919Y29768308D01*
X25246424Y29712022D01*
X25208396Y29648246D01*
X25170033Y29582407D01*
X25134530Y29519931D01*
X25105084Y29466243D01*
X25084891Y29426769D01*
X25084330Y29425582D01*
X25065277Y29388205D01*
X25040192Y29342755D01*
X25029960Y29325119D01*
X25015427Y29299956D01*
X24989847Y29255077D01*
X24955446Y29194433D01*
X24914455Y29121976D01*
X24869100Y29041657D01*
X24821611Y28957428D01*
X24774216Y28873242D01*
X24729143Y28793048D01*
X24688620Y28720800D01*
X24654877Y28660448D01*
X24635172Y28625032D01*
X24620835Y28599373D01*
X24596268Y28555616D01*
X24563917Y28498098D01*
X24526225Y28431153D01*
X24485637Y28359118D01*
X24444597Y28286328D01*
X24405549Y28217119D01*
X24370938Y28155827D01*
X24343207Y28106788D01*
X24324802Y28074337D01*
X24319102Y28064375D01*
X24307696Y28044261D01*
X24286485Y28006482D01*
X24258862Y27957091D01*
X24237764Y27919271D01*
X24217306Y27882693D01*
X24185753Y27826436D01*
X24145330Y27754460D01*
X24098267Y27670725D01*
X24046790Y27579188D01*
X23993126Y27483808D01*
X23939505Y27388546D01*
X23888152Y27297360D01*
X23841295Y27214209D01*
X23801163Y27143052D01*
X23769982Y27087848D01*
X23767353Y27083199D01*
X23756176Y27063329D01*
X23735004Y27025593D01*
X23707098Y26975808D01*
X23682102Y26931186D01*
X23651844Y26877682D01*
X23626236Y26833373D01*
X23608272Y26803380D01*
X23601278Y26792993D01*
X23591376Y26777468D01*
X23574954Y26746416D01*
X23567250Y26730805D01*
X23552464Y26702273D01*
X23526707Y26654719D01*
X23492476Y26592664D01*
X23452270Y26520629D01*
X23408584Y26443135D01*
X23399309Y26426779D01*
X23342283Y26325506D01*
X23298155Y26244604D01*
X23265898Y26181208D01*
X23244489Y26132455D01*
X23232900Y26095480D01*
X23230107Y26067420D01*
X22934056Y26067420D01*
X22937556Y26143807D01*
X22949335Y26200577D01*
X22962445Y26235311D01*
X22988350Y26291159D01*
X23025948Y26365978D01*
X23074138Y26457628D01*
X23131818Y26563969D01*
X23194208Y26676309D01*
X23253459Y26781939D01*
X23313673Y26889309D01*
X23372209Y26993709D01*
X23426428Y27090431D01*
X23473691Y27174767D01*
X23511358Y27242008D01*
X23523028Y27262851D01*
X23555903Y27321469D01*
X23599534Y27399100D01*
X23651328Y27491135D01*
X23708689Y27592969D01*
X23769023Y27699993D01*
X23829735Y27807601D01*
X23857672Y27857084D01*
X23914533Y27957893D01*
X23969445Y28055468D01*
X24020387Y28146199D01*
X24065335Y28226477D01*
X24102270Y28292693D01*
X24129167Y28341236D01*
X24140249Y28361491D01*
X24165435Y28407374D01*
X24200339Y28470081D01*
X24241203Y28542899D01*
X24284267Y28619119D01*
X24306701Y28658607D01*
X24339093Y28715610D01*
X24375928Y28780652D01*
X24418193Y28855489D01*
X24466876Y28941877D01*
X24522964Y29041573D01*
X24587445Y29156333D01*
X24661306Y29287913D01*
X24745534Y29438069D01*
X24841117Y29608557D01*
X24939017Y29783242D01*
X25007725Y29900935D01*
X25069615Y29995109D01*
X25127203Y30067995D01*
X25183005Y30121827D01*
X25239537Y30158838D01*
X25299316Y30181260D01*
X25364858Y30191325D01*
X25400185Y30192422D01*
X25471308Y30187618D01*
G37*
D12*
%TO.C,C102*%
X63238748Y28734997D02*
X63761252Y28734997D01*
X63238748Y27264997D02*
X63761252Y27264997D01*
%TO.C,R104*%
X27446359Y39380000D02*
X27753641Y39380000D01*
X27446359Y38620000D02*
X27753641Y38620000D01*
%TO.C,C120*%
X47292164Y35460000D02*
X47507836Y35460000D01*
X47292164Y34740000D02*
X47507836Y34740000D01*
%TO.C,J204*%
X13815000Y3830000D02*
X13815000Y1170000D01*
X21495000Y3830000D02*
X13815000Y3830000D01*
X21495000Y3830000D02*
X21495000Y1170000D01*
X21495000Y1170000D02*
X13815000Y1170000D01*
X24095000Y2500000D02*
X24095000Y1170000D01*
X24095000Y1170000D02*
X22765000Y1170000D01*
%TO.C,C201*%
X19562500Y19347500D02*
X20350000Y19347500D01*
X19956250Y19741250D02*
X19956250Y18953750D01*
X20590000Y19845563D02*
X20590000Y18560000D01*
X20590000Y19845563D02*
X21654437Y20910000D01*
X20590000Y15154437D02*
X20590000Y16440000D01*
X20590000Y15154437D02*
X21654437Y14090000D01*
X21654437Y20910000D02*
X27410000Y20910000D01*
X21654437Y14090000D02*
X27410000Y14090000D01*
X27410000Y20910000D02*
X27410000Y18560000D01*
X27410000Y14090000D02*
X27410000Y16440000D01*
%TO.C,R110*%
X29046359Y31580000D02*
X29353641Y31580000D01*
X29046359Y30820000D02*
X29353641Y30820000D01*
%TO.C,R115*%
X4420000Y43853641D02*
X4420000Y43546359D01*
X5180000Y43853641D02*
X5180000Y43546359D01*
%TO.C,D204*%
X38090000Y37050000D02*
X38090000Y33750000D01*
X38090000Y37050000D02*
X43600000Y37050000D01*
X38090000Y33750000D02*
X43600000Y33750000D01*
%TO.C,D203*%
X38090000Y33550000D02*
X38090000Y30250000D01*
X38090000Y33550000D02*
X43600000Y33550000D01*
X38090000Y30250000D02*
X43600000Y30250000D01*
%TO.C,J112*%
X49355000Y3700000D02*
X50685000Y3700000D01*
X49355000Y2370000D02*
X49355000Y3700000D01*
X51955000Y3700000D02*
X64715000Y3700000D01*
X51955000Y1040000D02*
X51955000Y3700000D01*
X51955000Y1040000D02*
X64715000Y1040000D01*
X64715000Y1040000D02*
X64715000Y3700000D01*
%TO.C,J105*%
X715000Y39940000D02*
X715000Y36060000D01*
X2685000Y41110000D02*
X5185001Y41110000D01*
X2685000Y34890000D02*
X5185001Y34890000D01*
X5185001Y41110000D02*
X5185001Y40060000D01*
X5185001Y40060000D02*
X6175000Y40060000D01*
X5185001Y34890000D02*
X5185001Y35940000D01*
%TO.C,L201*%
X37000000Y19400000D02*
X44400000Y19400000D01*
X37000000Y17700000D02*
X37000000Y19400000D01*
X37000000Y12800000D02*
X37000000Y14500000D01*
X44300000Y14500000D02*
X44300000Y12800000D01*
X44300000Y12800000D02*
X37000000Y12800000D01*
X44400000Y19400000D02*
X44400000Y17700000D01*
%TO.C,D201*%
X18750001Y13600001D02*
X18750001Y11050001D01*
X20450001Y13600001D02*
X18750001Y13600001D01*
X20450001Y13600001D02*
X20450001Y11050001D01*
%TO.C,U202*%
X30790000Y35510000D02*
X32050000Y35510000D01*
X30790000Y29500000D02*
X30790000Y35510000D01*
X37610000Y35510000D02*
X36350000Y35510000D01*
X37610000Y31750000D02*
X37610000Y35510000D01*
%TO.C,R107*%
X17846359Y44680000D02*
X18153641Y44680000D01*
X17846359Y43920000D02*
X18153641Y43920000D01*
%TO.C,C206*%
X36040000Y11207836D02*
X36040000Y10992164D01*
X36760000Y11207836D02*
X36760000Y10992164D01*
%TO.C,C109*%
X60392164Y29359997D02*
X60607836Y29359997D01*
X60392164Y28639997D02*
X60607836Y28639997D01*
%TO.C,JP102*%
X29600000Y43300000D02*
X29600000Y44700000D01*
X30299999Y45400000D02*
X30900001Y45400000D01*
X30900001Y42600000D02*
X30299999Y42600000D01*
X31600000Y44700000D02*
X31600000Y43300000D01*
X29600000Y44700000D02*
G75*
G02*
X30299999Y45400000I700000J0D01*
G01*
X30299999Y42600000D02*
G75*
G02*
X29600000Y43300000I0J699999D01*
G01*
X30900001Y45400000D02*
G75*
G02*
X31600000Y44700000I-1J-700000D01*
G01*
X31600000Y43300000D02*
G75*
G02*
X30900001Y42600000I-699999J-1D01*
G01*
%TO.C,C208*%
X42361253Y10335001D02*
X41838749Y10335001D01*
X42361253Y8865001D02*
X41838749Y8865001D01*
%TO.C,D102*%
X10800000Y29064999D02*
X13085000Y29064999D01*
X13085000Y30534999D02*
X10800000Y30534999D01*
X13085000Y29064999D02*
X13085000Y30534999D01*
%TO.C,R112*%
X50053641Y30280000D02*
X49746359Y30280000D01*
X50053641Y29520000D02*
X49746359Y29520000D01*
%TO.C,R108*%
X31020000Y39346359D02*
X31020000Y39653641D01*
X31780000Y39346359D02*
X31780000Y39653641D01*
%TO.C,C106*%
X16647836Y34760000D02*
X16432164Y34760000D01*
X16647836Y34040000D02*
X16432164Y34040000D01*
%TO.C,C116*%
X39038748Y6035000D02*
X39561252Y6035000D01*
X39038748Y4565000D02*
X39561252Y4565000D01*
%TO.C,C112*%
X29092164Y30560002D02*
X29307836Y30560002D01*
X29092164Y29840002D02*
X29307836Y29840002D01*
%TO.C,R114*%
X30120000Y46546359D02*
X30120000Y46853641D01*
X30880000Y46546359D02*
X30880000Y46853641D01*
%TO.C,J201*%
X2140000Y11900000D02*
X13200000Y11900000D01*
X7300000Y2700000D02*
X2140000Y2700000D01*
X13200000Y11900000D02*
X13200000Y9300000D01*
X13200000Y5400000D02*
X13200000Y2700000D01*
X13200000Y2700000D02*
X11500000Y2700000D01*
%TO.C,U102*%
X15240000Y39800000D02*
X15240000Y42000000D01*
X15240000Y39800000D02*
X15240000Y37600000D01*
X20760000Y39800000D02*
X20760000Y43450000D01*
X20760000Y39800000D02*
X20760000Y37600000D01*
%TO.C,R105*%
X17846359Y30480000D02*
X18153641Y30480000D01*
X17846359Y29720000D02*
X18153641Y29720000D01*
%TO.C,R113*%
X29120000Y46546359D02*
X29120000Y46853641D01*
X29880000Y46546359D02*
X29880000Y46853641D01*
%TO.C,C202*%
X29090000Y21910000D02*
X31440000Y21910000D01*
X29090000Y16154437D02*
X29090000Y21910000D01*
X30154437Y15090000D02*
X29090000Y16154437D01*
X30154437Y15090000D02*
X31440000Y15090000D01*
X34845563Y15090000D02*
X33560000Y15090000D01*
X34845563Y15090000D02*
X35910000Y16154437D01*
X35910000Y21910000D02*
X33560000Y21910000D01*
X35910000Y16154437D02*
X35910000Y21910000D01*
%TO.C,R102*%
X12746359Y21580000D02*
X13053641Y21580000D01*
X12746359Y20820000D02*
X13053641Y20820000D01*
%TO.C,Q201*%
X20940000Y8500000D02*
X20940000Y10450000D01*
X20940000Y8500000D02*
X20940000Y6550000D01*
X26060000Y8500000D02*
X26060000Y11950000D01*
X26060000Y8500000D02*
X26060000Y6550000D01*
%TO.C,U103*%
X46550000Y24200000D02*
X47500000Y24200000D01*
X46550000Y22800000D02*
X46550000Y24200000D01*
X46550000Y7200000D02*
X46550000Y5800000D01*
X46550000Y5800000D02*
X47500000Y5800000D01*
X65334000Y24652000D02*
X64834000Y24652000D01*
X64834000Y25152000D01*
X65334000Y24652000D01*
G36*
X65334000Y24652000D02*
G01*
X64834000Y24652000D01*
X64834000Y25152000D01*
X65334000Y24652000D01*
G37*
%TO.C,J111*%
X15370000Y48355000D02*
X16700000Y48355000D01*
X15370000Y47025000D02*
X15370000Y48355000D01*
X17970000Y48355000D02*
X25650000Y48355000D01*
X17970000Y45695000D02*
X17970000Y48355000D01*
X17970000Y45695000D02*
X25650000Y45695000D01*
X25650000Y45695000D02*
X25650000Y48355000D01*
%TO.C,C104*%
X16647836Y20460000D02*
X16432164Y20460000D01*
X16647836Y19740000D02*
X16432164Y19740000D01*
%TO.C,C119*%
X54292164Y40460000D02*
X54507836Y40460000D01*
X54292164Y39740000D02*
X54507836Y39740000D01*
%TO.C,U105*%
X55600000Y43860000D02*
X54800000Y43860000D01*
X55600000Y43860000D02*
X56400000Y43860000D01*
X55600000Y40740000D02*
X54800000Y40740000D01*
X55600000Y40740000D02*
X57400000Y40740000D01*
%TD*%
%LPC*%
D13*
%TO.C,JP101*%
G36*
X28400000Y43750000D02*
G01*
X27800000Y43750000D01*
X27800000Y44250000D01*
X28400000Y44250000D01*
X28400000Y43750000D01*
G37*
%TO.C,JP102*%
G36*
X30900000Y43750000D02*
G01*
X30300000Y43750000D01*
X30300000Y44250000D01*
X30900000Y44250000D01*
X30900000Y43750000D01*
G37*
%TD*%
D14*
%TO.C,SW101*%
X60425000Y31500000D03*
X64575000Y31500000D03*
%TD*%
D15*
%TO.C,C115*%
X7799999Y38050001D03*
X7799999Y39949999D03*
%TD*%
D16*
%TO.C,C118*%
X42800000Y25500000D03*
X43800000Y25500000D03*
%TD*%
D17*
%TO.C,R121*%
X53900000Y39000000D03*
X54900000Y39000000D03*
%TD*%
D18*
%TO.C,C108*%
X19000000Y34200000D03*
X18000000Y34200000D03*
%TD*%
D19*
%TO.C,C204*%
X36015000Y13625000D03*
X36015000Y14625000D03*
%TD*%
D20*
%TO.C,H103*%
X56000000Y46500000D03*
%TD*%
D21*
%TO.C,U104*%
X37950000Y23970000D03*
X37950000Y21430000D03*
X44250000Y21430000D03*
X44250000Y22700000D03*
X44250000Y23970000D03*
%TD*%
D22*
%TO.C,R116*%
X61000000Y25700003D03*
X60000000Y25700003D03*
%TD*%
D23*
%TO.C,J103*%
X8800000Y21250000D03*
X6200000Y21250000D03*
D24*
X7500000Y20750000D03*
D23*
X8800000Y20250000D03*
X6200000Y20250000D03*
X8800000Y17750000D03*
X6200000Y17750000D03*
D24*
X7500000Y17250000D03*
D23*
X8800000Y16750000D03*
X6200000Y16750000D03*
%TD*%
D25*
%TO.C,JP101*%
X28100000Y43350000D03*
D26*
X28100000Y44650000D03*
%TD*%
D27*
%TO.C,C114*%
X46650001Y47500000D03*
X48549999Y47500000D03*
%TD*%
%TO.C,C101*%
X62550000Y25999997D03*
X64450000Y25999997D03*
%TD*%
D18*
%TO.C,C110*%
X19400000Y21000000D03*
X18400000Y21000000D03*
%TD*%
D28*
%TO.C,J108*%
X27825000Y2370000D03*
D29*
X30365000Y2370000D03*
X32905000Y2370000D03*
X35445000Y2370000D03*
X37985000Y2370000D03*
X40525000Y2370000D03*
X43065000Y2370000D03*
X45605000Y2370000D03*
%TD*%
D16*
%TO.C,C209*%
X37700000Y6900000D03*
X38700000Y6900000D03*
%TD*%
D30*
%TO.C,D104*%
X10800000Y18200001D03*
X12375000Y18200001D03*
%TD*%
D20*
%TO.C,H104*%
X56000000Y28000000D03*
%TD*%
D22*
%TO.C,R119*%
X61400000Y35100000D03*
X60400000Y35100000D03*
%TD*%
%TO.C,R202*%
X38700000Y7800000D03*
X37700000Y7800000D03*
%TD*%
D31*
%TO.C,C207*%
X43050001Y11600000D03*
X41150001Y11600000D03*
%TD*%
D32*
%TO.C,R201*%
X18000000Y12200000D03*
X18000000Y13200000D03*
%TD*%
D33*
%TO.C,R205*%
X40800000Y26700000D03*
X40800000Y25700000D03*
%TD*%
D34*
%TO.C,C203*%
X30000000Y12700000D03*
X30000000Y7300000D03*
%TD*%
D18*
%TO.C,C111*%
X19400000Y35300000D03*
X18400000Y35300000D03*
%TD*%
D32*
%TO.C,R203*%
X36700000Y6900000D03*
X36700000Y7900000D03*
%TD*%
D18*
%TO.C,C107*%
X19000000Y19900000D03*
X18000000Y19900000D03*
%TD*%
D35*
%TO.C,J114*%
X60185000Y38610000D03*
X60185000Y44390000D03*
D36*
X59110000Y38300000D03*
X59110000Y39100000D03*
D37*
X59110000Y40250000D03*
X59110000Y41250000D03*
X59110000Y41750000D03*
X59110000Y42750000D03*
D36*
X59110000Y43900000D03*
X59110000Y44700000D03*
X59110000Y44700000D03*
X59110000Y43900000D03*
D37*
X59110000Y43250000D03*
X59110000Y42250000D03*
X59110000Y40750000D03*
X59110000Y39750000D03*
D36*
X59110000Y39100000D03*
X59110000Y38300000D03*
D38*
X59685000Y37180000D03*
D39*
X63865000Y37180000D03*
D38*
X59685000Y45820000D03*
D39*
X63865000Y45820000D03*
%TD*%
D17*
%TO.C,R109*%
X30400001Y28100000D03*
X31399999Y28100000D03*
%TD*%
D33*
%TO.C,R111*%
X30100000Y40000000D03*
X30100000Y39000000D03*
%TD*%
D28*
%TO.C,J107*%
X18685000Y50630000D03*
D29*
X21225000Y50630000D03*
X23765000Y50630000D03*
X26305000Y50630000D03*
X28845000Y50630000D03*
X31385000Y50630000D03*
X33925000Y50630000D03*
X36465000Y50630000D03*
X39005000Y50630000D03*
X41545000Y50630000D03*
%TD*%
D40*
%TO.C,C105*%
X20424999Y33000000D03*
X23375001Y33000000D03*
%TD*%
D41*
%TO.C,U201*%
X39550000Y11637500D03*
X38600000Y11637500D03*
X37650000Y11637500D03*
X37650000Y9362500D03*
X38600000Y9362500D03*
X39550000Y9362500D03*
%TD*%
D42*
%TO.C,C211*%
X29500000Y34650000D03*
X29500000Y32750000D03*
%TD*%
D43*
%TO.C,Q101*%
X51750000Y32550000D03*
X51750000Y33200000D03*
X51750000Y33850000D03*
X49850000Y33850000D03*
X49850000Y33200000D03*
X49850000Y32550000D03*
%TD*%
D23*
%TO.C,J110*%
X12450000Y44100000D03*
X12450000Y46700000D03*
D44*
X11950000Y45400000D03*
D23*
X11450000Y44100000D03*
X11450000Y46700000D03*
X8950000Y44100000D03*
X8950000Y46700000D03*
D44*
X8450000Y45400000D03*
D23*
X7950000Y44100000D03*
X7950000Y46700000D03*
%TD*%
D45*
%TO.C,D205*%
X39500000Y27287500D03*
X39500000Y25712500D03*
%TD*%
D22*
%TO.C,R103*%
X61000000Y28000000D03*
X60000000Y28000000D03*
%TD*%
%TO.C,R106*%
X17500000Y31100000D03*
X16500000Y31100000D03*
%TD*%
D31*
%TO.C,C210*%
X35050000Y28100000D03*
X33150000Y28100000D03*
%TD*%
D46*
%TO.C,U101*%
X18000000Y25500000D03*
D47*
X20275000Y28362500D03*
X19625000Y28362500D03*
X18975000Y28362500D03*
X18325000Y28362500D03*
X17675000Y28362500D03*
X17025000Y28362500D03*
X16375000Y28362500D03*
X15725000Y28362500D03*
X15725000Y22637500D03*
X16375000Y22637500D03*
X17025000Y22637500D03*
X17675000Y22637500D03*
X18325000Y22637500D03*
X18975000Y22637500D03*
X19625000Y22637500D03*
X20275000Y22637500D03*
%TD*%
D22*
%TO.C,R117*%
X61000000Y26700000D03*
X60000000Y26700000D03*
%TD*%
D48*
%TO.C,D106*%
X34000001Y25100000D03*
X29999999Y25100000D03*
%TD*%
D17*
%TO.C,R118*%
X60400000Y47900000D03*
X61400000Y47900000D03*
%TD*%
D49*
%TO.C,C205*%
X34800001Y11975000D03*
X34800001Y9025000D03*
%TD*%
D45*
%TO.C,D202*%
X37900000Y27287500D03*
X37900000Y25712500D03*
%TD*%
D30*
%TO.C,D105*%
X46512500Y29900000D03*
X48087500Y29900000D03*
%TD*%
D17*
%TO.C,R101*%
X10800000Y31100000D03*
X11800000Y31100000D03*
%TD*%
D28*
%TO.C,J106*%
X43700000Y47000000D03*
D29*
X43700000Y44460000D03*
X41160000Y47000000D03*
X41160000Y44460000D03*
X38620000Y47000000D03*
X38620000Y44460000D03*
X36080000Y47000000D03*
X36080000Y44460000D03*
%TD*%
D50*
%TO.C,D103*%
X12375000Y19799999D03*
X10800000Y19799999D03*
%TD*%
D33*
%TO.C,R204*%
X36565001Y26695000D03*
X36565001Y25695000D03*
%TD*%
D23*
%TO.C,J101*%
X8800000Y31250000D03*
X6200000Y31250000D03*
D24*
X7500000Y30750000D03*
D23*
X8800000Y30250000D03*
X6200000Y30250000D03*
X8800000Y27750000D03*
X6200000Y27750000D03*
D24*
X7500000Y27250000D03*
D23*
X8800000Y26750000D03*
X6200000Y26750000D03*
%TD*%
D31*
%TO.C,C117*%
X35450000Y5400000D03*
X33550000Y5400000D03*
%TD*%
D20*
%TO.C,H101*%
X3000000Y50000000D03*
%TD*%
D51*
%TO.C,U106*%
X51875000Y36455000D03*
X51875000Y37725000D03*
X51875000Y38995000D03*
X51875000Y40265000D03*
X51875000Y41535000D03*
X51875000Y42805000D03*
X51875000Y44075000D03*
X51875000Y45345000D03*
X46925000Y45345000D03*
X46925000Y44075000D03*
X46925000Y42805000D03*
X46925000Y41535000D03*
X46925000Y40265000D03*
X46925000Y38995000D03*
X46925000Y37725000D03*
X46925000Y36455000D03*
%TD*%
D49*
%TO.C,C103*%
X17400000Y18175000D03*
X17400000Y15225000D03*
%TD*%
D52*
%TO.C,C113*%
X29100000Y40000000D03*
X29100000Y39000000D03*
%TD*%
D20*
%TO.C,H102*%
X17000000Y7000000D03*
%TD*%
D28*
%TO.C,J113*%
X45605000Y50630000D03*
D29*
X48145000Y50630000D03*
X50685000Y50630000D03*
X53225000Y50630000D03*
X55765000Y50630000D03*
X58305000Y50630000D03*
X60845000Y50630000D03*
X63385000Y50630000D03*
%TD*%
D30*
%TO.C,D101*%
X10812500Y28200001D03*
X12387500Y28200001D03*
%TD*%
D17*
%TO.C,R120*%
X53900000Y37700000D03*
X54900000Y37700000D03*
%TD*%
D27*
%TO.C,C102*%
X62550000Y27999997D03*
X64450000Y27999997D03*
%TD*%
D17*
%TO.C,R104*%
X27100000Y39000000D03*
X28100000Y39000000D03*
%TD*%
D16*
%TO.C,C120*%
X46900000Y35100000D03*
X47900000Y35100000D03*
%TD*%
D28*
%TO.C,J204*%
X22765000Y2500000D03*
D29*
X20225000Y2500000D03*
X17685000Y2500000D03*
X15145000Y2500000D03*
%TD*%
D53*
%TO.C,C201*%
X21300000Y17500000D03*
X26700000Y17500000D03*
%TD*%
D17*
%TO.C,R110*%
X28700000Y31200000D03*
X29700000Y31200000D03*
%TD*%
D33*
%TO.C,R115*%
X4800000Y44199999D03*
X4800000Y43200001D03*
%TD*%
D54*
%TO.C,D204*%
X39600000Y35400000D03*
X43600000Y35400000D03*
%TD*%
%TO.C,D203*%
X39600000Y31900000D03*
X43600000Y31900000D03*
%TD*%
D28*
%TO.C,J112*%
X50685000Y2370000D03*
D29*
X53225000Y2370000D03*
X55765000Y2370000D03*
X58305000Y2370000D03*
X60845000Y2370000D03*
X63385000Y2370000D03*
%TD*%
D55*
%TO.C,J105*%
X5400000Y39500000D03*
X5400000Y38500000D03*
X5400000Y37500000D03*
X5400000Y36500000D03*
D56*
X1525000Y40800000D03*
X1525000Y35200000D03*
%TD*%
D57*
%TO.C,L201*%
X37925000Y16100000D03*
X43475000Y16100000D03*
%TD*%
D58*
%TO.C,D201*%
X19600001Y13150001D03*
X19600001Y11050001D03*
%TD*%
D59*
%TO.C,U202*%
X31900000Y30450000D03*
X34200000Y30450000D03*
D60*
X34200000Y36750000D03*
D59*
X36500000Y30450000D03*
%TD*%
D17*
%TO.C,R107*%
X17500000Y44300000D03*
X18500000Y44300000D03*
%TD*%
D52*
%TO.C,C206*%
X36400000Y11600000D03*
X36400000Y10600000D03*
%TD*%
D16*
%TO.C,C109*%
X60000000Y28999997D03*
X61000000Y28999997D03*
%TD*%
D25*
%TO.C,JP102*%
X30600000Y43350001D03*
D26*
X30600000Y44649999D03*
%TD*%
D31*
%TO.C,C208*%
X43050001Y9600001D03*
X41150001Y9600001D03*
%TD*%
D50*
%TO.C,D102*%
X12387500Y29799999D03*
X10812500Y29799999D03*
%TD*%
D22*
%TO.C,R112*%
X50400000Y29900000D03*
X49400000Y29900000D03*
%TD*%
D32*
%TO.C,R108*%
X31400000Y39000000D03*
X31400000Y40000000D03*
%TD*%
D18*
%TO.C,C106*%
X17040000Y34400000D03*
X16040000Y34400000D03*
%TD*%
D27*
%TO.C,C116*%
X38350000Y5300000D03*
X40250000Y5300000D03*
%TD*%
D16*
%TO.C,C112*%
X28700000Y30200002D03*
X29700000Y30200002D03*
%TD*%
D32*
%TO.C,R114*%
X30500000Y46200000D03*
X30500000Y47200000D03*
%TD*%
D23*
%TO.C,J201*%
X10900000Y8700000D03*
X10900000Y7300000D03*
X10900000Y5900000D03*
D61*
X12300000Y7300000D03*
D23*
X13700000Y8700000D03*
X13700000Y7300000D03*
X13700000Y5900000D03*
X4900000Y8700000D03*
X4900000Y7300000D03*
X4900000Y5900000D03*
D62*
X6300000Y7300000D03*
D23*
X7700000Y8700000D03*
X7700000Y7300000D03*
X7700000Y5900000D03*
D63*
X9400000Y2600000D03*
%TD*%
D46*
%TO.C,U102*%
X18000000Y39800000D03*
D47*
X20275000Y42662500D03*
X19625000Y42662500D03*
X18975000Y42662500D03*
X18325000Y42662500D03*
X17675000Y42662500D03*
X17025000Y42662500D03*
X16375000Y42662500D03*
X15725000Y42662500D03*
X15725000Y36937500D03*
X16375000Y36937500D03*
X17025000Y36937500D03*
X17675000Y36937500D03*
X18325000Y36937500D03*
X18975000Y36937500D03*
X19625000Y36937500D03*
X20275000Y36937500D03*
%TD*%
D17*
%TO.C,R105*%
X17500000Y30100000D03*
X18500000Y30100000D03*
%TD*%
D32*
%TO.C,R113*%
X29500000Y46200000D03*
X29500000Y47200000D03*
%TD*%
D64*
%TO.C,C202*%
X32500000Y15800000D03*
X32500000Y21200000D03*
%TD*%
D17*
%TO.C,R102*%
X12400001Y21200000D03*
X13399999Y21200000D03*
%TD*%
D65*
%TO.C,Q201*%
X25405000Y10975000D03*
X24135000Y10975000D03*
X22865000Y10975000D03*
X21595000Y10975000D03*
X21595000Y6025000D03*
X22865000Y6025000D03*
X24135000Y6025000D03*
X25405000Y6025000D03*
%TD*%
D66*
%TO.C,U103*%
X64760000Y23750000D03*
X63490000Y23750000D03*
X62220000Y23750000D03*
X60950000Y23750000D03*
X59680000Y23750000D03*
X58410000Y23750000D03*
X57140000Y23750000D03*
X55870000Y23750000D03*
X54600000Y23750000D03*
X53330000Y23750000D03*
X52060000Y23750000D03*
X50790000Y23750000D03*
X49520000Y23750000D03*
X48250000Y23750000D03*
D67*
X47000000Y20715000D03*
X47000000Y19445000D03*
X47000000Y18175000D03*
X47000000Y16905000D03*
X47000000Y15635000D03*
X47000000Y14365000D03*
X47000000Y13095000D03*
X47000000Y11825000D03*
X47000000Y10555000D03*
X47000000Y9285000D03*
D66*
X48250000Y6250000D03*
X49520000Y6250000D03*
X50790000Y6250000D03*
X52060000Y6250000D03*
X53330000Y6250000D03*
X54600000Y6250000D03*
X55870000Y6250000D03*
X57140000Y6250000D03*
X58410000Y6250000D03*
X59680000Y6250000D03*
X60950000Y6250000D03*
X62220000Y6250000D03*
X63490000Y6250000D03*
X64760000Y6250000D03*
D68*
X58440000Y17900000D03*
X57040000Y17900000D03*
X55640000Y17900000D03*
X58440000Y16500000D03*
X57040000Y16500000D03*
X55640000Y16500000D03*
X58440000Y15100000D03*
X57040000Y15100000D03*
X55640000Y15100000D03*
%TD*%
D28*
%TO.C,J111*%
X16700000Y47025000D03*
D29*
X19240000Y47025000D03*
X21780000Y47025000D03*
X24320000Y47025000D03*
%TD*%
D18*
%TO.C,C104*%
X17040000Y20100000D03*
X16040000Y20100000D03*
%TD*%
D16*
%TO.C,C119*%
X53900000Y40100000D03*
X54900000Y40100000D03*
%TD*%
D69*
%TO.C,U105*%
X56737500Y41350000D03*
X56737500Y42300000D03*
X56737500Y43250000D03*
X54462500Y43250000D03*
X54462500Y42300000D03*
X54462500Y41350000D03*
%TD*%
G36*
X52381694Y24181694D02*
G01*
X52400000Y24137500D01*
X52400000Y23862500D01*
X52381694Y23818306D01*
X52337500Y23800000D01*
X52262500Y23800000D01*
X52218306Y23818306D01*
X52200000Y23862500D01*
X52200000Y24137500D01*
X52218306Y24181694D01*
X52262500Y24200000D01*
X52337500Y24200000D01*
X52381694Y24181694D01*
G37*
%LPD*%
M02*
