M48
; DRILL file {KiCad 8.0.5} date 2024-10-03T19:56:58-0400
; FORMAT={-:-/ absolute / inch / decimal}
; #@! TF.CreationDate,2024-10-03T19:56:58-04:00
; #@! TF.GenerationSoftware,Kicad,Pcbnew,8.0.5
; #@! TF.FileFunction,Plated,1,4,PTH
FMAT,2
INCH
; #@! TA.AperFunction,Plated,PTH,ViaDrill
T1C0.0118
; #@! TA.AperFunction,Plated,PTH,ComponentDrill
T2C0.0118
; #@! TA.AperFunction,Plated,PTH,ComponentDrill
T3C0.0236
; #@! TA.AperFunction,Plated,PTH,ComponentDrill
T4C0.0394
; #@! TA.AperFunction,Plated,PTH,ComponentDrill
T5C0.0472
; #@! TA.AperFunction,Plated,PTH,ComponentDrill
T6C0.0866
%
G90
G05
T1
X0.1181Y1.1535
X0.1299Y1.3858
X0.1299Y0.3543
X0.1299Y0.2874
X0.1339Y0.2323
X0.1496Y0.7441
X0.1575Y0.3976
X0.1614Y0.1732
X0.2087Y0.3937
X0.2205Y0.1654
X0.2717Y0.3937
X0.2835Y0.1772
X0.3346Y0.3819
X0.3425Y0.2008
X0.3465Y0.311
X0.3504Y0.2598
X0.3543Y1.5709
X0.3583Y1.5
X0.4961Y1.4094
X0.5236Y1.4094
X0.5394Y1.5945
X0.5472Y0.9803
X0.5512Y1.4094
X0.5551Y1.7677
X0.5709Y1.5
X0.5827Y0.8465
X0.5866Y0.9331
X0.6063Y1.3701
X0.6142Y1.3071
X0.622Y0.7638
X0.6299Y1.189
X0.6299Y0.6102
X0.6417Y1.3071
X0.6614Y1.7598
X0.6693Y1.3071
X0.6969Y1.3071
X0.6969Y0.6575
X0.7087Y0.5445
X0.7244Y1.3071
X0.752Y1.3071
X0.7835Y0.6181
X0.7835Y0.5906
X0.811Y0.5906
X0.811Y0.6181
X0.8386Y0.5906
X0.8386Y0.6181
X0.878Y1.3189
X0.878Y1.2795
X0.878Y1.0709
X0.8976Y0.8543
X0.9528Y0.6693
X0.9724Y0.7835
X0.9724Y0.7362
X0.9764Y1.0472
X1.0039Y1.5354
X1.0039Y1.2874
X1.0236Y1.5748
X1.0433Y1.6654
X1.0472Y0.9094
X1.0669Y1.6299
X1.0669Y1.4961
X1.0709Y1.1929
X1.0965Y1.0098
X1.1043Y1.0492
X1.1063Y0.8346
X1.1299Y1.1339
X1.1299Y0.7362
X1.1299Y0.2874
X1.1457Y1.5039
X1.1654Y1.9134
X1.1654Y1.0709
X1.1693Y1.1457
X1.1772Y1.437
X1.1811Y1.6575
X1.2008Y1.2559
X1.2283Y0.2126
X1.2323Y1.6181
X1.2362Y1.4567
X1.2362Y1.4213
X1.2362Y0.7559
X1.248Y1.6496
X1.2559Y0.2126
X1.2638Y1.0
X1.2756Y1.1378
X1.2835Y0.2126
X1.3228Y0.7559
X1.3622Y0.3937
X1.3898Y0.3937
X1.4094Y1.2874
X1.4173Y0.3937
X1.4409Y0.5079
X1.4449Y0.3937
X1.4606Y1.5827
X1.5236Y1.0748
X1.5512Y1.5512
X1.5551Y0.4173
X1.563Y0.315
X1.5709Y1.6142
X1.5787Y0.8976
X1.5827Y0.4724
X1.5827Y0.4449
X1.5827Y0.4173
X1.5866Y0.2559
X1.5906Y0.3346
X1.5984Y0.8622
X1.6063Y1.0827
X1.6181Y0.3346
X1.6378Y1.4843
X1.685Y0.9724
X1.689Y1.0748
X1.6929Y1.6142
X1.6969Y1.563
X1.7244Y1.0354
X1.7323Y1.4843
X1.7402Y1.5394
X1.7598Y1.6063
X1.7717Y0.3031
X1.7795Y1.0394
X1.7835Y1.0748
X1.7874Y0.9961
X1.7913Y0.4173
X1.7913Y0.3661
X1.7953Y0.8425
X1.8189Y1.3976
X1.8228Y0.8425
X1.8465Y1.2559
X1.8465Y1.0
X1.9094Y1.4094
X1.9094Y0.5669
X1.9094Y0.5315
X1.9094Y0.1732
X1.9134Y1.4567
X1.9173Y1.5669
X1.9291Y1.2835
X1.9475Y0.748
X1.9488Y1.5945
X1.9528Y1.8701
X1.9567Y0.8504
X1.9764Y0.3976
X2.0039Y0.7244
X2.0276Y1.0906
X2.0354Y0.3937
X2.0433Y1.1772
X2.0748Y0.4173
X2.0906Y1.378
X2.0945Y1.437
X2.0945Y0.5709
X2.1024Y1.6654
X2.122Y0.3898
X2.1299Y1.315
X2.1614Y1.3465
X2.189Y0.5512
X2.1929Y1.6654
X2.1969Y1.5748
X2.2008Y1.3504
X2.2008Y0.3268
X2.2126Y0.7441
X2.2165Y0.6772
X2.2165Y0.622
X2.2205Y1.0039
X2.2323Y0.5512
X2.2402Y1.3701
X2.2441Y0.7441
X2.248Y0.3425
X2.2598Y1.5669
X2.2717Y0.6772
X2.2717Y0.622
X2.2717Y0.5512
X2.2835Y1.7323
X2.2835Y1.6575
X2.2835Y0.7441
X2.2992Y0.3268
X2.3031Y0.5512
X2.3661Y0.8661
X2.3819Y0.8268
X2.3858Y0.4528
X2.3898Y1.6181
X2.3976Y1.6693
X2.4016Y1.1693
X2.4094Y0.878
X2.4213Y0.4409
X2.4213Y0.3386
X2.4606Y0.4409
X2.4606Y0.3386
X2.4646Y1.1969
X2.4685Y1.1457
X2.4843Y1.2559
X2.4882Y0.8701
X2.4961Y1.1654
X2.5315Y0.8701
X2.5354Y1.1457
X2.563Y1.063
X2.563Y0.2913
T2
X0.1929Y0.3425
X0.1929Y0.2874
X0.1929Y0.2323
X0.2441Y1.2303
X0.2441Y1.1909
X0.2441Y1.0925
X0.2441Y1.0531
X0.2441Y0.8366
X0.2441Y0.7972
X0.2441Y0.6988
X0.2441Y0.6594
X0.3031Y0.3425
X0.3031Y0.2874
X0.3031Y0.2323
X0.313Y1.8386
X0.313Y1.7362
X0.3465Y1.2303
X0.3465Y1.1909
X0.3465Y1.0925
X0.3465Y1.0531
X0.3465Y0.8366
X0.3465Y0.7972
X0.3465Y0.6988
X0.3465Y0.6594
X0.3524Y1.8386
X0.3524Y1.7362
X0.4291Y0.3425
X0.4291Y0.2874
X0.4291Y0.2323
X0.4508Y1.8386
X0.4508Y1.7362
X0.4902Y1.8386
X0.4902Y1.7362
X0.5394Y0.3425
X0.5394Y0.2874
X0.5394Y0.2323
X0.6091Y1.5213
X0.6091Y0.9583
X0.613Y1.5472
X0.613Y0.9843
X0.6142Y1.624
X0.6142Y1.061
X0.6299Y1.5945
X0.6299Y1.565
X0.6299Y1.0315
X0.6299Y1.002
X0.6303Y1.5283
X0.6303Y0.9654
X0.6378Y1.624
X0.6378Y1.061
X0.6417Y1.498
X0.6417Y0.935
X0.6614Y1.624
X0.6614Y1.061
X0.6732Y1.498
X0.6732Y0.935
X0.685Y1.624
X0.685Y1.061
X0.7047Y1.5098
X0.7047Y0.9469
X0.7087Y1.624
X0.7087Y1.5669
X0.7087Y1.061
X0.7087Y1.0039
X0.7283Y1.5098
X0.7283Y0.9469
X0.7323Y1.624
X0.7323Y1.061
X0.752Y1.5098
X0.752Y0.9469
X0.7559Y1.624
X0.7559Y1.061
X0.7756Y1.5098
X0.7756Y0.9469
X0.7795Y1.624
X0.7795Y1.061
X0.7874Y1.5965
X0.7874Y1.5669
X0.7874Y1.5374
X0.7874Y1.0335
X0.7874Y1.0039
X0.7874Y0.9744
X0.8031Y1.624
X0.8031Y1.5098
X0.8031Y1.061
X0.8031Y0.9469
T4
X0.5963Y0.0984
X0.6575Y1.8514
X0.6963Y0.0984
X0.7356Y1.9933
X0.7575Y1.8514
X0.7963Y0.0984
X0.8356Y1.9933
X0.8575Y1.8514
X0.8963Y0.0984
X0.9356Y1.9933
X0.9575Y1.8514
X1.0356Y1.9933
X1.0955Y0.0933
X1.1356Y1.9933
X1.1955Y0.0933
X1.2356Y1.9933
X1.2955Y0.0933
X1.3356Y1.9933
X1.3955Y0.0933
X1.4205Y1.8504
X1.4205Y1.7504
X1.4356Y1.9933
X1.4955Y0.0933
X1.5205Y1.8504
X1.5205Y1.7504
X1.5356Y1.9933
X1.5955Y0.0933
X1.6205Y1.8504
X1.6205Y1.7504
X1.6356Y1.9933
X1.6955Y0.0933
X1.7205Y1.8504
X1.7205Y1.7504
X1.7955Y1.9933
X1.7955Y0.0933
X1.8955Y1.9933
X1.9955Y1.9933
X1.9955Y0.0933
X2.0955Y1.9933
X2.0955Y0.0933
X2.1955Y1.9933
X2.1955Y0.0933
X2.2955Y1.9933
X2.2955Y0.0933
X2.3955Y1.9933
X2.3955Y0.0933
X2.4955Y1.9933
X2.4955Y0.0933
T5
X0.2953Y1.2106
X0.2953Y1.0728
X0.2953Y0.8169
X0.2953Y0.6791
X0.3327Y1.7874
X0.4705Y1.7874
T6
X0.1181Y1.9685
X0.6693Y0.2756
X2.2047Y1.8307
X2.2047Y1.1024
T3
G00X2.3281Y1.8039
M15
G01X2.3715Y1.8039
M16
G05
G00X2.3281Y1.4638
M15
G01X2.3715Y1.4638
M16
G05
G00X2.4986Y1.8039
M15
G01X2.5301Y1.8039
M16
G05
G00X2.4986Y1.4638
M15
G01X2.5301Y1.4638
M16
G05
T4
G00X0.248Y0.3268
M15
G01X0.248Y0.248
M16
G05
G00X0.3209Y0.1024
M15
G01X0.4193Y0.1024
M16
G05
G00X0.4843Y0.3268
M15
G01X0.4843Y0.248
M16
G05
M30
